<?xml version="1.0" encoding="UTF-8"?>
<svg id="Layer_1" xmlns="http://www.w3.org/2000/svg" version="1.1" viewBox="0 0 720 720">
  <!-- Generator: Adobe Illustrator 29.4.0, SVG Export Plug-In . SVG Version: 2.1.0 Build 152)  -->
  <defs>
    <style>
      .st0 {
        fill: #041e42;
      }

      .st1 {
        fill: #fff;
      }

      .st2 {
        fill: #b9975b;
      }

      .st3 {
        display: none;
      }

      .st4 {
        fill: #c8102e;
      }
    </style>
  </defs>
  <path class="st2" d="M680.06,413c6.53,8.1,9.19,18.53,8.54,28.83-.2,3.25-1.13,11.73-3.85,13.18-6.11,3.23-21.98,7.67-29.25,9.67-32.64,9.03-67.74,12.11-101.56,12.39-.16-1.19,2.13-1.46,2.91-1.53,32.93-3.48,62.31-5.57,94.42-15.08,2.16-.64,38.37-12.42,34.89-15-22.34,5.57-44.32,12.78-67.17,16.77-17.13,2.99-33.82,3.75-50.91,5.88-1.6.2-1.17-.19-1.15-1.56,29.32-3.33,59.56-9.97,87.2-20.28,4.09-1.52,17.04-6.34,19.85-8.53.39-.3.87-.69.81-1.22-.84-.63-16.42,4.87-19.12,5.6-19.76,5.29-39.84,7.94-60.35,8.17-.2-1.23,1.52-.96,2.43-1.19,26.77-6.87,55.6-8.57,80.29-21.91.12-.63-.73-.47-1.22-.4-9.76,1.4-22,6.18-32.2,8.37-10,2.15-19.58,4.67-29.86,2.98-.24-2.1,0-1.29,1.19-1.64,9.84-2.91,20.24-4.65,30.25-7.88,7.78-2.5,15.24-5.6,22.9-8.34l-1.09-1.49-44.33,12.45,46.42-25.03c3.26-1.09,8.03,4.38,9.96,6.77l.02.02h0ZM38.08,456c3.29,15.2,11.01,25.99,26.13,31.05,28.32,9.49,63.05,11.94,92.73,14.39l9.29-1.64c-30.47-2.86-60.59-8.07-90.41-14.61l1.64-.84c30.08,5.19,60.25,10.86,90.85,11.42l6.85-1.64c-27.39-1.8-54.45-5.85-81.25-11.62-12.25-2.63-25.72-5.6-37.58-9.47-.96-.3-16.1-4.82-13.35-7.3,11.91,3.89,24.07,6.88,36.33,9.49,31.35,6.63,64.19,11.25,96.26,11.6l6.08-1.6c-28.82-2.12-57.84-5.75-86.12-11.62-19.43-4.02-39.57-8.93-57.43-17.59h-.03.02ZM340.76,158.59c-4.09-6.97-8.32-14.04-13.11-20.55l29.05,54.89c38.57,69.45,75.37,139.99,116.28,208.15,5.25,8.76,10.45,17.74,16.86,25.7-12.08-25.06-25.94-49.31-39.6-73.54-36.51-64.77-71.85-130.58-109.49-194.66h.01ZM576.26,491.71l-32.06-.83,10.23,2.33c34.73,2.88,69.66-2.2,102.89-12.08-.03,1.92-3.89,2.96-5.44,3.48-9.12,3.08-21.72,5.71-31.3,7.63-25.76,5.18-47.58,6.22-73.79,3.72-.9-.09-2.76-.96-2.59.57,19.82,4.39,41.04,4.01,61.13,1.52,23.18-2.86,51.37-10.39,69.83-25.06,1.59-1.25,3.33-3.16,4.48-4.84-9.46,3.79-18.6,8-28.39,10.95-24.38,7.3-49.54,11.21-75,12.62v-.02h.01ZM83.5,466.14c24.77,5.21,63.19,11.94,88.02,10.95.99-.03,3.01.61,2.82-.8-46.84-8.07-95.56-11.63-139.51-30.82.27,3.98.24,6.63,4.04,8.53,10.45,5.18,32.64,9.66,44.6,12.18l.02-.02h0ZM52.5,449.27c34.54,9.15,71.46,13.15,106.84,18.07l6.88-.8c-34.82-6.73-70.48-11.28-104.43-21.69-9.07-2.79-17.82-6.57-26.96-9.13-2.53,10.22,10.26,11.58,17.67,13.55h0ZM123.78,452.62c6.14.9,13.25,2.1,19.35,2.55.9.07,3.78.64,3.63-.8-36.42-9.6-74.65-14.45-109.21-29.91-2.88-.29-1.8,6.12-1.8,7.91,28.65,9.47,58.15,15.88,88.05,20.22v.02h-.01ZM543.77,482.77c-.99.03-3.01-.61-2.82.8,38.31,4.43,77.43-.1,114.52-9.96,8.74-2.32,17.14-6.35,26.06-7.2l3.79-7.97c-20.95,8.36-42.37,15.4-64.71,19.23-26.59,4.55-50.26,4.06-76.82,5.11h-.02.01ZM135.41,443.84l-95.69-28.41-1.27,5.71c30.49,10.92,62.82,15.94,94.33,23.28l2.62-.61v.02h0ZM64.02,419.1c13.11,3.18,26.43,5.61,39.75,7.67-1.12-1.7-4.06-2.55-5.95-3.36-12.92-5.65-26.9-7.88-40.47-11.45-5.92-1.56-13.74-7.44-16.03.64.07,1.19,20.02,5.85,22.68,6.5,0,0,.02,0,.02,0ZM48.09,406.63c7.22,1.96,15.04,4.18,22.44,4.77-.2-1.25-1.5-1.52-2.45-2.02-3.63-1.86-20.63-10.15-21.86-4.06-.37,1.85.77,1,1.88,1.3h-.01ZM617.2,451.94l-24.63,2.53-11.06,2.32c10.6-.09,23.17-.63,33.41-3.48.84-.24,2.45-.19,2.26-1.37h.01ZM524.75,515.61c-2.25,1.05-10.42,11.94-12.98,14.63-41.26,43.23-92.9,74.72-148.85,95.3-60.93-22.62-114.02-56.19-158.17-103.82-1.22-1.32-3.56-5.55-4.46-6.11-2.08-1.29-10.33,1.1-10.59,4.09-.2,2.52,11.01,15.56,13.41,18.21,35.16,39.01,92.88,75.83,141.57,95.26,4.12,1.64,13.61,6.17,17.42,6.17,5.19,0,28.61-10.39,34.76-13.15,47.41-21.45,96.15-54.95,129.89-94.77,1.73-2.03,9.96-10.72,8.44-12.92-3.36-.24-7.37-4.35-10.45-2.92l.02.03h-.01ZM358.46,602.38c2.15.74,3.67,1.39,6.07,1.3,3.89-.13,18.67-7.91,23.14-10.2,36.36-18.5,69.75-41.2,98.57-70.13l18.67-21.12c.77-1.49-3.94-5.87-5.31-6.9-1.23-.93-2.57-2.35-4.31-1.92-14.52,12.41-26.53,29.56-41.2,41.6-11.36,9.32-31.41,21.88-44.27,29.54-15.88,9.46-33.11,17.11-49.33,26-30.34-14.24-58.9-32.08-85.97-51.84l-48.33-40.92c-2.7-1.85-7.53,3.35-7.3,5.64.26,2.7,26.77,27.33,30.85,30.88,26.49,23.07,75.77,56.71,108.71,68.11v-.03h.01ZM466.33,318.12l41.37,75.41c2.13.19,1.33.09,1.57-1.23,4.35-23.35,5.22-48.24,8.94-71.76-17.37.09-34.75.44-51.9-2.43v.02h.01ZM389.16,296.34l85.85,168.18c-9.12,12.41-16.94,26.19-28.96,36.09-.57-4.18.8-10.32,0-14.18-3.23-15.74-40.87-26.13-54.75-27.96-27.99-3.74-84.37,0-106.67,19.03-7.33,6.25-8.53,11.09-8.5,20.68-9.3-9.01-16.66-19.58-23.67-30.42,7.28-11.88,13.87-24.23,21.31-36.02,3.84-6.07,9.4-11.83,12.82-18,6.83-12.29,12.26-27.8,18.45-40.75,5.78-12.12,12.49-23.83,17.74-36.2,1.06.43,1.52,1.39,2.85,1.6,5.38.9,13.05.71,18.63.81,10.13.19,22.17.19,32.34-.92,1.89-.2,4.74-.59,6.18-1.93-1.43-.84-3.56-1.13-5.24-1.25-10.87-.76-26.4-.57-37.39,0-5.53.29-10.96,2.18-16.59,1.66,12.55-28.51,28.09-55.46,42-83.3.5-.77.92-2.16,2.18-1.86,2.32.54,18.67,38.01,20.69,42.99l-28.02-.83-8.47,1.64c12.28,1.86,24.8,2.23,37.18.95h.03ZM358.45,288.11c4.16.63,8.36,1.12,12.62.84,1.23-.09,4.82-.19,5.24-1.64-5.75-1.88-10.72-1.88-16.6-.8-1.32.26-1.4-.56-1.23,1.59h-.02ZM284.65,470.61c-7.78-1.5-14.81-2.12-22.71-.81.54,1.64,3.23,1.99,4.67,2.22,4.87.71,12.14,1.32,16.83.2,1.23-.29,1.42.57,1.22-1.6h-.01ZM296.81,459.24c-11.26-2.43-22.65-1.62-34.06-.81-.9,1.8,3.78,2.35,4.46,2.43,7.93.83,18.49,0,26.77,0,.17,0,3.16-.76,2.85-1.6l-.02-.02h.01ZM333.32,451.14c-9.12-.83-19.66-1.5-28.83-.84-2.29.16-7.24.46-8.49,2.45,9.33.8,20.28,1.57,29.62.84,2.15-.17,6.54-.43,7.67-2.45h.02ZM350.35,438.97l-78.66,2.02c2.25,1.46,6.63,1.89,9.29,2.06,18.87,1.17,45.29.61,64.02-1.74,1.6-.2,4.68-.57,5.36-2.33h0ZM347.46,302.72c4.31,1.09,13.88,1.56,18.67,1.64,5.61.1,11.11-.27,16.67-.86-.67-1.74-3.79-2.15-5.36-2.33-6.8-.77-13.49-.26-20.16-.07-3.92.12-7.88-.16-11.79-.03-.4,2.45.61,1.3,1.96,1.64v.02h0ZM469.58,464.92c-6.68-1.06-13.19-.17-19.86.83-1.1.17-2.53.36-1.22,1.59,6.48,1.47,13.34.16,19.86-.83,1.42-.2,1.37.44,1.22-1.6v.02h0ZM461.08,451.94c-9.13-1.47-19.35-.93-28.39.83-1.19.24-2.52,0-2.85,1.6l16.66.84,17.4-1.66c-.34-1.57-1.62-1.42-2.85-1.62h.02ZM459.03,442.22l-21.52.03c-10.83-1.23-22.14.92-33.21.77l-6.08,1.6c1.76.2,3.43.73,5.24.84,14.6,1,35.69.64,50.23-.95,1.25-.13,6.18-.22,5.38-2.33l-.02.02h-.01ZM453.35,426.8c-16.74-.71-32.54.34-49.07,2.43-1.1.13-2.59.57-1.2,1.6l40.94-.81c2.45-.54,5.05-.81,7.46-1.5,1.37-.39,2.26.61,1.88-1.73h-.01ZM420.54,419.53c-8.47.26-16.73-.22-25.2.77-1.49.17-1.32-.26-1.2,1.62,12.21.9,24.66,1.23,36.93.84,1.92-.07,3.69-.8,5.61-.87,4.12-.19,9.07.54,13.02.03,1.13-.13,2.36-.44,1.2-1.6-7.98-2.25-16.5-1.79-24.77-1.67-1.92.03-3.69.83-5.61.87h.02ZM396.58,327.86h-56.77c1.09,1.96,5.55,2.16,7.71,2.42,13.88,1.6,31.54,1.39,45.3-.92.96-.16,3.78-.26,3.75-1.5h.01ZM394.95,318.12c-19.63-2.06-39.57-2.43-59.21-.4,10.2,2.69,20.82,1.88,31.27,1.99,6.29.07,12.81,1,19.43.03l8.53-1.6v-.02h-.01ZM306.7,493.87c2.57-8.47,33.01-13.49,41.04-14.12,17.74-1.39,43.36.3,60.35,5.67,7.91,2.5,15.51,10.82,6.07,16.96-19.8,12.88-75.11,10.98-97.26,3.67-4.67-1.53-11.98-6.4-10.22-12.18h.02-.01ZM397.78,501.42c2.57-.73-.06-9.06-3.22-8.1-2.76.84-.3,9.1,3.22,8.1ZM383.59,504.66c1.25-1.29-2.02-17.07-7.28-14.6-.66.64,2.29,16.44,7.28,14.6ZM364.94,503.85c.95-.95-.84-15.42-5.67-13.78-.95.96,1.05,15.44,5.67,13.78ZM348.73,506.29c7.07,1.22,1.02-16.17-1.22-16.2-3.45,4.84.67,11.09,1.22,16.2ZM335.25,506.24c2.88-1.59,2.25-4.68,1.92-7.46-.26-2.05-2.03-10.49-5.05-9.52-2.96.93-.66,17.62,3.15,16.97h-.01ZM440.43,119.04c-1.46,1.19-10.13,13.11-8.96,14.15h98.55c11.11,12.16,21.29,25.21,32.43,37.32,12.39,13.48,26.62,25.53,37.71,40.16-2.32,21.17-6.48,42.26-9.57,63.38-7.37,50.23-16.21,100.56-22.72,150.85-.29,2.25-.8,5.08-.95,7.18-.09,1.23-.12,1.42,1.23,1.23,1.59-.24,8.87-3.69,9.57-5.09,8.53-38.44,14.6-77.41,20.69-116.3,4.97-31.61,10.69-64.94,14.6-96.52.46-3.72,1.77-10.09.77-13.49-.47-1.64-18.5-19.28-21.34-22.45-7.5-8.43-14.22-17.69-21.88-25.97-11.38-12.31-23.94-23.8-36.09-35.36-28.2.54-56.58.93-84.82.53-3.32-.06-6.31-1.98-9.25.43l.02-.03h.01ZM146.52,425.23c1.06.83,8.2,3.18,9.56,3.22.77-.09.46-1.36.4-2.02-.96-11.33-4.6-25.7-6.34-37.48-3.99-26.9-6.98-53.95-10.79-80.86-4.65-32.93-10-65.78-14.91-98.65,25.53-23.73,52.84-45.59,75.01-72.64l5.7-3.23c20.14-.46,40.34-.67,60.49-.43,2.32.03,4.29.84,6.41.87,3.59.06,25.48.43,26.4-.84-1.74-3.39-6.67-13.9-10.16-14.58l-88.18.17c-5.64,3.35-9.2,9.03-13.97,13.61-21.72,20.88-44.2,41.33-65.74,62.42-2.81,2.74-9.99,8.76-9.93,12.35,9.99,58.51,16.81,117.59,26.7,176.11,1.1,6.53,5.75,39.12,9.37,41.96v.02h0ZM184.5,198.91c12.09-11.69,23.74-23.86,35.46-35.92,31.35-1.96,62.85-2.2,94.29-2.23l2.02-1.22c-4.32-10.98-9.5-7.05-18.19-6.87-25.4.53-54.85-2.23-79.56-.07-6.43.56-9.27,4.08-13.38,8.53-4.99,5.42-9.79,11.99-14.97,17.47-13.29,14.05-27.85,26.79-42.43,39.48l-.17,3.88c7.86,55.74,12.88,112.45,23.77,167.65,1.19,5.98,8.77,43.93,12.42,45.16,1.62.54,4.18-.1,5.98.12-.03-2.26.13-4.53-.1-6.8-1.85-17.86-7.44-38.69-10.32-57-6.77-43.19-12.02-86.88-15.56-130.44-.49-6.07-2.88-14.73-1-20.48,1.59-4.87,17.14-16.87,21.69-21.29l.02.02h.01ZM550.67,322.57c-4.16,37.92-9.5,75.77-14.39,113.59.24,1.4,4.43,1.66,5.36,1.06,2.55-1.6,12.06-52.1,12.95-58.83l21.66-163.28-66.08-62.12-9.33-1.2-79.36-.6-6.24,8.74c21.21.44,42.5-.57,63.69-.03,1.92.06,3.69.81,5.61.87,6.68.24,18.33-1.3,23.96,1.17,5.34,2.35,30.22,27.7,36.1,33.64,2.33,2.35,15.76,16.23,16.25,17.82,1.88,6.11-2.15,22.42-2.88,29.66-2.67,26.46-4.41,53.03-7.33,79.48v.02h.02ZM671.52,508.3c-17.93,7.66-65.7,16.28-85.56,17.43-29.58,1.73-64.24-11.48-85.17-32.41-2.78-2.78-14.91-20.68-16.93-20.26-12.19,15.05-25.14,29.44-39.81,42.17-3.79,7.05-.22,18.13-5.67,24.35-3.85,4.39-22.05,15-27.8,16.81-3.99,1.25-7.98,1.23-12.21,2.39-11.43,3.13-27.72,14.25-38.71,14.08-9.8-.16-22.65-7.66-31.82-11.23-14.15-5.51-43.69-13.34-46.89-30.98-1.02-5.6.67-11.35-1.29-16.56l-36.96-38.51c-.95-.32-1.8-.27-2.67.27-.86.54-7.56,9.77-9.42,11.69-35.13,36.46-61,36.99-110.21,33.33-56.75-4.22-119.07-14.17-113.06-86.27,2.96-35.46,20.58-63.97,59.89-48.75,48.58,18.82,69.2,49.33,128.58,50.67,4.36.1,9.23,1.47,13.85-.76.9-1.27-.36-9.42-.67-11.6-2.92-19.62-9.46-40.05-13.31-59.69-8.66-44.1-13.95-88.98-19.7-133.55,7.93-9.74,16.7-19.07,25.94-27.62,4.22-3.91,30.31-26.82,33.24-27.59,5.98.02,12.41-1.02,18.25-1.23,21.34-.77,47.82,2.4,68.2.07.9-.1,2.6-.26,2.81-1.29.1-.56-3.5-9.04-4.18-10.4-9.5-19.33-24.31-36-36.25-53.79-2.03-3.02-5.22-7.47-6.07-10.96-11.43-47.51,74.25-53.96,65.14-2.69,4.04,11.79,12.84,22.04,17.97,33.53,4.26.13,8.57,1.22,11.6-2.33,1.12-1.32,12.69-21.39,13.04-22.64,1.43-5.22-2.16-7.24-2.79-11.85-1.66-12.06,3.19-22.25,13.48-28.56,33.01-20.26,79.32,18.59,46.23,52.32-.77.8-2.81,1.27-4.26,2.66-6.14,5.84-13.56,22.34-18.36,30.31-4.71,7.78-11.28,14.93-14.31,23.48l.87,2.02c1.59.57,3.32,1.09,5.02,1.03,23.48-.64,50.61-3.09,73.88-1.69,6.27.37,13.52,1.06,18.6,4.92,10.15,7.71,34.97,29.96,42.2,39.71,2.62,3.53,2.22,5.84,1.99,10.15-1,19.49-5.68,41.97-8,61.75-5.55,47.14-9.96,94.44-17.74,141.26-.26,5.65,13.52,7.98,18.06,8.27,37.54,2.33,87.29-40.92,122.09-54.71,16.03-6.35,36.58,1.37,45.55,16.03,21.22,34.69-.13,91.6-36.68,107.21v.02h0ZM403.08,180.65l-9.69,13.78c15.76,33.07,35.07,64.31,52.8,96.38,18.49,33.41,36.17,69.07,55.68,101.66,2.89,4.82,7.04,12.04,10.7,16.07.92.99,1.62,2.32,3.22,2.05,6.81-62.95,16.04-125.6,22.61-188.6l-.47-1.74c-11.75-12.73-26.17-22.55-39.08-33.97-1.36-1.2-2.05-3.18-3.74-4.38-2.66-1.89-12.92-2.29-17-2.46-19.58-.87-44.66-1.09-64.15,0-3.62.2-7.27,1-10.9,1.27l.02-.03v-.02ZM213.39,415.33c1.86.46,4.11.27,5.14-1.53l110.5-192.84c1.53-3.09,8.37-16.94,8.37-19.23.02-3.42-8.77-20.51-11.6-21.71-1.1-.47-2.2-.71-3.39-.64-24.14,1.64-50.84-2.05-74.68,0-14.44,1.25-25.14,16.56-35.24,25.59-9.13,8.17-18.55,16.11-28,23.91-.6,1.15-.47,2.39-.43,3.62.49,10.08,4.09,23.73,5.58,34.23,6.98,49.63,11.25,100.05,23.74,148.6l.02.02-.02-.02ZM435.5,510.34c-1.6-1.19-12.92,5.12-15.42,6.05-30.85,11.65-84.46,13.84-114.9.56-4.81-2.1-8.9-5.24-13.49-7.6-.66-.34-1.7-1.4-2.18-.24,6.94,10.53-1.56,23.05,10.28,31.08,18,12.25,76.3,11.92,97.79,8.03,6.74-1.22,28.65-7.05,31.62-12.99,3.48-6.95-.26-18.46,6.31-24.91h0ZM298.42,501.84c21.76,18.06,103.98,18.39,126.14,1.2,16.9-13.11-.49-21.21-13.21-24.91-19.45-5.67-42.6-7-62.8-5.67-13.09.86-45.58,5.08-53.36,16.38-3.65,5.31-1.19,9.36,3.23,13.01v-.02h0ZM479.38,464.51c-27.99-51.69-54.95-103.98-81.08-156.65-8.17-16.46-15.24-34.54-24.03-50.6-1.39-2.53-4.77-8.69-6.54-10.49-.67-.67-.74-1.15-1.98-.86-4.95,12.36-12.51,23.45-18.8,35.13-33.47,62.12-61.96,127.04-99.51,186.89-.59,2.1.95,3.42,1.99,5.01,3.94,5.92,11.25,14.12,16.13,19.55,1.62,1.8,9.5,10.79,10.52,11.38,1.3.76,2.18.99,3.69.77v-12.56c0-3.95,4.67-10.72,7.73-13.35,27.29-23.55,119.6-23.61,147.94-1.98,11.89,9.06,5.11,17.89,8.57,30.34,4.25-3.08,8.22-7.1,11.79-10.92,3.92-4.18,23.58-27.72,23.57-31.65h.02-.01ZM694.93,405.44c-10.4-14.98-24.2-12.31-39.09-6.11-46.48,19.33-109.59,95.22-154.33,29.99-57.41-103.32-117.59-205.45-172.39-310.21-3.29-6.29-10.16-17.76-11.65-24.07-.9-3.84,2.36-7.17-2.2-9.12-5.04-2.15-12.18,2.3-12.77,7.5.44.53,6.64.07,5.67,2.03-1.53,3.11-13.48,4.84-14.48.66.66-10.7,17.9-21.58,27.06-15.66,9.29,6.01,1.22,11.62,2.39,17.06,37.81,74.35,77.92,147.59,118.72,220.33,12.81,22.83,25.44,46.61,38.92,68.94,10.03,16.63,20.63,33.89,37.05,44.88,1-.8.17-2.85-.22-3.84-2.69-6.97-11.36-21.04-15.45-28.35-8.67-15.48-18.32-30.47-27.03-45.96-30.12-53.39-59.93-106.95-88.95-160.93l43.79-79.16c1.3-1.12,2.32-3.28,3.39-4.31,3.85-3.71,6.87-3.35,9.04-10,6.74-20.75-25.26-35.62-41.21-23.37-6.04,4.64-8.87,13.8-5.81,20.95,1.77,4.12,4.21,2.1,2.42,7.27-3.32,9.56-18.13,33.6-24.07,43.27-1.15,1.88-4.67,8.69-6.74,8.53-10.4-15.34-18.65-32.13-27.83-48.24-1.67-2.92-6.14-8.49-7.05-10.86-.9-2.35,1.19-4.06,1.67-6.37.99-4.55.36-7-2.46-10.62-13.55-17.39-51.77-4.68-43.57,19.25,14.71,24.18,30.41,47.92,44.1,72.69,2.36,4.26,15.53,27.83,14.88,30.64-34.66,59.01-66.96,119.42-100.84,178.9-8.71,15.28-21.76,33.64-28.85,49.02-.83,1.8-1.52,3.55-1.3,5.6,10.79-1.76,16.59-11.16,22.24-19.53l112.42-202.7c1.05.13,1.5,1.13,1.62,2.08.47,3.65-7.98,18.77-10.13,23.08-30.98,61.93-64.24,122.81-96.6,184.02-18.43,29.05-59.63,33.2-89.98,22.8-37.41-12.82-65.98-50.7-105.46-52.74-22.84-1.19-28.75,38.23-27.14,54.75,3.84,39.27,37.49,51.6,71.06,56.25,61.23,8.5,110.18,10.77,148.91-43.92,18.79-26.55,35.24-60.76,50.53-89.79,22.37-42.5,46.38-87.02,66.77-130.3,1.76-3.74,2.85-8.9,5.78-11.65-.06,1.29.39,2.42.92,3.55,7.83,16.76,18.49,34.1,27.09,50.77,27.07,52.42,52.39,108.46,81.35,159.54,30.69,54.09,67.66,73.47,130.2,65.84,24.4-2.98,62.53-8.08,80.45-25.8,17.03-16.84,23-56.61,9.15-76.54l.03-.07h-.04ZM417.48,101.78c3.43-10.5-4.01-5.88-6.29-13.58.86-2.91,16.7-1.39,15.34,3.89-.47,1.83-4.01,2.12-4.02,4.18-.06,4.29,9.19,3.16,11.19,1.03,2.23-2.36.92-8.04-.73-10.6-5.65-8.76-23.65-10.5-29.42-1.32-5.28,8.4,6.68,10.87,5.9,17.18-.32,2.63-3.78,8.46-5.12,11.19-9.32,18.83-19.76,37.2-29.29,55.94l2.5,5.67c12.04-25.21,26.17-49.3,39.95-73.57h-.02ZM263.56,314.07c-19.72.54-39.67-1.42-59.2,1.62l-1.64-8.93,32.89.84c7.97-1.73,16.21-.36,24.3-.84,1.67-.1,10.95-.95,10.95-2.02-.99-1.47-2.15-1.15-3.6-1.25-16.37-1.22-38.55-.57-55.22,0-3.08.1-6.32,1.43-9.64.9l-1.27-5.71,55.55-.83,15.83-1.62c.24-.81-3.45-1.6-3.65-1.6h-68.53v-4.87h30.42c.6,0,2.36-1.33,3.65-.81l-1.22-2.43h-21.09c-1.15,0-7.22.84-8.57,1.15-1.6.37-2.62,1.36-3.99,2.08l-.81-8.11h34.47c.43,0,1.69-1.3,2.85-.81.26.24-2.46,7.34.39,6.48,4.52-1.39,12.58-11.79,17-11.35,4.25.4,12.94,12.28,19.1,10.55,1.36-1.29-9.04-17.42-8.01-20.55.32-.96,14.08-9.96,16.4-12.06.8-.73,1.74-.73,1.36-2.29l-24.24-.09c-.49-5.64-3.89-11.26-4.92-16.57-.46-2.4,1.03-.37,1.2-.37h15.4c1.27,0,4.72-1.69,6.88-.81v-1.62h-24.33l-1.2-3.23-1.73,3.28-45.72,3.19c-.19,1.42,1.85.76,2.82.8,6.5.27,13.05-.64,19.45.84l23.17-1.23c-1.32,3.23-2.36,15.11-4.6,16.49-3.67,2.26-14.83-.07-20.03,1.89-1.19.44-1.06,2.1-1.89,2.3-4.85,1.27-15.01-.99-20.53,0-.07.53,1.09,1.6,1.22,1.6,5.75,0,13.18.61,18.65,0,.24-.03.67-1.03,1.2-1.2,2.22-.69,13.44,8.23,15.88,10.12l-2.85,11.8-37.35,1.17-5.51-48.9c10.16-9.6,21.21-18.23,31.47-27.73,5.08-4.71,13.7-15.48,18.69-18.63,1.43-.92,2.62-1.42,4.38-1.29l73.45.44c2.06,5.12,9.9,14.07,9.67,19.42-.13,3.06-6.87,15.32-8.74,18.87-20.95,39.54-45.09,78.62-67.6,117.34-11.92,20.51-23.64,41.21-34.79,62.16l-2.89-1.19-12.48-83.14c11.53,2.1,23.65.27,35.32-.03,6.43-.17,9.96,1.1,17.26-.49,1.85-.4,5.53-1.06,6.61-2.7h-.06ZM203.14,247.54c-1.2.2-2.5.06-2.85,1.62,12.41,2.03,24.87-.03,37.3-.81-1.27-5.04-8.49-2.5-11.76-2.43-7.94.13-14.81.36-22.71,1.62h.02ZM232.75,207.8c14.97-.46,30.08.6,45.05.03,1.73-.07,3.25-.74,4.84-.83,3.84-.24,10.06,1.32,12.56-1.62-2.63.37-5.11-.69-7.67-.84-12.08-.73-42.33-1.43-53.03,1.42-1.46.39-2.1-.24-1.74,1.86v-.02h-.01ZM282.2,223.23c-21.9.64-44.2-1.25-66,.92-1.05.1-2.96.44-3.75,1.12-.02.84,9.4,1.93,10.96,2.02,19.18,1.12,38.57.36,57.58-2.45,1.42-.2,1.37.43,1.22-1.6v.02-.02ZM288.17,215.79c1.12-.19,4.41-.24,4.58-1.49-2.08.06-4.01-.77-6.08-.87-15.51-.76-52.76.53-67.37,4.09-1.37.34-2.36-.8-1.96,1.64,23.52-.06,47.62.57,70.83-3.36h0ZM284.65,280h-12.97c1.89,2.57,10.96,2.62,12.97,0ZM265.18,288.11l-7.71-1.69-14.18,1.69h21.9-.01ZM398.22,194.4l8.67-10.95c26.27.6,52.74-1.32,78.88,1.27,16.07,11.29,30.71,23.4,43.66,38.25,1,5.42-.95,10.76-1.46,16.07-.19,1.88.19,3.79,0,5.67-.44,4.09-3.79,31.24-4.78,32.54-.67.9-1.8,1.15-2.89,1.17l-28.02.77c.3,1.49,1.59,1.5,2.81,1.64,9.22,1.1,18.73,1.19,28.02,1.59l.03,2.72c-.59,2.53-27.55.9-31.55,1.22l-6.48-19.58,16.91-13.56-21.94-1.19-4.02-15.04c12.68.71,25.14-.57,37.72-1.62,4.11-.34,8.15.46,12.19-.8,1.23-.39,2.25-.13.8-1.66-2.6-2.72-45.13,1.37-51.83.07-.69-.19-2.08-9.67-3.74-.06h-41.36c-.19,1.12,1.43,1.23,2.23,1.4,9,1.96,19.07,1.52,28.2,1.8,3.46.1,6.4,1.79,10.09.03l-4.95,15.3-25.04.1,19.02,14.55-7.67,21.12,20.68-12.68,15,11.06c-7.98-.06-15.94-1.39-23.96-.83-1.23.09-4.82.19-5.24,1.64l64.07,3.25c.83,7.6-3.99,4.16-8.49,4.02-14.12-.44-27.96.63-41.8,3.28-.36.81,1.89,1.6,2.03,1.6h46.64l-.12,5.15-1.22,1.22c-13.14,1.62-26.69-.8-39.21,4.18-.07,1.19,2.92,1.43,3.74,1.52,11.66,1.19,23.47.87,35.19.9v4.87h-53.96l-66.9-122.1.03.06v.02ZM505.25,245.94v-.8c-2.16.77-4.6-.69-6.08-.81-5.36-.44-11.21.32-16.63,0v1.62h22.71v-.02h0ZM449.3,208.62l48.07-1.8,6.27-2.23c-5.9-1.96-11.72-.2-17.4.02-11.35.46-22.75.71-34.03,2.46-.84.13-3.02.32-2.91,1.53l-.02.02h.01ZM442,217.14c0,.36,5.9,1.19,6.87,1.25,10.95.67,26.43.66,37.38,0,2.63-.16,8.59-.46,10.12-2.45-8.74-.96-17.57-1.03-26.4-.84-1.92.03-3.69.81-5.61.87-7.47.29-15.04-.77-22.35,1.19l.02-.02h-.02ZM438.75,225.23c.92,1.33,2.22,1.17,3.6,1.27,22.04,1.49,56.07,1.76,77.24-3.99,1.39-.37,2.26.57,1.86-1.74l-82.72,4.45.02.02h0Z"/>
  <g>
    <path class="st4" d="M363.87,423.41c-1.76,0-3.45-.29-5.09-.57-1.43-.26-2.78-.49-3.98-.49-1.32,0-2.76.24-4.28.47-1.74.29-3.55.57-5.48.57-1.25,0-2.4-.12-3.53-.37-3.95-.9-7.01-4.6-9.49-7.57-.47-.57-.93-1.13-1.36-1.6-.07-.06-.3-.19-.49-.29-.81-.44-2.18-1.17-3.06-3.15-2.02-4.55-1.56-8.37-1.1-12.08.13-1.19.29-2.4.36-3.65.16-2.98.1-6.08.03-9.07-.03-1.85-.07-3.67-.06-5.44.02-3.33-.03-6.74-.09-10.05-.13-8.04-.26-16.37.67-24.48l.09-.74.53-.53c.81-.8,1.69-1.76,2.66-2.81,4.18-4.55,9.37-10.22,15.37-10.22h.36c1.85.09,3.98.27,6.04.46,2.66.24,5.41.49,7.57.49.74,0,1.42-.2,2.15-.4.83-.24,1.77-.5,2.79-.53,3.32,0,7.46,2.53,9.23,4.25,1.3,1.25,6.14,6.63,7.11,8.11,1.25,1.88,1.85,4.06,2.3,5.97l.07.32v.32c-.56,7.97-.2,16.64.13,25.04.39,9.57.8,19.46-.1,28.52-.19,1.88-.84,4.16-1.69,5.78-1.57,3.05-8.63,10.03-11.45,11.92-1.79,1.2-3.84,1.79-6.27,1.79l.03.02h.01ZM347.7,401.13c.76.69,1.74,1,3.18,1,1.3,0,2.76-.27,4.16-.53.99-.17,1.93-.34,2.81-.44h.12l.26-.02c.36,0,.81.07,1.36.13.46.07.99.16,1.4.16h.24v-47.31c-.57-.46-1.64-1.12-2.06-1.23h-.66c-2.92,0-9.46.46-10.32.66-.22.07-.46.16-.07,2.23.12.64.22,1.25.19,1.83l-.12,1.83c-.27,4.04-.56,8.64-.63,12.62-.1,6.91,0,13.98.07,20.82.03,2.76.07,5.51.09,8.26v.02h-.01ZM285.87,423.38c-3.82,0-7.64-.03-11.43-.1-1.06-.02-2.03-.29-2.79-.49-.46-.13-.93-.26-1.19-.26-.32,0-.95.16-1.5.29-.93.22-1.98.47-3.06.47-2.67,0-3.99-1.53-4.64-2.85-1.23-2.49-.74-21.25-.63-22.64.16-1.7.66-3.42,1.1-4.92l.36-1.25.39-.39c1.49-1.49,3.46-2.82,5.39-4.11,1.52-1.03,2.96-1.99,3.94-2.89.37-.34.71-.84,1.1-1.42.57-.84,1.23-1.79,2.23-2.66,2.26-1.96,4.82-3.91,7.51-5.95,4.16-3.16,8.46-6.43,11.43-9.64,1.02-1.1,2.12-3.62,1.47-9.36-.13-1.2-.39-1.56-.44-1.6h-.22c-.46,0-1.12.16-1.83.32-.95.22-2.03.47-3.16.47-.64,0-1.4-.1-2.3-.24-1.05-.16-2.23-.3-3.26-.3-1.33,0-1.66.29-1.66.29,0,.03,0,.53-.02.84-.07,1.37-.19,3.94-2.78,5.19-2.2,1.06-7.86,1.57-11.01,1.57-1.7,0-2.92-.12-3.75-.37-1.05-.32-2.52-1.13-3.55-3.25-1.76-3.6-1.32-9.12-.36-11.56,1.27-3.19,8.76-10.67,11.55-12.29,1.36-.8,2.98-1.73,4.72-1.98,2.3-.34,6.64-.54,11.63-.54s9.33.2,11.62.54c3.67.54,5.12,2.32,6.43,3.89.36.43.71.86,1.15,1.3,1.56,1.57,3.06,3.11,4.64,4.81.32.34.67.59,1.09.87,1.22.86,2.74,1.93,3.35,5.15.5,2.67.69,16.57-.03,19.28-.32,1.15-3.89,6.25-4.58,6.87-.86.74-1.96,1.36-3.15,2.02s-2.42,1.36-3.23,2.08c-.26.24-.5.64-.77,1.1-.4.66-.92,1.49-1.7,2.18-3.94,3.38-8.11,6.64-12.14,9.79-2.76,2.16-5.6,4.38-8.32,6.61-.03.1-.07.2-.1.32-.26.81-.93,2.95-.67,3.55h.4c.64,0,1.52-.19,2.29-.36.81-.17,1.57-.34,2.25-.34,1.06,0,1.93.17,2.78.34.8.16,1.53.29,2.32.29.3,0,.61-.02.95-.07,1.7-.24,1.77-.61,1.99-2.18.2-1.37.49-3.42,2.67-4.48,1.8-.87,5.14-1.46,8.5-1.46,6.32,0,10.25,1.99,10.76,5.46.53,3.59.4,13.22.02,16.79-.29,2.76-1.32,4.75-3.23,6.27l-.54.44-.69.03c-9.39.36-18.56.54-27.26.54v-.06l-.02.02ZM402.08,396.18c-5.19,0-8.43-1.79-8.43-4.65v-44.1h-.1c-.84,0-1.92.1-2.92.22-1.1.12-2.23.22-3.26.22-.87,0-3.25,0-4.38-1.83-1.22-1.96-1.8-9.33-.29-12.35.83-1.62,2.08-1.95,2.76-1.99h.2c.57,0,1.06.17,1.4.3.03,0,.09.03.12.06l.84-.12c2.25-.3,4.19-.57,6.54-.57.56,0,1.13,0,1.74.06,1.98.12,3.94.19,5.88.27,3.38.13,6.87.27,10.36.57,1.06.1,2.03.1,2.82.1h1.13c1.56,0,3.46,0,4.77,1.46,1.42,1.59,1.43,4.11.95,8.5-.61,5.51-5.15,5.51-6.64,5.51-.47,0-.96-.02-1.43-.03-.44,0-.87-.03-1.32-.03-1.57,0-2.25.26-2.63.71l-.22,45.06-.64.63c-1.86,1.8-5.68,2.02-7.24,2.02h-.02.01ZM432.66,395.85c-8.13,0-9.8-1.4-9.8-3.52v-60.06l2.06-.06h1.25c.73,0,1.46,0,2.18.02.71,0,1.4.02,2.12.02.46,0,.92,0,1.37-.02.27,0,.64-.12,1.03-.24.59-.17,1.27-.37,2.03-.37,1.12,0,2.69.44,3.74,2.55.84,1.69.81,5.15.64,11.15-.09,3.32-.22,8.64.24,10.53.29,0,.63.02,1.02.02,3.16,0,5.6-.47,6.54-.87-.02-.07-.06-.13-.07-.2-.19-.59-.43-1.33-.37-2.2.03-.66.19-1.25.34-1.83.13-.53.26-1.02.27-1.47.02-.66,0-1.86-.06-3.33-.29-10.15.03-12.73,1.7-13.85.67-.46,1.62-.64,3.13-.64,2.55,0,6.46.59,7.84.99,4.77,1.36,3.69,6.11,3.18,8.39-.17.76-.36,1.53-.36,2.02l.06,10.16c.06,10.45.12,21.28,0,32.03,0,.54.13,1.12.29,1.79.43,1.79.99,4.22-1.03,7.11-.36.5-1.3,1.85-7.01,1.85s-6.74-1.33-7.11-1.92c-.71-1.13-1.49-6.71-1.5-7.11-.1-1.85.2-3.45.49-4.85.22-1.15.44-2.23.4-3.33-.02-.87-.24-1.86-.46-2.89-.27-1.27-.57-2.66-.57-4.15h-.2c-.96,0-2.22.2-3.22.37-.83.13-1.49.26-1.99.26h0c-.57,0-1.05-.07-1.47-.17-.03.27-.07.61-.1,1-.09.95-.03,3.35.02,5.88.27,12.18-.06,15.07-1.79,16.28-.43.29-.93.66-4.78.66h-.02l-.02-.03Z"/>
    <path class="st1" d="M394.58,333.46c.53,0,1.05,0,1.6.06,5.44.3,10.77.37,16.2.84,1.13.1,2.13.12,3.01.12h1.12c3.5,0,4.43.32,3.63,7.61-.36,3.19-2.29,3.63-4.55,3.63-.9,0-1.85-.07-2.78-.07-1.93,0-3.74.3-4.75,2.22l-.22,44.79c-.96.93-3.35,1.4-5.77,1.4-3.15,0-6.31-.83-6.31-2.53v-45.82c-.56-.29-1.33-.37-2.22-.37-1.92,0-4.35.44-6.18.44-1.22,0-2.18-.19-2.59-.83-.95-1.52-1.66-10.95.83-11.13h.06c.4,0,.96.39,1.46.39h.12c2.66-.36,4.78-.71,7.36-.71M345.6,333.47h.29c4.11.16,9.72.93,13.71.93h.1c1.8,0,3.32-.92,4.87-.93h.03c2.36,0,6.02,2.03,7.7,3.65,1.25,1.22,5.97,6.48,6.83,7.76,1.05,1.57,1.57,3.48,2.02,5.29-1.15,17.14,1.73,36.65.07,53.5-.16,1.59-.74,3.6-1.47,5.02-1.39,2.69-8.17,9.4-10.76,11.15-1.6,1.09-3.33,1.43-5.09,1.43-3.08,0-6.25-1.06-9.07-1.06-3.08,0-6.34,1.06-9.76,1.06-1,0-2.03-.09-3.06-.32-3.95-.9-7.27-5.75-9.72-8.53-.83-.93-2.3-.84-3.19-2.89-2.39-5.39-.84-9.6-.57-14.74.26-4.87-.06-9.89-.02-14.63.07-11.43-.73-23,.57-34.29,4.12-4.06,10.18-12.41,16.54-12.41M350.88,404.22c2.4,0,5.01-.74,7.2-.96h.16c.61,0,1.7.29,2.74.29s2.03-.29,2.35-1.47v-48.67c0-.61-2.79-2.45-3.78-2.6-.19-.03-.56-.06-1.05-.06-2.89,0-10.08.47-10.87.73-3.05.96-1.36,4.64-1.43,5.97-.3,4.64-.67,9.93-.74,14.55-.13,9.97.09,19.96.16,29.92,1.39,1.76,3.26,2.29,5.28,2.29M452.01,333.59c2.4,0,6.12.57,7.27.9,3.91,1.12,1.29,5.78,1.29,8.37.06,14.21.2,28.03.06,42.17-.03,2.5,1.8,4.65-.36,7.73-.46.64-2.88.95-5.29.95s-4.94-.32-5.31-.93c-.29-.46-1.15-5.19-1.2-6.12-.17-3.02.96-5.32.9-8.13-.07-2.59-1.32-5.22-.96-8.01-.2-.81-1.19-1.06-2.39-1.06-1.89,0-4.35.63-5.24.64h-.03c-1.2,0-1.98-.61-2.52-.61s-.86.66-1.1,3.36c-.3,3.38.86,19.42-.87,20.63-.24.17-1.74.27-3.59.27-3.32,0-7.7-.36-7.7-1.4v-58h1.2c1.43,0,2.88.06,4.29.06.47,0,.95,0,1.42-.02,1.05-.03,2.08-.61,3.01-.61.67,0,1.32.32,1.86,1.39,1.52,3.05-1.1,22.34,1.7,22.75.46.07,1.2.1,2.08.1,3.19,0,8.29-.53,8.73-2.29.22-.9-.57-1.99-.5-2.99.06-1,.56-2.08.61-3.35.1-2.7-.74-14.52.73-15.48.32-.2,1.03-.29,1.96-.29M289.1,333.85c4.49,0,9,.17,11.33.5,3.78.56,4.36,2.55,6.37,4.58,1.53,1.56,3.02,3.08,4.6,4.75,1.53,1.64,3.26,1.57,3.91,4.99.49,2.59.61,16.07,0,18.33-.16.59-3.38,5.34-3.92,5.81-1.52,1.3-4.57,2.46-6.41,4.15-1,.9-1.39,2.33-2.45,3.23-6.77,5.78-14.05,11.15-20.92,16.79-.5,1.77-1.74,4.75-.66,6.34.46.67,1.23.9,2.12.9,1.59,0,3.5-.69,4.53-.69h.03c1.7.02,3.18.61,5.08.61.39,0,.81-.03,1.23-.09,5.58-.8,2.43-5.46,5.31-6.87,1.46-.71,4.49-1.23,7.57-1.23,4.11,0,8.26.95,8.66,3.65.49,3.33.39,12.77,0,16.27-.2,1.99-.84,3.56-2.45,4.85-8.97.34-18.11.54-27.2.54-3.81,0-7.6-.03-11.36-.1-1.52-.03-2.88-.76-4.01-.76h0c-1.22,0-2.99.76-4.57.76-1.1,0-2.1-.37-2.74-1.67-.77-1.57-.67-18.53-.4-21.51.16-1.74.74-3.56,1.23-5.25,2.49-2.5,6.9-4.75,9.27-6.95,1.17-1.1,1.8-2.76,3.28-4.02,5.78-5.01,14.08-10.35,19.12-15.76,2.49-2.67,2.42-7.51,2.03-11.02-.3-2.79-1.37-3.5-2.76-3.5s-3.28.77-4.99.77h0c-1.15,0-3.5-.54-5.57-.54-1.47,0-2.79.27-3.42,1.22-.86,1.29.36,4.19-1.98,5.32-1.6.77-6.58,1.36-10.09,1.36-1.37,0-2.5-.09-3.15-.27-3.78-1.12-3.71-9.1-2.55-12.01,1.03-2.6,8.1-9.77,10.65-11.25,1.19-.67,2.6-1.52,3.95-1.73,2.35-.34,6.83-.5,11.33-.5M394.58,329.24h0c-2.5,0-4.62.29-6.85.61l-.3.03c-.44-.16-1.05-.3-1.77-.3h-.36c-1.89.16-3.53,1.3-4.48,3.16-.8,1.56-1.13,3.88-1.13,6.22-1.76-2.02-3.72-4.15-4.45-4.84-2.08-2.02-6.74-4.85-10.63-4.85h-.09c-1.32,0-2.45.34-3.35.61-.57.17-1.13.32-1.47.32h-.09c-2.06,0-4.77-.24-7.39-.47-2.1-.19-4.26-.39-6.15-.46h-.44c-6.94,0-12.48,6.05-16.93,10.9-.93,1.02-1.83,1.98-2.57,2.72l-1.06,1.05-.17,1.49c-.96,8.26-.83,16.66-.69,24.77.06,3.28.1,6.68.09,9.99,0,1.83.02,3.69.06,5.51.06,2.96.12,6.02-.03,8.93-.07,1.17-.2,2.3-.34,3.5-.46,3.81-.96,8.1,1.27,13.18,1.17,2.63,3.01,3.62,3.99,4.15.03.02.07.03.1.06.36.4.73.86,1.12,1.33,2.52,3.06,5.98,7.24,10.63,8.29,1.27.29,2.59.44,3.99.44,2.1,0,4.08-.32,5.81-.61,1.43-.24,2.79-.46,3.94-.46,1.02,0,2.29.22,3.62.46,1.66.29,3.52.61,5.46.61,2.86,0,5.31-.71,7.46-2.15,2.74-1.85,10.25-9.04,12.14-12.72.99-1.88,1.7-4.39,1.93-6.57.9-9.22.49-19.18.1-28.82-.34-8.34-.69-16.96-.17-24.8l.06-.64v-.03c.61.12,1.27.17,1.98.17,1.13,0,2.32-.12,3.48-.24.24-.02.47-.06.71-.07v41.85c0,3.28,2.78,6.77,10.53,6.77,2.25,0,6.37-.34,8.71-2.6l1.27-1.23v-1.77l.22-42.78h.53c.4,0,.83,0,1.25.03.5.02,1.03.03,1.52.03,2.23,0,3.91-.49,5.15-1.23v43.6c0,5.64,7.74,5.64,11.92,5.64,3.84,0,5.01-.34,6.01-1.03,2.74-1.92,2.96-5.34,2.69-18.06-.03-1.69-.07-3.42-.07-4.57.54-.06,1.15-.13,1.86-.27.36-.07.76-.13,1.15-.19.12.83.29,1.6.44,2.32.2.93.39,1.8.4,2.49.02.86-.16,1.79-.37,2.86-.3,1.53-.64,3.28-.53,5.38,0,.06.74,6.37,1.83,8.13.95,1.52,2.67,2.91,8.91,2.91s7.8-1.39,8.74-2.76c2.57-3.65,1.8-6.88,1.36-8.81-.12-.53-.24-1.02-.24-1.3.12-10.79.06-21.61,0-32.08-.02-3.36-.03-6.74-.06-10.15,0-.26.19-1.03.29-1.53.5-2.22,2.03-8.97-4.65-10.89-1.49-.43-5.6-1.06-8.43-1.06-1.96,0-3.25.3-4.29,1-2.79,1.86-2.95,5.57-2.66,15.66.03,1.37.07,2.66.06,3.22,0,.24-.1.63-.2,1.03-.16.61-.34,1.37-.39,2.23-.02.34,0,.67.02.99-.84.13-1.95.26-3.16.29-.13-2.29-.06-5.94,0-8.37.17-6.5.2-9.99-.87-12.14-1.62-3.25-4.22-3.74-5.64-3.74-1.06,0-1.96.27-2.62.46-.2.06-.47.13-.57.16h-1.22c-.69,0-1.39,0-2.08-.02-.74,0-1.47-.02-2.22-.02h-1.3l-4.12.1v.67c-1.49-.64-3.06-.64-4.22-.64h-1.12c-.74,0-1.64,0-2.63-.1-3.53-.3-7.05-.46-10.45-.59-1.95-.09-3.91-.16-5.87-.27-.64-.03-1.25-.06-1.85-.06h-.06ZM350.19,355.41c2.29-.2,6.24-.44,8.3-.44h.2c.12.07.26.16.4.24v43.88c-.29-.03-.57-.06-.87-.06-.22,0-.4,0-.59.03-1,.1-1.99.29-2.96.46-1.32.24-2.69.49-3.79.49-.46,0-.81-.03-1.06-.1-.02-2.35-.06-4.71-.07-7.05-.09-6.81-.16-13.88-.07-20.78.06-3.92.36-8.49.61-12.51l.12-1.83c.06-.83-.09-1.59-.22-2.32h0v-.02h0ZM289.1,329.62h0c-5.09,0-9.53.2-11.94.56-2.13.3-4.02,1.42-5.41,2.22-2.91,1.69-10.98,9.5-12.51,13.38-1.3,3.28-1.5,9.29.43,13.25,1.37,2.81,3.39,3.91,4.85,4.35.66.19,1.8.46,4.36.46,3.22,0,9.29-.49,11.94-1.77,3.13-1.52,3.74-4.32,3.91-6.11.81.03,1.76.17,2.6.29.96.13,1.8.26,2.59.26,1.36,0,2.59-.29,3.6-.5.47,4.99-.53,6.67-.99,7.15-2.86,3.08-7.08,6.29-11.18,9.4-2.6,1.99-5.31,4.04-7.63,6.04-1.2,1.05-1.96,2.16-2.59,3.06-.3.44-.61.87-.8,1.06-.84.8-2.29,1.76-3.67,2.69-2.02,1.36-4.08,2.74-5.71,4.38l-.76.76-.3,1.05-.2.71c-.47,1.6-1.02,3.43-1.19,5.34,0,.19-.83,20.41.83,23.76,1.27,2.55,3.65,4.01,6.53,4.01,1.33,0,2.57-.3,3.55-.54.3-.07.74-.19.99-.22.17.03.44.12.66.17.83.24,1.96.54,3.32.57,3.72.07,7.57.1,11.45.1,8.74,0,17.94-.19,27.38-.54l1.4-.06,1.09-.87c2.35-1.89,3.65-4.41,4.01-7.71.39-3.75.53-13.52-.03-17.31-.32-2.18-2.22-7.27-12.84-7.27-2.91,0-6.91.44-9.43,1.66-3.19,1.56-3.63,4.62-3.84,6.08,0,.1-.03.24-.06.37-.06,0-.1,0-.16.02-.22.03-.43.06-.64.06-.59,0-1.22-.12-1.95-.26-.87-.17-1.89-.36-3.06-.37h-.1c-.81,0-1.57.16-2.39.32.02-.06.03-.12.06-.17,2.57-2.08,5.22-4.16,7.8-6.18,4.04-3.18,8.23-6.46,12.21-9.86,1.05-.9,1.67-1.93,2.15-2.67.16-.24.36-.57.44-.66.61-.54,1.73-1.17,2.81-1.77,1.22-.67,2.46-1.39,3.48-2.26,1.03-.87,4.81-6.31,5.24-7.9.87-3.22.59-17.56.09-20.22-.77-4.06-2.92-5.58-4.21-6.5-.37-.27-.59-.43-.76-.59-1.66-1.79-3.23-3.38-4.68-4.85-.36-.36-.67-.74-1.02-1.17-1.39-1.67-3.28-3.98-7.74-4.64-2.39-.36-6.85-.56-11.94-.56h0l-.02.03v-.04Z"/>
  </g>
  <g class="st3">
    <path class="st0" d="M354.13,705.53c-1.16-5.33-1.24-10.69-.23-15.08l.14-.56,16.21-15.05c1.07-3.32.6-4.14.54-4.23-.12-.17-.62-.35-1.66-.35-.92,0-2.05.14-3.43.36-.03.95-.18,2.32-1.4,3.2-.33.24-1.12.8-6.41.8-1.96,0-2.46-.12-2.64-.17-2.84-.66-2.72-5.9-2.72-5.95.23-3.98,5.21-9.43,8.6-10.43,1.89-.56,5.66-.6,6.78-.6,2.94,0,8.15.21,10.1,1.66.05.03,5.13,5.16,5.46,6.35.71,2.52.53,5.64.36,8.39-.08,1.18-.14,2.28-.14,3.24v.83l-16.69,15.47-.08.38c.39.02.8.06,1.21.09.72.06,1.45.11,2.1.11.54,0,.88-.05,1.07-.09.06-.14.12-.36.18-.53.21-.68.5-1.6,1.28-2.31,1.1-.98,3.14-1.48,6.05-1.48,4.09,0,5.77.72,5.77,2.52v11.5l-.09.27c-.48,1.57-2.35,2.35-3.53,2.41l-26.52.71-.33-1.52.02.03v.03ZM412.63,701.98c-2.4-.23-8.63-4.27-9.75-6.69l-.09-.2-6.17-30.94.17-.48c3.14-9.37,7.53-9.99,14.81-11l1.43-.2s.35-.2.53-.3c.53-.32,1.18-.71,1.99-.8.14,0,.27-.02.42-.02,3.47,0,9.69,4.47,10.96,7.27l.09.2,6.1,29.9v.21c-.05,2.6-3.94,9.15-6.13,10.31-1.22.65-13.15,2.76-14.14,2.76h-.24l.03-.03h0ZM414.98,688.56l4.59-.81-4.63-22.91c-1.55,0-3.67.57-4.75,1.03l4.8,22.7h0ZM296.31,699.1c-1.89,0-6.78-.91-7.76-2.4-1.06-1.61-.48-5.45,5.15-26.23,1.03-3.82,1.93-7.14,2.25-8.59-.3-.29-1.75-.56-2.55-.71-2.1-.41-4.48-.86-5.45-2.94-.75-1.63,1.36-8.04,1.99-8.9.48-.65,1.4-1.42,3.09-1.42,1.04,0,2.1.29,3.02.53.32.09.62.17.88.23.85.18,20.74,4.35,22.08,6.25.47.65.62,1.51.14,4.2-.63,3.56-1.48,5.72-2.51,6.41-.66.45-1.43.68-2.31.68h0c-1.12,0-2.2-.36-3.28-.72-.89-.3-1.81-.6-2.52-.6-.12,0-.24,0-.35.03l-8.07,32.31-.14.23c-.63,1.09-1.89,1.63-3.71,1.63l.05.03v-.02ZM461.95,688.91c-1.83,0-9.15-3.02-10.47-4.53l-.21-.24-11.76-29.61-.03-.26c-.33-3.23,2.76-9.67,5.51-11.5.92-.6,11-4.65,12.62-4.66,3.05,0,8.87,3.05,10.63,5.52,2.82,4,4.86,10.16,6.84,16.12,1.49,4.51,2.91,8.78,4.56,11.94l.17.3.05.35c.32,2.57-1.03,5.07-2.22,7.29-.54,1.01-1.07,1.98-1.34,2.81l-.41,1.19-1.25.08c-1.31.09-4.27,1.61-6.44,2.73-2.88,1.48-4.71,2.4-6.07,2.46h-.14l-.02.02h-.02ZM453,653.61c.66,1.3,1.92,4.66,3.88,9.93,1.46,3.95,3.62,9.73,4.51,11.58,1.03-.15,2.7-.88,3.85-1.37.32-.14.62-.27.91-.39-.66-3.09-4.38-11.83-6.25-16.27-.97-2.28-1.78-4.2-2.26-5.45-1.75.06-4.15,1.25-4.63,1.95v.03h-.01ZM256.24,686.68c-.27,0-.53-.03-.75-.08-.65-.14-11.94-4.65-12.9-5.63-2.52-2.51-4.32-10.38-2.66-14.38.78-1.89,2.32-2.97,4.23-2.97.26,0,.53.02.8.06.89.12,6.22,3.02,6.79,3.68,1.22,1.4.85,2.9.62,3.62.92.74,3.58,1.9,5.18,2.05.47-1.18,1.22-3.49,1.51-4.84l-8.87-3.5-.23-.18c-1.19-.95-4.2-9.4-4.2-10.34,0-1.74,4.83-12.41,5.96-13.61,1.18-1.27,7.17-4.44,8.92-4.56h0c1.75,0,12.93,4.5,13.75,5.03,3.83,2.51,5.86,10.31,4.63,14.53-.68,2.35-2.32,3.71-4.51,3.74-.88,0-7.35-2.54-8.15-3.62-.83-1.12-.47-2.32-.24-3.06.15-.48.18-.68.17-.8-.8-.5-3.17-1.81-4.3-2.38-1.03.97-2.54,4.08-2.58,5.39.74.33,2.25.85,3.31,1.21,2.46.83,4.01,1.39,4.89,1.98,3.4,2.28,5.39,9.19,4.59,13.04-.17.78-4.15,10.43-4.75,11.2-1.46,1.92-8.74,4.45-11.18,4.45h0l-.03-.03ZM218.6,668.46c-.26,0-.51-.03-.75-.11-1.96-.54-5.63-2.97-11.88-7.89l-8.41-4.21.51-3.86,3.08-5.06c6.5-10.67,13.24-21.72,20.75-31.98l.3-.41.47-.2c.3-.14.62-.2.97-.2,1.74,0,4.69,1.87,11.5,6.46,2.99,2.01,7.09,4.77,8.17,5.07l.44.12.33.32c.63.59,1.54,1.95.59,4.47-.88,2.29-3.94,6.52-6.32,6.57-1.83,0-3.83-1.34-6.96-3.55-1.37-.97-3.59-2.52-4.63-2.88-.82.95-2.29,3.28-2.72,4.36.82.81,3.34,2.23,4.75,3.03,3.06,1.72,4.32,2.45,4.53,3.82.3,2.01-3.59,7.74-4.56,8.35-.71.44-1.49.66-2.34.66-2.13,0-4.08-1.43-5.96-2.81-1.25-.92-2.82-2.07-3.7-2.07-.66,0-1.43,1.3-2.05,3.46-.38,1.34,1,2.29,4.47,4.04,1.86.94,3.77,1.9,4.95,3.29,1.24,1.43,1.28,3.58.15,6.04-.95,2.07-3.26,5.15-5.71,5.15h.03v.02ZM506.6,667.24c-1.4,0-2.76-.53-4.09-1.04-1.09-.42-2.22-.86-3.08-.86l-.94.03-.69-.71c-5.77-6.96-10.41-14.97-14.9-22.74-1.09-1.87-2.17-3.74-3.26-5.6l-.39-.66.18-.75c.18-.74.32-1.6.45-2.52.41-2.6.86-5.54,2.75-7.59,1.31-1.43,10.97-6.87,13.28-6.97h.29c1.98,0,8.01,1.24,9.89,2.93.53.48,2.45,3.46,2.64,4.32.23.98-.08,2.02-.92,3.18-1.46,2.01-4.91,4.71-6.7,4.86h-.29c-1.36,0-2.17-.83-2.72-1.39-.5-.51-.62-.59-.92-.59-.17,0-.45.03-.89.18-.5.21-2.57,1.55-3.53,2.28.38,1.15,1.8,3.44,2.63,4.53.95-.3,2.43-1.36,3.56-2.16,1.92-1.36,3.73-2.66,5.54-2.88.17-.02.36-.03.59-.03,1.93,0,7.43,1.06,8.95,1.81,2.07,1.03,8.69,11.95,8.86,14.04.2,2.37-.85,7.74-2.61,10.02-.88,1.13-11.47,8.17-13.37,8.29h-.35l.05.05v-.03ZM502.73,649.01c.3,1.07,1.48,3.37,2.17,4.38,1.19-.26,3.74-1.43,4.75-2.1-.24-1.25-1.78-3.97-2.67-4.89-1.1.38-3.41,1.8-4.26,2.61h.01ZM661.07,361.02c-2.79,0-4.04-1.36-4.6-2.49l-.17-.33-1.77-26.22.32-.51c.54-.88.85-1.36,12.56-2.41,1.43-.14,3.02-.27,4.69-.44,8.72-.82,19.59-1.84,27.57-1.84,1.22,0,2.38.03,3.43.08h.21c.21,0,.42,0,.63-.02.27,0,.53-.03.78-.03,1.98,0,3.29.85,3.91,2.51.3.83,1.87,7.82.32,9.99-1.12,1.55-4.11,1.95-21.37,2.72-6.79.3-15.95.71-18.13,1.36-.29,1.15.09,5.07.33,7.46.53,5.34.71,7.76-.74,8.97l-.65.54-.83-.12c-.09,0-.18-.02-.29-.02-.63,0-1.55.17-2.51.35-1.22.23-2.49.47-3.73.47h.01l.03-.02ZM13.74,353.02l-.5-.47c-1.9-1.81-1.22-5.39-.57-8.86.18-.97.35-1.87.38-2.4.08-1.34.03-2.69,0-3.97-.12-4.12-.26-8.38,3.35-12.41.69-.78,4.74-4.12,5.99-4.62.56-.23,1.65-.53,4.51-.53,3.46,0,7.95.45,9.63.97,2.23.69,3.2,2.25,3.83,3.28.23.38.45.74.65.89.24.21.41.29.44.29.26-.06.97-.82,1.39-1.25,1.03-1.09,2.31-2.43,4.17-2.75.14-.03.39-.05.72-.05,1.89,0,7.88.54,9.06.71,4.26.62,11.46,6.96,11.8,11.41.02.2-.86,21.01-3.26,22.74l-.56.39-51.03-3.4v.02h0ZM47.73,335.56c-.35,2.38-.62,5.16.14,6.04.44.51,1.58.63,2.48.63.81,0,1.78-.09,2.93-.26.44-1.92,1-4.94.29-5.84-.26-.32-1.01-.69-3.2-.69-.72,0-1.58.05-2.63.12h0ZM27.87,333.85c-.97,3.11-1.19,5.06-.66,5.8.32.44,1.33.95,4.44.95.42,0,.88,0,1.36-.03.6-1.96,1.4-4.89.81-5.71-.57-.8-3.61-.97-5.96-1.01h.02-.01ZM663.21,316.94c-2.67,0-9.67-3.2-11.33-5.51-.88-1.22-4.03-15.36-3.91-16.47.23-2.28,4.04-8.6,5.8-9.99,1.6-1.28,4.12-1.87,6.16-2.35.36-.09.69-.17,1.01-.24,11.53-2.91,20.1-4.68,25.46-5.25.57-.06,1.15-.09,1.74-.09,5.42,0,11.77,2.6,13.79,8.39.74,2.13,2.55,10.99,2.4,13.31-.17,2.54-1.84,4.81-3.32,6.84-.8,1.09-1.55,2.11-1.98,3.03l-.39.85-35.2,7.49h-.23ZM662.59,296.64c-.33,1.1.72,4.47,1.52,6.11l25.46-5.51c.08-1.43-.59-4.57-1.19-6.14l-25.79,5.52v.02h0ZM19.66,300.38l-1.43-1.78v-.63c-.09-3.05.85-5.78,1.66-8.18.39-1.15.75-2.23,1.01-3.28.18-.75.35-1.95.54-3.21.54-3.7,1-6.43,1.96-8.06,1.13-1.92,8.54-6.17,10.55-6.35h.35c2.7,0,14.16,2.66,16.1,3.23.66.2,2.93.94,4.15,2.08.51.47,5.37,7.91,5.57,9.18.24,1.55-.35,3.55-1.03,5.87-.54,1.86-1.27,4.35-1.09,5.55,1.01.56,4.32,1.22,6.34,1.63,4.77.97,7.3,1.54,8.32,2.99,1.04,1.51.39,3.89-.77,7.65-.36,1.16-.77,2.48-.81,3l-.18,2.16-51.24-11.83s0-.02,0-.02ZM34.8,289.65c1.83.54,6.5,1.52,8.95,1.74l1.31-5.86c-2.13-.74-7.05-1.84-9.43-1.86-.44,1.31-.88,4.45-.83,5.96v.02ZM651.77,271.88c-2.64,0-9.16-2.26-10.91-4.06-.97-1-6.55-14.34-6.66-15.36-.39-4.04,3.68-11.27,7.5-13.34,3.89-2.1,25.85-10.47,30.03-11.26.42-.08.89-.12,1.39-.12,4.27,0,11,2.91,12.93,6.52.57,1.07,4.42,11.47,4.51,13.03.23,3.8-3.32,11.15-6.93,12.95-4.86,2.41-10.67,4.32-16.3,6.16-4.95,1.61-10.07,3.29-14.38,5.28l-.23.11-.26.05c-.21.03-.45.06-.71.06h0l.02-.02ZM649.06,251.67c0,.68.29,2.04,1.06,3.49.63,1.21,1.24,1.78,1.51,1.93l24.19-8.86c.09-.57-.72-2.29-1.18-3.24-.33-.71-.66-1.39-.92-2.07l-24.68,8.72.02.03h0ZM31.2,254.01v-1.36c.02-2.73.5-11.62,6.01-11.62.14,0,.27,0,.41.02.56.05,7.91,2.48,8.74,3.17,1.54,1.28,5.3,9.86,4.23,13.3-.38,1.22-1.33,2.01-2.54,2.11l-.41.03-16.45-5.66.02.02h0ZM81.45,244.99c-3.02,0-5.19-.75-6.47-2.23-.68-.8-1.42-2.2-1.09-4.38.09-.59,2.32-5.71,2.79-6.25,1.24-1.45,3.31-1.45,4.8-1.46.35,0,.86,0,1.13-.03.89-1.06,2.34-4.81,1.96-5.89-.86-.51-3.88-1.61-5.43-1.92-.24.54-.54,1.27-.81,1.92-1.78,4.23-3.15,7.32-4.6,8.48-2.17,1.75-7.65,3.11-10.91,3.11-.8,0-1.46-.08-2.04-.23-1.24-.33-11.35-5.4-12.32-6.29-2.14-1.96-4.51-8.89-4.32-11.62.14-1.8,4.81-12.04,5.49-13.12,2.31-3.59,8.33-5.46,13.1-5.46,2.14,0,5.03.39,6.6,2.25.85.98,1.16,2.22.95,3.58-.12.71-3.15,6.82-3.65,7.34-1.27,1.33-2.97,1.33-3.53,1.33-.45,0-.92-.05-1.36-.08-.26-.03-.5-.05-.74-.05-.65,1.12-1.84,3.98-2.19,5.46,1.4.78,4.35,2.17,5.22,2.45.81-.18,2.1-3.41,2.66-4.81.91-2.29,1.77-4.45,3.17-5.6,1.98-1.61,7.98-3.14,11.21-3.14.65,0,1.19.06,1.66.18.86.23,12,5.36,12.83,6.02,1.3,1.06,4.6,10.25,4.48,11.86l-.03.47-.26.39c-.78,1.25-1.52,3.15-2.29,5.18-1.65,4.29-3.52,9.16-7.21,10.79-1.92.85-5.51,1.75-8.83,1.75h.03,0ZM649.19,222.09c-1.75,0-10.53-1.36-12.12-2.96-.65-.65-.89-1.55-1.13-2.43-.12-.45-.29-1.03-.44-1.28-1.24-1.98-2.64-3.95-4.09-5.98-1.31.66-3.55,2.02-5.16,2.99-3.18,1.92-5.18,3.12-6.29,3.43-.32.09-.65.14-1,.14-1.9,0-3.64-1.39-5.15-4.12-.03-.06-3.06-5.69-1.69-7.86.44-.68.8-.97,8.63-4.75,2.1-1.01,4.09-1.98,4.74-2.35,2.4-1.37,5.42-3.24,8.6-5.24,6.99-4.36,14.9-9.3,20.19-11.26.83-.32,1.61-.6,2.55-.6.54,0,1.07.11,1.58.3l.63.26,10.64,19.27.06.3c.8,4.36-1.01,9.61-3.17,12.89l-.38.57-.65.2c-1.57.48-4.24,2.2-6.81,3.86-3.62,2.34-6.76,4.38-9.06,4.62-.14.02-.32.03-.5.03l-.02-.02h.04ZM647.32,207.42l8.17-4.56c-.71-1.86-2.17-4.56-3.02-5.27-1.49.57-6.32,3.46-8.15,4.95l3,4.87h0ZM90.52,151.55c-1.77-1.25-2.38-3.29-1.72-5.64.98-3.47,5.18-7.89,8.48-7.89.26,0,.48.03.71.08l.24.05,44.58,21.96.27.39c.47.66.59,1.52.35,2.54-.56,2.31-3.74,6.94-5.31,7.74-.85.44-1.72.66-2.6.66-1.36,0-2.41-.51-3.18-.89-.21-.11-.47-.23-.63-.29-1.37.6-4.74,4.8-4.84,6.13.05.02.33.29.53.45.51.47,1.21,1.1,1.48,2.08.66,2.45-1.04,4.35-2.41,5.87-.78.86-1.66,1.84-1.71,2.51l-.11,1.43-4.32.85-29.81-37.99v-.03h0ZM117.9,164.14c.26-.18.41-.32.5-.41-.26-.3-.8-.66-1.63-1.06l1.15,1.46h-.02ZM583.46,167.08c-3.03,0-5.87-3.37-6.67-4.39-1.52-1.98-2.14-3.58-1.83-4.77.41-1.58,2.78-3.8,10.16-10.1,2.54-2.16,5.15-4.39,6.04-5.37,1.04-1.65,3.05-6.75,5-11.7,4.08-10.32,6.04-14.97,7.71-16.09.51-.35,1.15-.69,1.89-.69,1.1,0,1.71.71,2.01,1.06.06.08.14.17.23.26.06.06,5.89,6.26,6.07,8.04l.05.42-4,11.09c.6-.23,1.22-.47,1.78-.68,4.33-1.68,7.53-2.85,9.46-2.85.33,0,.62.03.91.11,1.49.36,7.7,7.8,7.73,9.8v.62l-.36.5c-.68.94-1.89,1.45-14.25,5.28-5.63,1.75-12.01,3.71-13.7,4.59-2.96,1.51-5.95,4.59-8.84,7.56-2.29,2.35-4.66,4.8-7.09,6.55-.57.48-1.4.78-2.31.78l.05-.02h-.04ZM151.22,154.67c-.3,0-.6-.03-.88-.11l-.56-.15-35.05-39.36,2.2-1.1c.54-.35,2.6-2.66,3.59-3.77,1.61-1.81,1.9-2.14,2.46-2.37.41-.17.88-.26,1.4-.26,2.6,0,6.72,2.07,13.19,5.49,1.3.68,2.66,1.4,3.95,2.05-1.22-1.28-2.55-2.6-3.7-3.76-4.56-4.56-6.31-6.41-6.66-7.83-.88-3.62,2.22-5.27,3.71-6.07.29-.15.56-.29.74-.42.06-.05.2-.3.29-.47.39-.71,1.19-2.19,3.32-2.19.5,0,1.04.09,1.66.26l.51.15,33.45,36.12.12.45c.91,3.43-1.68,5.16-3.21,6.2-.38.26-.74.48-1.04.75-.06.06-.18.33-.27.5-.24.48-.54,1.09-1.12,1.52-.81.62-1.87.95-3.06.95-.59,0-1.21-.09-1.77-.24-3.46-.98-7.38-3.2-11.17-5.36-1.18-.66-2.37-1.34-3.55-1.98,1.31,1.42,2.7,2.87,3.8,4.01,5.24,5.46,6.05,6.44,6.26,7.43.38,1.87-.92,3.94-2.08,5.36-.57.69-3.56,4.17-6.54,4.17l-.03.02h.04ZM560.54,144.26c-2.17,0-5.92-2.81-6.64-3.38-2.19-1.71-4.33-3.67-6.4-5.55-2.7-2.48-5.49-5.03-8.42-7.03l-.42-.29-.21-.47c-1.15-2.46,1.22-5.64,4.2-9.25.32-.38.59-.71.78-.98,4.42-5.69,9.21-11.26,13.84-16.65,4.08-4.74,8.29-9.63,12.21-14.58l.11-.12.12-.11c.57-.51,1.19-.77,1.87-.77s1.19.27,1.57.45c3.02,1.54,8.62,6.46,12.3,9.7l1.63,1.43c.29.26.74.6,1.25,1.01,4.15,3.32,5.54,4.69,5.52,6.26,0,1.69-5.52,7.89-6.1,8.21-.48.26-1.03.39-1.61.39h0c-2.85,0-6.72-3.24-10.75-6.85-.51-.45-.95-.85-1.28-1.13-.41-.33-.68-.72-.88-1.07-.06.05-.12.08-.2.14-.48.45-2.78,3.43-3.67,4.77.83,1.03,3.34,2.93,4.77,4,1.78,1.34,3.32,2.51,4.09,3.44l.75.92-.5,1.07c-2.79,6.01-5.06,8.47-7.79,8.47-2.14,0-3.83-1.6-5.61-3.29-1.19-1.13-2.54-2.41-4.14-3.35-.63-.36-.92-.39-.97-.39-.27.11-.82,1.06-1.13,1.61-.59,1.06-1.3,2.32-2.46,3.28v.17c.15.12.33.26.51.39,7.82,5.75,10.43,8.23,10.7,10.23.32,2.29-5.01,8.59-6.01,9.04-.33.15-.71.23-1.1.23l.05.05h.02ZM186.86,124.26c-.85,0-1.58-.23-2.19-.68l-.27-.2-25.69-39.24c-1.06-1.48-.94-2.91-.63-3.83,1.04-3.28,6.08-5.45,9-6.44l.88-.3,14.2,9.45c-.11-.15-.21-.3-.32-.44-5.99-8.57-8.3-12.29-7-14.53l.24-.42,9.34-5.57,28.66,41.99c.21.26.56.92.45,1.93-.17,1.54-1.37,3.35-2.16,3.98-1.1.89-6.01,3.46-8.63,3.46h0c-.42,0-.78-.06-1.13-.18l-.24-.09-12.92-9.1c.17.24.33.48.51.72,6.08,8.71,7.4,10.88,7.41,12.23,0,.94-.53,1.93-1.71,3.12-1.66,1.68-5.1,4.18-7.82,4.18l.02-.03h0ZM529.08,119.28c-.17,0-.38,0-.63-.02-1.66-.09-6.6-2.75-7.46-3.43-3.44-2.73-2.79-9.39-1.95-15.61-.3.53-.59,1.09-.89,1.61-3.24,5.93-3.58,6.41-4.14,6.82-.47.33-1.04.5-1.71.5-2.57,0-7.47-2.67-9.39-4.74-.83-.89-1.21-1.77-1.13-2.64l.03-.45,25.19-41.66.14-.15c.48-.5,1.36-1.09,2.82-1.09,3.11,0,9.28,3.31,9.57,6.25.23,2.29-1.66,4.94-3.67,7.73l9.58-4.62.56-.03c2.14,0,5.24,2.02,9.52,5.27l1.37,1.03-.03.98c-.05,1.66-.97,2.38-13.43,8.66-3.44,1.74-6.99,3.52-7.86,4.15-1.28.92-1.63,1.43-1.86,2.7-.63,3.58-.8,7.89-.97,12.07-.18,4.81-.38,9.78-1.27,13.99.05.41.14,1.21-.48,1.9-.65.74-1.57.74-1.92.74l-.02.02.03.02ZM231.82,97.32c-4.18,0-7.65-1.9-10.47-3.76l-.59-.39-.2-.68c-.62-2.22-3.97-9.19-7.23-15.94-7.76-16.1-10.1-21.45-9.7-23.54.45-2.41,7.24-5.31,9.7-5.31,1.33,0,2.08.53,2.49.97l.2.21,15.71,33.75h.32c2.11,0,4.74-1.36,5.28-2.11l-15.02-34.12v-.33c-.09-1.04.36-2.1,1.33-3.12,1.74-1.86,5.48-3.83,8.27-3.83,1.51,0,2.4.59,2.87,1.09l.23.23,16.62,37.02c1.6,3.92-1.84,12.16-4.62,14.23-.98.72-9.33,4.45-10.46,4.83-1.58.53-3.18.8-4.72.8h0v.03-.03ZM484.03,94.72c-.44,0-.88-.03-1.28-.08-1.58-.18-10.66-3.86-11.73-4.5-3.71-2.19-7.46-9.83-6.78-13.84l.06-.39.21-.33c1.55-2.35,3.43-7.44,5.42-12.83,4.09-11.05,7.03-18.46,10.69-20.75,1.43-.91,7.11-3.29,9.36-3.29.12,0,.24,0,.35.02,1.46.15,13.15,5.49,14.02,6.11,1.98,1.39,5.39,9.27,5.46,11.33.05,1.13-2.01,6.7-2.88,7.47-.5.44-1.16.65-2.01.65-1.92,0-9.57-2.37-10.31-4.77-.41-1.28.03-2.51.32-3.31v-.03c-1.21-.75-3.83-1.98-5.33-2.41l-10.41,24.25c1.37.88,4.03,2.2,5.15,2.61.08-.12.17-.27.23-.38.47-.8,1.33-2.28,3.31-2.46.15,0,.33-.02.51-.02,2.23,0,6.4,1.16,8.42,3.35,1.15,1.25,1.31,2.49,1.25,3.31-.54,6.63-8.62,10.29-14.01,10.29l-.02-.02v.02ZM265.62,84.13c-2.23-1.16-2.64-2.94-2.84-4.51-.59-4.63-.59-9.55-.57-14.34,0-3.14,0-6.11-.14-9.01-.05-.83-.21-2.49-.42-4.57-1.69-16.65-1.58-21.63.45-23.14.8-.59,6.44-1.96,6.49-1.98l.47-.08c.57-.09,1.22-.2,1.9-.2,1.4,0,2.57.47,3.44,1.39l.17.18,23.89,43.77v.5c-.08,3.76-8.59,5.64-9.66,5.64-2.23-.02-3.2-1.54-3.83-2.55-.68-1.06-1.01-1.6-2.55-1.6-.71,0-1.6.14-2.63.41-2.93.77-2.97,1.55-3.03,2.99-.05,1.04-.12,2.48-1.27,3.64-1.01,1.03-2.54,1.36-4.17,1.71-1.27.27-2.85.62-3.35,1.24l-.97,1.21-1.37-.71v.02h0ZM275.87,60.43h.56c-.17-.47-.41-1.01-.68-1.58l.11,1.58h.02,0ZM442.22,79.41c-2.08,0-13.78-2.57-15.52-3.56-2.79-1.6-6.64-7.7-6.84-10.88-.12-1.75.32-3.67.71-5.36.11-.5.23-.97.32-1.42,1.34-6.75,4.53-21.02,7-26.79,1.31-3.05,6.28-6.9,9.18-7.64.65-.17,1.42-.24,2.38-.24,4.59,0,12.38,1.87,15.14,3.62,2.93,1.87,4.97,5.86,6.57,9.51l.26.59-8.35,34.58-.08.18c-1.33,2.84-7.4,7.12-10.46,7.41h-.32,0ZM434.65,63.65c1.46.44,4.15,1.04,5.83,1.19l6.16-25.27c-.48-.53-2.94-1.03-3.8-1.19-.63-.12-1.24-.26-1.81-.39-1.75,4.39-5.54,20.44-6.37,25.67v-.02h-.01ZM307.48,71.8l-6.99-48.89v-.15c.06-3.28,5.93-5,9.06-5,4.15,0,5.13,2.37,5.34,3.4l5.09,36.24c1.81-.14,3.7-.5,5.54-.85,2.14-.41,4.17-.8,5.95-.8,2.32,0,3.98.68,5.06,2.08,1.57,2.04,1.65,5.25.27,10.46l-.32,1.22-25.3,3.38-3.7-1.1h0ZM400.81,71.24s-6.41-.12-7.74-1.99c-1.21-1.69-.77-5.13.09-11.06.41-2.79.86-5.9.85-7.85-1.27-.35-3.56-.72-5.37-.72-.44,0-.75.03-.95.05-.27,1.12-.39,4.21-.5,6.54-.29,6.76-.57,10.97-2.63,12.42-.47.32-1.33.75-3.46.75-.08,0-7.68-.03-8.8-3.28l-.14-.38,4.51-50.65,1.55-.15c2.19-.21,3.94-.32,5.33-.32,2.25,0,4.72.23,6.13,1.86,1.46,1.72,1.09,4.01.62,6.93-.26,1.55-.54,3.32-.65,5.4-.09,1.71-.15,5.22-.08,6.82.74.17,2.05.33,3.55.33,1.19,0,1.92-.11,2.26-.2.42-1.36.68-5.8.82-8.53.41-7.35.65-9.33,2.01-10.26.65-.45,1.57-.65,3.06-.65.08,0,7.21.12,8.69,2.17.98,1.36,1.37,4.84-2.49,37.54-.21,1.83-.38,3.21-.47,4-.08.71-.05,1.6-.03,2.55.06,2.25.14,4.8-1.09,6.79-.78,1.28-2.46,1.9-5.1,1.9l.02-.02h0Z"/>
    <path class="st1" d="M383.57,16.47c7.98,0,4.66,3.64,4.21,12.19-.08,1.39-.26,7.65.09,8.21.33.53,2.93.92,5.27.92,1.75,0,3.35-.23,3.73-.77,1.55-2.29.95-17.51,2.45-18.55.32-.21,1.06-.3,1.98-.3,2.6,0,6.67.71,7.17,1.39,1.46,2.02-2.73,34.99-3.31,40.24-.27,2.55.54,6.29-.85,8.56-.45.74-1.87,1.01-3.5,1.01-2.66,0-5.86-.71-6.2-1.19-1.54-2.16,1.9-14.87,1.18-19.17-1.07-.59-4.66-1.27-7.15-1.27-1.18,0-2.11.15-2.38.54-1.49,2.1-.29,17.07-2.78,18.81-.41.29-1.3.41-2.37.41-2.7,0-6.61-.8-7.02-1.99l4.35-48.7c2.1-.21,3.79-.32,5.15-.32M309.56,19.65c1.75,0,3.2.53,3.5,1.9l5.3,37.78h.21c4.51,0,9.46-1.71,12.9-1.71,3.71,0,5.67,1.98,3.5,10.16l-23.64,3.17-2.16-.63-6.79-47.53c.03-1.46,4.06-3.14,7.17-3.14M439.46,25.39c4.21,0,11.68,1.77,14.13,3.34,2.64,1.68,4.6,5.83,5.86,8.68l-8.15,33.76c-1.04,2.2-6.55,6.11-8.92,6.34h-.14c-1.98,0-13.28-2.57-14.58-3.31-2.22-1.27-5.74-6.78-5.9-9.36-.12-1.93.6-4.33.98-6.29,1.28-6.46,4.47-20.78,6.88-26.41,1.04-2.45,5.45-5.92,7.92-6.55.5-.14,1.16-.18,1.92-.18M441.11,66.76c.44,0,.75-.05.89-.17l6.61-27.08c-.32-2.9-6.26-2.72-8.38-3.82-1.57.29-7.38,25.51-7.62,29.08.15.53,6.13,1.98,8.5,1.98M270.97,28.23c.75,0,1.48.18,2.07.8l23.53,43.1c-.03,1.69-6.29,3.79-7.76,3.79h0c-2.7-.02-1.83-4.15-6.37-4.15-.83,0-1.86.14-3.11.47-6.52,1.71-3.29,5.24-5.18,7.12-1.39,1.4-5.99,1.03-7.64,3.09-1.36-.71-1.66-1.65-1.84-3.08-.95-7.44-.3-15.73-.69-23.2-.21-3.97-2.96-24.45-.74-26.1.24-.18,4.98-1.54,5.63-1.63.68-.09,1.42-.24,2.11-.24M274.11,62.32h4.35c1.09-1.1-3.21-9.31-5.06-10.14l.71,10.14M489.99,40.6h.15c.83.09,12.18,5.12,13.12,5.77,1.37.97,4.6,8.24,4.66,9.87.03.71-1.99,5.77-2.23,5.98-.15.14-.41.18-.77.18-2.29,0-8.23-2.52-8.51-3.44-.38-1.21.74-2.64.56-3.46-.18-.83-6.34-3.79-8.2-3.79-.15,0-.29.02-.38.06l-11.5,26.76c.18.8,6.6,4.06,7.53,4.06h0c1.86-.05,1.58-2.75,3.58-2.93h.35c2.41,0,8,1.81,7.77,4.62-.42,5.24-7.2,8.56-12.12,8.56-.38,0-.72-.02-1.07-.06-1.09-.12-9.83-3.58-10.99-4.26-3-1.77-6.43-8.63-5.87-11.89,4.21-6.41,9.93-29.51,15.53-33.02,1.36-.86,6.67-3,8.36-3M231.91,41.01c.63,0,1.16.15,1.49.5l16.48,36.72c1.15,2.84-1.78,10.28-4.01,11.95-.68.51-8.72,4.15-9.92,4.56-1.45.48-2.82.69-4.14.69-3.37,0-6.37-1.42-9.45-3.44-1.57-5.61-17.49-35.47-16.89-38.62.15-.83,5.33-3.77,7.85-3.77.48,0,.88.11,1.12.36l15.88,34.09c.36.33.98.48,1.74.48,2.85,0,7.61-2.13,7.21-4.29l-15.09-34.29c-.14-1.99,4.91-4.95,7.74-4.95M529.99,60.31c2.76,0,7.55,3.11,7.68,4.56.29,2.9-5.8,8.65-6.55,11.92l14.82-7.14h.08c2.13,0,7.12,3.95,8.98,5.33-.05,1.34-17.99,9.51-20.51,11.33-1.52,1.1-2.26,1.99-2.6,3.91-1.37,7.82-.6,18.31-2.22,26-.18.86.36,1.15-.56,1.15-.14,0-.32,0-.53-.02-1.03-.06-5.57-2.37-6.4-3.02-3.97-3.14-.47-15.97-.47-20.9-.92.2-1.54,1.19-2.04,1.93-1.12,1.63-6.16,11.35-6.72,11.74-.15.11-.36.15-.62.15-2.34,0-8.77-3.67-8.63-5.34l24.84-41.1c.35-.36.85-.51,1.46-.51M183.88,64.54l27.65,40.52c.57.72-.75,2.91-1.33,3.38-1.04.83-5.52,3.05-7.46,3.05-.2,0-.36-.02-.5-.08l-19.33-13.63c-.38,1.45.48,1.96,1.04,2.93,1.55,2.63,10.52,14.69,10.53,16.27.02,1.31-4.91,5.39-7.64,5.39-.41,0-.78-.09-1.07-.3l-25.49-38.95c-2.55-3.59,4.77-6.57,7.4-7.47l20.27,13.46c1.04-1.13-12.93-17.63-11.47-20.15l7.4-4.42M571.55,86.97c.26,0,.48.14.8.3,3.2,1.63,10.37,8.14,13.46,10.84,1.37,1.19,6.13,4.66,6.13,5.84,0,.44-4.72,6.35-5.1,6.55-.21.11-.45.17-.71.17-2.85,0-8.8-5.84-10.81-7.53-.77-.65-.75-1.84-1.61-1.84-.38,0-.91.23-1.75.81-.65.45-4.68,5.72-4.68,6.2,0,2.08,7.83,6.73,9.49,8.75-2.57,5.51-4.38,7.38-6.08,7.38-2.49,0-4.75-4.01-8.78-6.38-.77-.45-1.4-.65-1.92-.65-2.45,0-2.7,4.15-5.36,5.74l-.26,2.08c2.25,1.72,11.08,7.85,11.4,10.04.15,1.04-4.27,6.76-4.94,7.06-.09.05-.2.06-.3.06-1.33,0-4.56-2.26-5.48-2.99-4.98-3.86-9.6-9.01-14.91-12.65-.88-1.89,3.4-6.52,4.77-8.29,8.27-10.67,17.64-20.62,26.04-31.21.24-.21.42-.29.62-.29M139.25,96.28c.32,0,.69.06,1.16.18l32.75,35.38c.74,2.79-2.17,3.74-3.68,5.06-.62.54-.81,1.58-1.28,1.95-.53.39-1.22.56-1.93.56-.44,0-.86-.06-1.25-.18-6.31-1.8-14.58-8.18-21.21-10.31-1.15,1.09,13.89,15.15,14.17,16.6.44,2.22-4.26,7.26-6.76,7.26-.14,0-.27-.02-.41-.05l-33.02-37.1c1.21-.6,5.52-5.92,5.92-6.07.2-.08.42-.11.69-.11,4.38,0,18.62,9.58,23.03,10.05-1.36-3.65-13.86-14.17-14.4-16.44-.68-2.78,2.57-3.67,3.73-4.51,1.04-.75.88-2.29,2.49-2.29M605.79,115.85c.35,0,.48.38.95.8.74.69,5.42,6.25,5.48,6.85l-5.07,14.1s.12.06.23.06c1.66,0,11.02-4.48,14.02-4.48.17,0,.32,0,.45.05.5.12,6.28,6.72,6.29,7.98-.85,1.16-23.44,7.34-27.27,9.3-5.67,2.9-10.82,10.41-16.18,14.26-.36.29-.77.42-1.21.42-2.85,0-7.02-5.45-6.67-6.81.54-2.08,13.61-12.18,15.88-14.79,2.6-3.89,9.84-25.75,12.26-27.36.41-.27.65-.38.85-.38M97.29,139.9c.12,0,.24,0,.35.03l43.95,21.63c.88,1.22-3.21,6.94-4.3,7.5-.63.33-1.21.45-1.74.45-1.65,0-2.81-1.21-3.85-1.21-.09,0-.18,0-.26.03-1.99.42-6.49,5.95-6.44,8.03.03,1.43,1.78,1.96,2.07,3.02.74,2.7-3.98,4.92-4.2,7.74l-1.77.35-29.28-37.32c-4.23-2.61,2.26-10.25,5.48-10.25M117.4,166.57c7.98-3.82-2.26-6.66-6.17-7.95l6.17,7.95M656.84,181.69c.29,0,.57.05.88.17l10.17,18.41c.66,3.67-.86,8.42-2.88,11.52-3.95,1.19-12.09,8.04-15.52,8.41h-.3c-2.19,0-9.9-1.52-10.78-2.4-.57-.57-.68-2.37-1.31-3.4-1.52-2.43-3.29-4.89-4.98-7.21h-.05c-1.51,0-10.61,6.28-12.63,6.85-.17.05-.32.06-.48.06-3.11,0-5.84-8.15-5.24-9.1.38-.6,10.85-5.42,12.71-6.47,7.68-4.38,21.01-13.58,28.51-16.38.63-.24,1.25-.48,1.9-.48M646.66,209.96l11.05-6.17c-.32-1.84-3.2-8.15-5.12-8.15h-.08c-1.39.14-10.5,5.52-10.5,6.76l4.66,7.56M62.75,201.52c3.41,0,6.1,1.1,5.67,3.62-.06.35-2.9,6.08-3.14,6.34-.57.6-1.36.74-2.17.74s-1.55-.14-2.19-.14c-.39,0-.72.05-.98.2-.66.41-3.4,6.66-3.05,8.09.09.38,6.17,3.34,6.99,3.38h.14c3.52,0,4.57-8.81,7.06-10.85,1.49-1.22,7.05-2.72,10.02-2.72.47,0,.88.03,1.19.12.71.18,11.59,5.24,12.1,5.66.66.54,3.88,9.1,3.8,10.26-2.61,4.14-4.14,13.24-8.68,15.24-1.75.77-5.1,1.6-8.07,1.6-3.35,0-6.22-1.06-5.69-4.44.05-.29,2.16-5.09,2.35-5.3,1.15-1.33,4.39-.45,5.46-1.06,1.16-.65,4.2-7.12,2.34-8.92-.68-.66-5.66-2.52-7.41-2.52-.21,0-.39.03-.48.09-.56.35-3.62,9.28-5.49,10.79-1.66,1.34-6.64,2.69-9.72,2.69-.6,0-1.13-.05-1.54-.17-1.07-.29-10.85-5.22-11.53-5.86-1.63-1.49-3.86-7.86-3.71-10.08.09-1.18,4.39-10.96,5.21-12.23,1.84-2.85,7.24-4.59,11.52-4.59M673.14,229.62c3.62,0,9.73,2.66,11.27,5.52.63,1.18,4.23,11.23,4.29,12.24.18,3.12-2.97,9.7-5.89,11.15-9,4.48-21.3,7.12-30.62,11.43-.12.02-.26.03-.41.03-2.31,0-8.27-2.17-9.57-3.49-.54-.56-6.05-13.45-6.13-14.22-.33-3.4,3.43-9.84,6.52-11.5,3.76-2.02,25.54-10.32,29.49-11.08.32-.06.66-.09,1.04-.09M675.14,240.45l-27.5,9.72c-1.61,1.49,1.3,8.84,4,8.84.14,0,.26-.02.38-.05l24.83-9.09c2.72-1.83-1.95-6.9-1.72-9.43M37.21,242.92h.24c.6.06,7.38,2.48,7.7,2.73,1.19,1,5.77,11.82,2.73,12.09l-14.79-5.09c0-2.79.59-9.75,4.12-9.75M34.3,270.75c2.31,0,13.3,2.48,15.56,3.15,1.04.32,2.64.94,3.41,1.66.51.48,4.91,7.56,4.98,8.07.39,2.58-2.99,9.13-1.98,12.06.72,2.08,13.52,2.91,14.82,4.78.91,1.31-1.74,7.44-1.9,9.42l-48.49-11.2-.62-.77c-.09-4.08,1.84-7.56,2.64-10.99.6-2.57,1.03-8.62,2.29-10.75.77-1.3,7.55-5.3,9.1-5.43h.18M44.53,293.31c.39,0,.65-.05.75-.12l1.95-8.63c-.65-.94-8.51-2.75-11.64-2.75-.56,0-.97.06-1.15.2-1.04.75-1.95,8-1.3,9.01.33.53,8.74,2.32,11.4,2.32M688.15,278.9c4.87,0,10.34,2.31,12,7.12.71,2.05,2.43,10.66,2.29,12.57-.21,3.18-3.77,6.29-5.13,9.19l-34.08,7.24c-2.2,0-8.6-3.05-9.81-4.72-.45-.63-3.67-14.22-3.56-15.18.18-1.77,3.71-7.59,5.1-8.71,1.52-1.22,4.51-1.75,6.44-2.23,7-1.78,18.23-4.47,25.2-5.21.5-.06,1.03-.08,1.54-.08M663.29,304.86l27.67-5.98c1.48-1.15-.68-9.63-1.71-9.89l-27.32,5.86c-3.21.83.69,9.95,1.36,10.02M26.9,321.66c3.32,0,7.61.44,9.07.89,2.38.74,2.63,2.78,3.79,3.79.62.53,1.16.75,1.66.75,2.05,0,3.41-3.59,5.9-4.03.08,0,.21-.02.39-.02,1.72,0,7.64.53,8.78.69,3.44.5,9.92,6.23,10.19,9.69.17,2.01-1.61,20.45-2.48,21.07l-49.67-3.31c-1.61-1.54.26-7.52.39-9.78.32-5.64-1.27-10.6,2.87-15.23.69-.77,4.48-3.8,5.28-4.12.69-.27,2.13-.39,3.82-.39M31.64,342.49c.83,0,1.75-.03,2.75-.09,3.11-9.51,1.81-10.35-7.89-10.46-2.84,8.27-1.78,10.55,5.15,10.55M50.34,344.12c1.21,0,2.67-.17,4.47-.5,1.95-7.86,1.21-10.08-4.45-10.08-1.19,0-2.61.11-4.27.27-1.07,6.91-1.21,10.31,4.26,10.31M699.69,328.65c1.19,0,2.31.03,3.34.08h.32c.48,0,.97-.05,1.42-.05.92,0,1.74.18,2.14,1.28.54,1.43,1.34,7.12.54,8.24-1.51,2.11-37.58,1.74-39.33,3.74-1.84,2.13,1.3,15.09-.26,16.39-.17-.03-.36-.03-.56-.03-1.71,0-4.23.83-6.23.83-1.28,0-2.37-.33-2.91-1.43l-1.71-25.24c.33-.54,9.45-1.39,11.12-1.54,8.65-.78,22.64-2.28,32.1-2.26M223.64,616.44c2.46,0,16.16,10.61,19.17,11.47,1.83,1.69-3.05,7.74-4.5,7.77h-.03c-2.54,0-9.18-6.49-11.82-6.49-.14,0-.26.02-.36.05-.77.23-4.3,5.49-4.01,6.66.51,2.05,9.22,5.66,9.39,6.75.14.92-3.03,6.05-3.68,6.46-.44.27-.88.38-1.34.38-3.02,0-6.66-4.89-9.66-4.89-1.49,0-2.84,1.21-3.88,4.83-1.36,4.78,7.21,6.04,9.81,9.07,1.92,2.23-2.07,8.07-4.12,8.07-.09,0-.17,0-.26-.03-2.49-.68-9.1-5.89-11.36-7.67l-7.38-3.7.29-2.13c7.55-12.33,14.99-24.87,23.54-36.57.06-.03.12-.03.21-.03M496.2,619.71c2.01,0,7.32,1.27,8.63,2.45.35.32,1.98,2.94,2.07,3.34.41,1.75-4.66,5.64-5.95,5.75h-.11c-1.27,0-1.6-1.99-3.62-1.99-.42,0-.92.09-1.51.29-.66.23-4.54,2.72-4.8,3.24-.72,1.39,3.37,7.23,3.77,7.29.11.02.23.03.33.03,2.73,0,6.96-4.78,9.77-5.15.09,0,.21-.02.35-.02,1.84,0,6.97,1.06,8.12,1.61,1.34.68,7.7,10.96,7.82,12.51.18,2.17-.88,6.97-2.22,8.71-.78,1.01-11,7.5-12,7.58h-.23c-2.14,0-4.8-1.9-7.17-1.9h-.18c-7.03-8.48-12.35-18.56-17.99-28.09.72-2.88.68-7,2.76-9.3,1.1-1.21,10.34-6.28,11.98-6.37h.2M504.44,655.3c1.83,0,6.54-2.31,7-3.08.86-1.45-2.6-7.43-4-7.77-.05,0-.11-.02-.18-.02-1.45,0-6.2,2.99-6.47,4.08-.3,1.18,2.63,6.6,3.31,6.76.09.03.21.03.33.03M260.79,637.87c.86,0,11.59,4.08,12.57,4.72,4.01,2.63,6.34,14.73,1.13,14.81h0c-.47,0-6.38-2.57-6.61-2.85-.65-.86,1.1-2.45-.21-4.06-.2-.26-5.31-3.08-5.63-3.11h-.09c-1.93,0-5.4,6.87-4.18,8.63.57.83,7.21,2.52,8.77,3.55,2.69,1.8,4.45,7.94,3.79,11.09-.15.71-4.06,9.99-4.41,10.44-.91,1.19-7.46,3.71-9.69,3.71-.15,0-.27,0-.38-.03-.98-.21-11.5-4.65-11.97-5.12-2.54-2.52-4.75-14.16.24-14.14.17,0,.35,0,.53.05.45.06,5.36,2.72,5.64,3.05.94,1.09-.11,2.11.08,2.85.33,1.4,5.12,3.47,7.44,3.47.42,0,.77-.08.98-.23.33-.24,2.69-6.97,2.17-7.79l-9.86-3.89c-.44-.35-3.49-8.03-3.49-8.86,0-1.13,4.57-11.38,5.46-12.33.92-.98,6.44-3.88,7.67-3.95h0M457.65,640c2.4,0,7.67,2.78,9.04,4.72,4.69,6.66,7.29,20.27,11.26,27.85.38,3-2.52,6.44-3.49,9.25-3.15.21-10.28,5.09-12.47,5.19h-.05c-1.4,0-8.18-2.88-9.06-3.88l-11.53-29.07c-.26-2.52,2.54-8.32,4.68-9.72.97-.63,10.67-4.35,11.59-4.35h.03M461.11,677.05c1.93,0,5.48-1.95,6.94-2.37,1.15-1.83-7.83-21.13-8.95-24.54-.24-.26-.71-.38-1.31-.38-2.64,0-7.76,2.25-6.54,4.57,1.45,2.7,7.98,21.88,9.01,22.52.21.14.5.2.83.2M293.05,649.81c1.15,0,2.55.51,3.52.71,2.61.54,20.3,4.62,20.93,5.49.44.6-.92,7.3-1.9,7.97-.38.26-.78.35-1.25.35-1.68,0-3.83-1.31-5.78-1.31-.69,0-1.36.17-1.96.6l-8.21,32.9c-.3.51-1.09.69-2.08.69-2.38,0-5.9-1.12-6.17-1.54-1.33-2.04,6.9-29.31,7.73-33.7.09-3.4-6.97-1.89-8.2-4.53-.27-.6,1.21-6.2,1.8-6.99.36-.48.94-.65,1.58-.65M415.98,653.23c2.61,0,8.21,3.88,9.25,6.16l6.02,29.49c-.03,2.04-3.64,7.89-5.12,8.68-.65.35-12.03,2.54-13.25,2.54h-.06c-1.89-.18-7.43-3.86-8.21-5.6l-6.02-30.23c2.96-8.81,6.69-8.78,14.73-9.95.85-.12,1.66-1.01,2.45-1.09h.23M413.52,690.74l8.29-1.48-5.24-25.91c-.26-.29-.86-.41-1.61-.41-2.43,0-6.57,1.22-6.84,2.16l5.42,25.66M367.92,659.39c3.7,0,7.74.38,8.98,1.28.38.27,4.68,5.01,4.77,5.34.89,3.18.15,7.77.17,11.14l-16.54,15.32-.69,3.29c.36-.06.75-.08,1.18-.08,1.39,0,3.06.23,4.47.23.71,0,1.36-.06,1.86-.24,1.3-.47,1-2.34,1.92-3.15.85-.74,2.9-1.01,4.8-1.01,2.02,0,3.88.3,3.88.63v11.21c-.18.56-1.16,1.06-1.81,1.09l-24.92.66c-1-4.53-1.3-9.66-.23-14.23l16.13-14.99c2.04-5.93.65-7.52-2.75-7.52-1.33,0-2.97.24-4.83.56-.94.17.03,2.54-1.1,3.35-.42.3-3.21.45-5.31.45-1.04,0-1.9-.03-2.22-.11-.92-.21-1.31-3.09-1.25-4,.17-2.96,4.44-7.89,7.26-8.74,1.12-.33,3.59-.53,6.25-.53M383.57,12.7c-1.45,0-3.26.11-5.51.33l-3.11.3-.27,3.11-4.35,48.7-.08.8.26.75c1.49,4.32,9.07,4.54,10.58,4.54,2.04,0,3.47-.35,4.54-1.09,2.79-1.96,3.11-6.32,3.44-13.89.06-1.45.15-3.38.27-4.75.91.05,1.87.18,2.72.33-.14,1.8-.48,4.17-.77,6.07-.97,6.6-1.39,10.14.23,12.42.33.47,2.32,2.79,9.28,2.79,1.24,0,5,0,6.72-2.81,1.52-2.48,1.43-5.45,1.37-7.83-.03-.88-.05-1.71,0-2.29.09-.78.24-2.17.47-3.98,4.26-35.95,3.41-37.11,2.14-38.86-2.07-2.87-9.39-2.96-10.22-2.96-1.92,0-3.15.29-4.14.98-2.16,1.49-2.38,4-2.81,11.71-.11,2.04-.29,5.12-.53,6.93h-.68c-.62,0-1.19-.03-1.71-.08,0-1.69.05-3.94.11-5.09.11-1.98.38-3.68.63-5.19.51-3.12.98-6.07-1.04-8.45-1.9-2.23-4.89-2.52-7.56-2.52h0v.02h.02ZM309.56,15.88c-3.77,0-10.87,2.01-10.94,6.85v.3l.03.3,6.79,47.53.35,2.4,2.32.68,2.16.63.77.23.8-.11,23.64-3.17,2.51-.33.65-2.43c1.54-5.81,1.36-9.54-.6-12.09-1.43-1.87-3.64-2.81-6.55-2.81-1.96,0-4.08.41-6.31.83-1.18.23-2.38.45-3.56.62l-4.81-34.29v-.15l-.05-.15c-.26-1.15-1.51-4.87-7.18-4.87h0v.03h-.02ZM439.46,21.61c-1.13,0-2.05.11-2.85.3-3.4.88-8.87,5.07-10.44,8.72-2.54,5.92-5.77,20.36-7.12,27.17-.09.44-.2.91-.3,1.37-.41,1.81-.88,3.88-.75,5.9.24,3.77,4.47,10.49,7.79,12.39,2.17,1.25,14.2,3.8,16.45,3.8.18,0,.35,0,.48-.02,3.67-.35,10.4-5.1,11.98-8.48l.17-.35.09-.38,8.15-33.76.3-1.24-.51-1.16c-1.72-3.92-3.92-8.21-7.27-10.34-3.32-2.11-11.65-3.92-16.15-3.92h0v-.02l-.02.02ZM436.81,62.27c1.06-5.57,3.8-17.07,5.43-22.1.08,0,.15.03.23.05.53.11,1.33.27,1.98.44l-5.39,22.07c-.74-.14-1.52-.3-2.25-.47h0v.02h0ZM270.97,24.45c-.82,0-1.58.12-2.19.21l-.44.06s-5.93,1.28-7.35,2.32c-2.84,2.1-3.05,6.5-1.21,24.83.2,1.99.38,3.7.42,4.48.15,2.84.14,5.78.14,8.9,0,4.83-.03,9.83.59,14.56.18,1.37.54,4.23,3.83,5.95l2.75,1.43,1.87-2.32c.41-.24,1.61-.51,2.35-.66,1.74-.38,3.7-.8,5.1-2.22,1.66-1.69,1.77-3.68,1.81-4.87,0-.21.02-.48.05-.65.18-.12.62-.36,1.58-.6,1.09-.29,1.77-.35,2.16-.35s.51.06.51.06c.06.06.29.42.44.66.69,1.1,2.16,3.41,5.39,3.43,1.01,0,11.47-1.8,11.58-7.49v-1l-.47-.88-23.53-43.1-.24-.44-.35-.36c-.86-.91-2.38-1.98-4.8-1.98h0v.02h0ZM489.99,36.83c-2.82,0-8.9,2.66-10.37,3.58-4.15,2.61-7.23,10.28-11.46,21.7-1.87,5.04-3.79,10.26-5.22,12.45l-.44.66-.14.78c-.82,4.78,3.28,13.19,7.68,15.79,1.1.65,10.49,4.53,12.48,4.75.48.06.98.08,1.49.08,6.25,0,15.24-4.18,15.88-12.03.09-1.19-.12-2.99-1.74-4.74-2.52-2.73-7.24-3.95-9.8-3.95-.24,0-.47,0-.68.03-2.1.18-3.35,1.36-4.09,2.34-.63-.3-1.36-.68-2.02-1.04l9.06-21.07c.69.29,1.43.62,2.07.95-.18.86-.24,1.89.11,2.99,1.21,3.88,9.93,6.08,12.12,6.08,1.3,0,2.4-.38,3.24-1.12,1.45-1.25,3.59-7.35,3.53-8.95-.09-2.43-3.55-10.91-6.26-12.81-.26-.18-1.03-.72-7.24-3.47-6.46-2.85-7.08-2.91-7.67-2.97-.17-.02-.35-.03-.53-.03h-.02.02ZM231.91,37.24c-3.44,0-7.61,2.25-9.66,4.44-1.66,1.78-1.92,3.44-1.86,4.53l.05.66.27.6,14.28,32.45c-.59.3-1.39.59-2.1.74l-15.03-32.3-.26-.54-.41-.44c-.66-.72-1.87-1.57-3.88-1.57-2.9,0-10.84,3.03-11.56,6.85-.48,2.57,1.09,6.49,9.86,24.72,3.06,6.35,6.54,13.57,7.11,15.62l.38,1.36,1.18.77c2.88,1.89,6.81,4.06,11.52,4.06,1.75,0,3.55-.3,5.33-.89.92-.3,9.69-4.14,10.99-5.1,3.28-2.45,7.18-11.65,5.25-16.41l-.03-.06-.03-.06-16.48-36.72-.26-.59-.44-.47c-.72-.77-2.05-1.68-4.23-1.68h0l.02.02h-.01ZM529.99,56.54c-2.14,0-3.46.91-4.18,1.68l-.29.3-.21.36-24.84,41.1-.47.77-.08.89c-.11,1.42.44,2.78,1.63,4.06,1.99,2.16,7.4,5.34,10.76,5.34,1.07,0,2.02-.29,2.81-.85.47-.33.77-.62,1.37-1.57.09,3.61.91,6.78,3.32,8.68.95.75,6.25,3.7,8.53,3.83.3.02.54.03.74.03,1.4,0,2.52-.45,3.34-1.36.74-.83,1.07-1.86.98-3.06.88-4.3,1.07-9.24,1.25-14.02.17-4.3.33-8.38.94-11.82.12-.71.15-.81,1.1-1.51.75-.54,4.71-2.54,7.59-3.98,12.75-6.41,14.38-7.35,14.47-10.29l.06-1.96-1.57-1.18-.57-.42c-4.84-3.67-7.98-5.66-10.67-5.66h-.26l-.77.03-.69.33-3.46,1.66c.47-1.15.69-2.28.59-3.43-.42-4.35-7.85-7.95-11.44-7.95,0,0,.02,0,.02,0ZM185,59.48l-3.05,1.83-7.4,4.42-.85.5-.48.85c-1.31,2.26-.53,4.87,2.05,9.09l-5.49-3.65-1.55-1.03-1.77.6c-5.77,1.99-9.18,4.57-10.17,7.65-.6,1.87-.29,3.82.89,5.49l25.46,38.91.38.57.54.41c.92.68,2.07,1.04,3.31,1.04,3.55,0,7.43-2.97,9.16-4.74,1.55-1.57,2.26-2.99,2.25-4.47-.02-1.19-.45-2.35-2.38-5.39l4.2,2.96.42.3.5.17c.54.2,1.13.29,1.75.29,3.28,0,8.57-2.88,9.81-3.88,1.21-.97,2.64-3.24,2.85-5.25.14-1.21-.15-2.35-.82-3.26l-27.6-40.46-2.01-2.93h0v-.02h0ZM571.55,83.19c-.78,0-1.98.21-3.12,1.24l-.24.21-.2.26c-3.89,4.91-8.1,9.8-12.16,14.52-4.65,5.4-9.46,10.99-13.9,16.72-.2.26-.45.57-.75.94-2.75,3.35-6.19,7.52-4.45,11.24l.44.94.86.59c2.82,1.93,5.55,4.44,8.21,6.87,2.1,1.92,4.27,3.91,6.52,5.66,1.46,1.13,5.15,3.77,7.8,3.77.68,0,1.31-.14,1.89-.41,1.66-.77,7.58-7.53,7.08-11.02-.36-2.57-2.64-4.94-10.38-10.69.57-.77,1.01-1.54,1.39-2.2.03-.05.06-.11.09-.17,1.16.78,2.19,1.75,3.18,2.72,1.98,1.87,4.01,3.82,6.91,3.82,4.44,0,7.18-4.59,9.49-9.55l1-2.14-1.51-1.83c-.88-1.06-2.25-2.11-4.42-3.76-.94-.71-2.41-1.81-3.44-2.7.45-.6.97-1.27,1.42-1.86.26.23.54.48.86.77,4.48,4.01,8.48,7.34,12,7.34.91,0,1.75-.21,2.51-.62.62-.33,1-.54,3.86-4.18,2.76-3.5,3.21-4.3,3.21-5.67.02-2.63-2.23-4.56-6.23-7.76-.5-.39-.92-.72-1.19-.97-.47-.41-1.01-.89-1.63-1.43-4.98-4.39-9.7-8.44-12.6-9.92l-.08-.05c-.45-.23-1.3-.66-2.43-.66h0l.03-.02h-.02ZM139.25,92.51c-3.21,0-4.53,2.35-4.97,3.15l-.27.14c-1.46.77-5.89,3.14-4.66,8.18.29,1.16,1.01,2.29,2.69,4.12-3.23-1.54-5.67-2.41-7.64-2.41-.75,0-1.46.14-2.11.39-.97.39-1.39.86-3.17,2.87-.85.95-2.55,2.87-3.21,3.44l-4.21,2.1,3.28,3.68,33.02,37.1.75.85,1.1.29c.44.12.89.17,1.36.17,3.73,0,7.06-3.71,8-4.86,1.42-1.72,2.99-4.33,2.48-6.93-.2-1.01-.65-1.8-2.4-3.76,1.6.75,3.18,1.4,4.69,1.83.74.21,1.51.32,2.29.32,1.6,0,3.06-.45,4.21-1.33.94-.71,1.39-1.6,1.68-2.19.02-.03.03-.06.05-.09.18-.14.41-.29.62-.42,1.57-1.06,5.24-3.53,3.98-8.26l-.24-.91-.63-.69-32.75-35.38-.72-.78-1.03-.29c-.78-.23-1.49-.33-2.17-.33h0v.02l-.02-.02ZM605.79,112.08c-1.27,0-2.23.54-2.94,1.01-2.05,1.37-3.64,4.84-8.42,16.96-1.69,4.3-3.79,9.6-4.75,11.24-.89.94-3.46,3.12-5.74,5.07-8.1,6.91-10.2,8.93-10.76,11.05-.18.66-.71,2.7,2.16,6.4,1.19,1.54,4.38,5.13,8.17,5.13,1.28,0,2.49-.41,3.49-1.19,2.54-1.84,4.94-4.32,7.26-6.7,2.79-2.87,5.66-5.83,8.35-7.2,1.55-.8,8.12-2.82,13.4-4.47,13.25-4.11,14.17-4.53,15.21-5.98l.72-1.01v-1.25c-.03-1.19-.33-2.54-3.85-6.78-3.65-4.41-4.39-4.59-5.34-4.83-.42-.11-.86-.15-1.34-.15-1.9,0-4.5.85-8.07,2.19l2.46-6.82.29-.81-.09-.86c-.12-1.19-.57-2.04-3.32-5.39-.86-1.04-2.66-3.18-3.34-3.83-.03-.03-.06-.06-.09-.09-.36-.42-1.46-1.72-3.44-1.72h0v.03h-.02ZM97.29,136.12h0c-4.26,0-9.12,5.07-10.29,9.27-.86,3.03-.05,5.8,2.2,7.53l28.95,36.89,1.42,1.81,2.26-.44,1.77-.35,2.84-.56.2-2.73c.18-.35.81-1.06,1.24-1.52,1.51-1.66,3.77-4.18,2.84-7.64-.32-1.16-1-1.98-1.55-2.54.65-1.09,1.89-2.61,2.81-3.44.88.41,2.07.89,3.59.89,1.18,0,2.34-.29,3.46-.86,2.22-1.13,5.64-6.32,6.29-8.98.48-1.95-.09-3.29-.63-4.08l-.56-.77-.86-.42-43.95-21.63-.44-.21-.48-.09c-.35-.08-.71-.11-1.09-.11h0v-.03h-.02ZM656.84,177.92c-1.28,0-2.32.39-3.08.68l-.14.05c-5.48,2.04-13.48,7.03-20.53,11.43-3.17,1.98-6.16,3.85-8.54,5.21-.59.35-2.73,1.37-4.62,2.29-8.32,4.03-8.66,4.29-9.4,5.45-1.9,3.02,1.03,8.68,1.65,9.78,2.32,4.21,4.98,5.1,6.79,5.1.5,0,1.01-.08,1.49-.21,1.3-.36,2.97-1.33,6.78-3.64,1.03-.62,2.45-1.48,3.62-2.14,1.07,1.51,2.1,3,3.02,4.47.08.17.18.56.26.83.27,1.01.62,2.26,1.61,3.26,2.51,2.54,12.77,3.52,13.46,3.52.27,0,.51,0,.71-.03,2.55-.27,5.43-2.04,9.87-4.91,2.23-1.45,5.01-3.23,6.32-3.64l1.31-.39.75-1.15c2.35-3.58,4.33-9.37,3.44-14.26l-.11-.6-.3-.54-10.17-18.41-.65-1.18-1.25-.5c-.72-.29-1.49-.44-2.28-.44h0l-.03-.02h.02ZM646.82,203.03c1.51-1.03,3.62-2.31,5.1-3.08.38.59.78,1.36,1.13,2.1l-5.1,2.85-1.15-1.86h0l.02-.02h0ZM62.75,197.75c-5.12,0-11.89,1.98-14.69,6.32-.63.98-5.61,11.52-5.8,13.99-.24,3.26,2.31,10.75,4.92,13.15,1.37,1.27,11.61,6.31,13.1,6.72.74.2,1.55.29,2.52.29,2.82,0,7.03-.91,9.95-2.26-.39.97-.68,1.78-.74,2.11-.44,2.88.59,4.8,1.52,5.89,1.65,1.92,4.3,2.9,7.89,2.9s7.5-1,9.58-1.92c4.42-1.95,6.44-7.2,8.21-11.83.74-1.93,1.43-3.74,2.13-4.84l.5-.8.06-.94c.15-2.11-3.14-11.8-5.18-13.46-1.34-1.09-12.71-6.17-13.55-6.38-.62-.17-1.31-.24-2.13-.24-2.51,0-7.02.89-10.11,2.23.62-1.31,1.1-2.48,1.16-2.93.3-1.89-.18-3.7-1.37-5.1-1.61-1.9-4.39-2.91-8.03-2.91h0l.05.03v-.02ZM63.11,215.99c.75,0,1.45-.09,2.1-.26-.09.21-.17.42-.26.63-.38.95-.95,2.38-1.43,3.26-.72-.32-1.61-.74-2.41-1.15.3-.83.68-1.78,1.03-2.54.3.02.63.05.98.05h0ZM78.5,229.02c.47-1.03.98-2.2,1.54-3.55.06-.14.12-.27.17-.41.8.26,1.71.57,2.4.86-.2.86-.65,2.05-1.09,2.85h-.08c-.85,0-1.9,0-2.96.24h.02ZM673.14,225.85c-.62,0-1.21.05-1.75.15-4.38.83-26.44,9.24-30.58,11.46-4.14,2.23-9,9.99-8.48,15.18.14,1.4,5.64,14.94,7.18,16.5,2.14,2.19,9.15,4.62,12.27,4.62.36,0,.69-.03,1.03-.08l.5-.09.45-.21c4.23-1.95,9.28-3.61,14.19-5.21,5.69-1.86,11.56-3.79,16.56-6.26,4.35-2.16,8.24-10.28,7.97-14.75-.12-2.17-4.18-12.78-4.72-13.81-2.48-4.59-10.29-7.52-14.61-7.52h0v.02h-.01ZM651.2,252.91l21.51-7.61c.08.17.17.33.24.5.17.35.39.82.59,1.27l-21.4,7.83c-.35-.54-.71-1.3-.94-1.99h0ZM37.21,239.15c-4.89,0-7.85,5.04-7.89,13.49v2.7l2.55.88,14.79,5.09.75.26.8-.08c1.96-.18,3.56-1.49,4.17-3.43,1.37-4.41-2.85-13.67-4.81-15.3-1.34-1.12-8.81-3.52-9.78-3.59-.2-.02-.39-.03-.59-.03h0l.02.02h0ZM34.3,266.98c-.2,0-.36,0-.51.02-2.66.23-10.52,4.75-12.01,7.26-1.15,1.93-1.65,4.84-2.22,8.75-.18,1.22-.35,2.37-.51,3.06-.23.95-.57,1.99-.95,3.09-.88,2.55-1.86,5.45-1.78,8.83l.03,1.28.8,1,.62.77.81,1.03,1.28.3,48.49,11.2,4.23.98.38-4.33c.05-.39.47-1.72.74-2.61,1.19-3.88,2.14-6.94.51-9.28-1.42-2.04-4.08-2.66-9.49-3.76-1.39-.29-3.44-.69-4.77-1.07.2-1.13.66-2.75.95-3.73.74-2.54,1.39-4.72,1.09-6.69-.11-.71-.18-1.15-2.85-5.46-2.54-4.09-2.97-4.5-3.29-4.8-1.49-1.39-3.92-2.22-4.91-2.51-2.1-.63-13.64-3.32-16.63-3.32h0v-.02h-.01ZM36.76,288.21c.08-.82.2-1.74.35-2.54,1.74.21,4.03.69,5.75,1.16l-.56,2.46c-1.74-.27-3.95-.71-5.54-1.09h0ZM688.15,275.13c-.65,0-1.3.03-1.93.11-5.46.57-14.13,2.35-25.73,5.3-.3.08-.63.15-.98.24-2.22.53-4.97,1.18-6.9,2.72-1.98,1.58-6.2,8.24-6.5,11.29-.18,1.83,3.02,16.04,4.26,17.76,2.05,2.84,9.64,6.28,12.86,6.29h.41l.39-.08,34.08-7.24,1.84-.39.8-1.71c.35-.75,1.06-1.71,1.8-2.72,1.63-2.22,3.49-4.74,3.68-7.82.18-2.76-1.78-11.97-2.51-14.05-2.31-6.67-9.49-9.66-15.58-9.66h0l.02-.05h-.01ZM664.54,298.14l22.55-4.83c.2.78.39,1.68.5,2.43l-22.34,4.83c-.29-.8-.56-1.71-.71-2.43h0ZM26.9,317.89c-3.15,0-4.45.35-5.21.66-1.68.66-5.96,4.29-6.7,5.12-4.11,4.59-3.95,9.43-3.83,13.72.05,1.31.08,2.55,0,3.82-.02.41-.2,1.33-.35,2.16-.71,3.77-1.51,8.06,1.13,10.56l1,.95,1.36.09,49.67,3.31,1.36.09,1.1-.8c1.37-1,1.95-1.4,3.17-12.66,0-.09,1.04-9.64.88-11.76-.42-5.34-8.36-12.39-13.42-13.12-1.22-.18-7.32-.74-9.33-.74-.42,0-.74.02-1.04.08-2.37.41-3.91,1.95-5.06,3.14-.75-1.15-2.05-2.78-4.54-3.55-2.11-.65-6.93-1.06-10.19-1.06h0v-.02h0ZM28.8,338.46c0-.38.06-1.16.45-2.67,1.09.05,2.2.14,2.87.3-.03.47-.17,1.25-.54,2.63-1.61,0-2.41-.15-2.78-.26h0ZM49.41,337.34c.35,0,.66-.02.95-.02.85,0,1.36.06,1.65.12.03.42,0,1.25-.32,2.82-.5.05-.95.08-1.36.08-.5,0-.83-.05-1.01-.08-.12-.6-.05-1.77.09-2.91h0v-.02h0ZM699.69,324.87c-8.07,0-18.99,1.03-27.74,1.86-1.68.15-3.26.3-4.69.44-12.63,1.13-12.95,1.65-13.99,3.29l-.65,1.04.08,1.22,1.71,25.24.05.74.33.66c.65,1.33,2.34,3.55,6.29,3.55,1.4,0,2.82-.27,4.08-.5.8-.15,1.71-.32,2.16-.32l1.66.24,1.31-1.09c2.26-1.9,1.96-5,1.4-10.6-.17-1.65-.41-4.12-.41-5.69,3.29-.47,10.73-.8,16.41-1.04,18.64-.83,21.21-1.22,22.82-3.5,2.38-3.35-.06-11.67-.08-11.74-.51-1.39-1.95-3.73-5.67-3.73-.29,0-.57,0-.88.03-.18,0-.36.02-.54.02h-.12c-1.06-.06-2.25-.08-3.53-.08h0l.02-.05h-.02ZM223.64,612.66c-.6,0-1.19.12-1.74.36l-.92.41-.6.81c-7.56,10.32-14.31,21.4-20.83,32.1-.97,1.57-1.92,3.15-2.88,4.72l-.42.68-.11.8-.29,2.13-.35,2.67,2.4,1.21,7.03,3.52c6.55,5.13,10.14,7.49,12.39,8.1.41.11.83.17,1.25.17,3.59,0,6.35-3.92,7.41-6.25,1.43-3.12,1.27-6.05-.44-8.06-1.42-1.66-3.52-2.72-5.54-3.74-1.09-.56-2.85-1.45-3.44-2.04.24-.8.45-1.31.63-1.65.65.36,1.54,1.03,2.14,1.46,2.02,1.49,4.33,3.18,7.08,3.18,1.19,0,2.32-.32,3.34-.95,1.6-1,5.89-7.21,5.42-10.23-.35-2.28-2.16-3.31-5.46-5.18-.89-.5-2.28-1.3-3.29-1.95.27-.45.57-.95.88-1.39.95.59,2.14,1.42,2.99,2.01,3.43,2.41,5.64,3.88,7.97,3.88h.11c3.86-.08,7.3-5.81,8.06-7.79,1.4-3.7-.27-5.8-1.06-6.54l-.66-.62-.88-.24c-1-.36-5-3.05-7.64-4.83-7.92-5.33-10.38-6.78-12.56-6.78h0v.03ZM496.2,615.94h-.38c-3.15.15-13.06,5.92-14.59,7.59-2.26,2.48-2.79,5.86-3.21,8.57-.14.88-.26,1.69-.42,2.34l-.38,1.51.78,1.33c1.09,1.84,2.17,3.71,3.24,5.58,4.53,7.83,9.21,15.92,15.08,23l1.19,1.43,1.87-.08h0c.53,0,1.57.41,2.41.74,1.42.54,3.02,1.18,4.77,1.18.17,0,.32,0,.47-.02,2.69-.18,13.54-7.47,14.73-9.03,2.13-2.75,3.21-8.63,3-11.32-.23-2.84-7.15-14.22-9.9-15.58-1.34-.66-4.78-1.43-7.41-1.81.78-.74,1.43-1.46,1.84-2.02,1.16-1.61,1.58-3.2,1.24-4.72-.3-1.36-2.38-4.54-3.21-5.3-2.35-2.13-8.9-3.43-11.15-3.43h0l.03.02v.02ZM495.16,634.25c.63-.42,1.3-.85,1.72-1.09.3.3.72.71,1.28,1.07-.09.06-.18.14-.29.2-.51.36-1.22.88-1.86,1.27-.3-.48-.62-1-.88-1.46h.03ZM505,649.64c.44-.3.95-.62,1.42-.88.32.51.65,1.1.91,1.65-.51.24-1.07.5-1.58.69-.26-.47-.51-1-.74-1.46h-.01ZM260.79,634.09h-.26c-2.46.17-8.78,3.65-10.19,5.16s-6.47,12.36-6.47,14.91c0,.91,1.27,4.94,2.66,8.09-.56-.23-1.01-.39-1.3-.44-.36-.06-.72-.08-1.07-.08-2.67,0-4.91,1.55-5.98,4.15-1.98,4.78.08,13.46,3.06,16.45,1.49,1.49,13.28,6.01,13.86,6.13.36.08.74.11,1.15.11,2.75,0,10.7-2.61,12.68-5.19.92-1.21,4.87-10.91,5.1-11.97.63-3-.14-7.41-1.92-10.84,1.07.36,1.96.59,2.38.59,3.08-.05,5.43-1.95,6.35-5.1,1.4-4.84-.86-13.66-5.4-16.63-1.03-.68-12.56-5.34-14.64-5.34h-.02.01ZM261.64,653.64c.23-.59.56-1.25.88-1.81.54.29,1.1.6,1.6.89-.11.47-.2,1.07-.15,1.72-.21-.08-.44-.15-.68-.23-.5-.17-1.1-.38-1.66-.57h.02-.01ZM254.47,670.05c.05-.51.03-1.1-.12-1.72l2.46.97c-.15.5-.32,1.01-.47,1.51-.63-.21-1.31-.48-1.87-.75h0ZM457.65,636.22h-.06c-.63,0-1.34,0-7.08,2.19-5.45,2.07-6.28,2.61-6.55,2.79-3.31,2.19-6.75,9.37-6.35,13.27l.06.51.2.48,11.53,29.07.24.6.44.5c1.74,1.98,9.49,5.16,11.89,5.16h.23c1.74-.09,3.64-1.03,6.84-2.67,1.65-.85,4.71-2.43,5.71-2.52l2.51-.17.82-2.38c.23-.68.71-1.57,1.22-2.52,1.25-2.34,2.82-5.25,2.43-8.42l-.09-.68-.32-.6c-1.58-3.02-2.97-7.21-4.44-11.65-2.02-6.1-4.11-12.39-7.08-16.62-2.08-2.96-8.54-6.32-12.12-6.32h0l-.02-.02h-.01ZM455.36,654.24c.33-.17.72-.32,1.12-.44.44,1.06,1,2.38,1.71,4.04,1.58,3.74,4.56,10.78,5.72,14.44-.44.18-.95.39-1.43.57-1.03-2.48-2.64-6.82-3.82-9.98-1.46-3.94-2.54-6.82-3.31-8.65h.02v.02ZM293.05,646.03c-2.61,0-4.01,1.36-4.62,2.17-.71.95-3.47,8.03-2.19,10.82,1.37,2.97,4.51,3.56,6.81,4.01.2.05.42.08.65.14-.44,1.72-1.12,4.23-1.83,6.82-6.13,22.61-6.4,25.45-4.91,27.74,1.93,2.96,9.27,3.26,9.33,3.26,3.17,0,4.65-1.4,5.34-2.57l.27-.47.14-.53,7.59-30.41c.29.09.57.18.85.27,1.15.38,2.45.81,3.86.81,1.25,0,2.4-.33,3.38-1.01.71-.48,2.2-1.49,3.31-7.65.47-2.58.53-4.24-.45-5.61-.86-1.21-1.21-1.71-11.89-4.35-4.78-1.19-9.93-2.35-11.35-2.66-.23-.05-.5-.12-.77-.2-.98-.27-2.22-.6-3.52-.6h0v.02ZM415.98,649.46c-.21,0-.41,0-.6.03-1.24.12-2.16.68-2.78,1.06-.06.03-.11.06-.17.11l-1.1.15c-7.17,1-12.83,1.8-16.35,12.27l-.32.95.2.98,6.02,30.23.09.44.18.41c1.42,3.09,8.21,7.47,11.27,7.77h.18l.24.02c1.28,0,13.34-2.08,15.02-2.97,2.81-1.48,7.08-8.63,7.12-11.94v-.41l-.08-.41-6.02-29.49-.09-.42-.18-.39c-1.57-3.46-8.39-8.38-12.68-8.38h.05ZM412.39,667.12c.33-.09.69-.17,1.04-.24l3.91,19.35-.89.17-4.08-19.27h.02ZM367.92,655.62c-1.51,0-5.25.06-7.32.68-4.11,1.21-9.67,7.32-9.96,12.13,0,.08-.27,6.87,4.17,7.89.29.06.91.21,3.06.21,5.9,0,6.87-.69,7.52-1.15,1.22-.88,1.75-2.04,1.99-3.08.59-.08,1.13-.12,1.6-.14-.06.39-.18.92-.39,1.65l-15.42,14.32-.85.78-.26,1.12c-1.39,5.98-.65,11.94.21,15.91l.66,3.05,3.12-.09,24.92-.66c2.08-.09,4.6-1.43,5.31-3.74l.17-.54v-11.79c0-4.41-5.55-4.41-7.65-4.41-1.22,0-2.25.09-3.11.23l8.68-8.04,1.22-1.13v-1.66c0-.91.05-1.99.12-3.12.17-2.9.36-6.2-.42-9.01-.6-2.16-6.1-7.32-6.16-7.37-.68-.5-2.75-2.04-11.23-2.04h.02Z"/>
  </g>
</svg>