<?xml version="1.0" encoding="UTF-8"?>
<svg id="Layer_1" xmlns="http://www.w3.org/2000/svg" version="1.1" viewBox="0 0 720 720">
  <!-- Generator: Adobe Illustrator 29.4.0, SVG Export Plug-In . SVG Version: 2.1.0 Build 152)  -->
  <defs>
    <style>
      .st0 {
        fill: #041e42;
      }

      .st1 {
        fill: #b9975b;
      }

      .st2 {
        fill: #c8102e;
        stroke: #fff;
        stroke-miterlimit: 10;
        stroke-width: 3px;
      }
    </style>
  </defs>
  <path class="st1" d="M645.87,437.32c5.83,7.23,8.2,16.54,7.62,25.73-.18,2.9-1.01,10.47-3.44,11.76-5.45,2.88-19.62,6.85-26.11,8.63-29.13,8.06-60.46,10.81-90.65,11.06-.14-1.06,1.9-1.3,2.6-1.37,29.39-3.11,55.62-4.97,84.28-13.46,1.93-.57,34.25-11.09,31.14-13.39-19.94,4.97-39.56,11.41-59.95,14.97-15.29,2.67-30.19,3.35-45.44,5.25-1.43.18-1.04-.17-1.03-1.39,26.17-2.97,53.16-8.9,77.83-18.1,3.65-1.36,15.21-5.66,17.72-7.61.35-.27.78-.62.72-1.09-.75-.56-14.66,4.35-17.07,5-17.64,4.72-35.56,7.09-53.87,7.29-.18-1.1,1.36-.86,2.17-1.06,23.89-6.13,49.63-7.65,71.66-19.56.11-.56-.65-.42-1.09-.36-8.71,1.25-19.64,5.52-28.74,7.47-8.93,1.92-17.48,4.17-26.65,2.66-.21-1.87,0-1.15,1.06-1.46,8.78-2.6,18.07-4.15,27-7.03,6.94-2.23,13.6-5,20.44-7.44l-.97-1.33-39.57,11.11,41.43-22.34c2.91-.97,7.17,3.91,8.89,6.04l.02.02ZM72.86,475.7c2.94,13.57,9.83,23.2,23.32,27.71,25.28,8.47,56.28,10.66,82.77,12.84l8.29-1.46c-27.2-2.55-54.08-7.2-80.7-13.04l1.46-.75c26.85,4.63,53.78,9.69,81.09,10.19l6.11-1.46c-24.45-1.61-48.6-5.22-72.52-10.37-10.93-2.35-22.96-5-33.54-8.45-.86-.27-14.37-4.3-11.92-6.52,10.63,3.47,21.48,6.14,32.43,8.47,27.98,5.92,57.29,10.04,85.92,10.35l5.43-1.43c-25.72-1.89-51.63-5.13-76.87-10.37-17.34-3.59-35.32-7.97-51.26-15.7h-.03ZM343.02,210.24c-3.65-6.22-7.43-12.53-11.7-18.34l25.93,48.99c34.43,61.99,67.27,124.95,103.79,185.79,4.69,7.82,9.33,15.83,15.05,22.94-10.78-22.37-23.15-44.01-35.35-65.64-32.59-57.81-64.13-116.55-97.73-173.75h0ZM553.22,507.57l-28.62-.74,9.13,2.08c31,2.57,62.18-1.96,91.84-10.78-.03,1.71-3.47,2.64-4.86,3.11-8.14,2.75-19.39,5.1-27.94,6.81-22.99,4.62-42.47,5.55-65.86,3.32-.8-.08-2.46-.86-2.31.51,17.69,3.92,36.63,3.58,54.56,1.36,20.69-2.55,45.85-9.27,62.33-22.37,1.42-1.12,2.97-2.82,4-4.32-8.44,3.38-16.6,7.14-25.34,9.77-21.76,6.52-44.22,10.01-66.94,11.26v-.02ZM113.4,484.75c22.11,4.65,56.4,10.66,78.56,9.77.88-.03,2.69.54,2.52-.71-41.81-7.2-85.29-10.38-124.52-27.51.24,3.55.21,5.92,3.61,7.61,9.33,4.62,29.13,8.62,39.81,10.87l.02-.02ZM85.73,469.69c30.83,8.17,63.78,11.74,95.36,16.13l6.14-.71c-31.08-6.01-62.91-10.07-93.21-19.36-8.1-2.49-15.91-5.86-24.06-8.15-2.26,9.12,9.16,10.34,15.77,12.09h0ZM149.35,472.68c5.48.8,11.83,1.87,17.27,2.28.8.06,3.37.57,3.24-.71-32.51-8.57-66.63-12.9-97.48-26.7-2.57-.26-1.61,5.46-1.61,7.06,25.57,8.45,51.9,14.17,78.59,18.05v.02ZM524.22,499.59c-.88.03-2.69-.54-2.52.71,34.19,3.95,69.11-.09,102.22-8.89,7.8-2.07,15.3-5.67,23.26-6.43l3.38-7.11c-18.7,7.46-37.82,13.75-57.76,17.16-23.73,4.06-44.86,3.62-68.57,4.56h-.02ZM159.73,464.84l-85.41-25.36-1.13,5.1c27.21,9.75,56.07,14.23,84.2,20.78l2.34-.54v.02ZM96.01,442.76c11.7,2.84,23.59,5.01,35.48,6.85-1-1.52-3.62-2.28-5.31-3-11.53-5.04-24.01-7.03-36.12-10.22-5.28-1.39-12.26-6.64-14.31.57.06,1.06,17.87,5.22,20.24,5.8h.02ZM81.79,431.63c6.44,1.75,13.42,3.73,20.03,4.26-.18-1.12-1.34-1.36-2.19-1.8-3.24-1.66-18.41-9.06-19.51-3.62-.33,1.65.69.89,1.68,1.16ZM589.76,472.07l-21.98,2.26-9.87,2.07c9.46-.08,20.68-.56,29.82-3.11.75-.21,2.19-.17,2.02-1.22ZM507.24,528.9c-2.01.94-9.3,10.66-11.59,13.06-36.83,38.59-82.92,66.69-132.86,85.06-54.38-20.19-101.77-50.15-141.18-92.67-1.09-1.18-3.18-4.95-3.98-5.45-1.86-1.15-9.22.98-9.45,3.65-.18,2.25,9.83,13.89,11.97,16.25,31.38,34.82,82.9,67.68,126.36,85.03,3.68,1.46,12.15,5.51,15.55,5.51,4.63,0,25.54-9.27,31.03-11.74,42.32-19.15,85.82-49.05,115.94-84.59,1.54-1.81,8.89-9.57,7.53-11.53-3-.21-6.58-3.88-9.33-2.61l.02.03ZM358.82,606.35c1.92.66,3.28,1.24,5.42,1.16,3.47-.12,16.66-7.06,20.65-9.1,32.45-16.51,62.26-36.77,87.98-62.6l16.66-18.85c.69-1.33-3.52-5.24-4.74-6.16-1.1-.83-2.29-2.1-3.85-1.71-12.96,11.08-23.68,26.38-36.77,37.13-10.14,8.32-28.04,19.53-39.51,26.37-14.17,8.44-29.55,15.27-44.03,23.21-27.08-12.71-52.57-28.63-76.73-46.27l-43.14-36.52c-2.41-1.65-6.72,2.99-6.52,5.03.23,2.41,23.89,24.39,27.54,27.56,23.64,20.59,67.63,50.62,97.03,60.79v-.03ZM455.1,352.63l36.93,67.31c1.9.17,1.19.08,1.4-1.1,3.88-20.84,4.66-43.06,7.98-64.05-15.5.08-31.02.39-46.32-2.17v.02ZM386.22,333.19l76.63,150.11c-8.14,11.08-15.12,23.38-25.85,32.21-.51-3.73.71-9.21,0-12.66-2.88-14.05-36.48-23.32-48.87-24.96-24.98-3.34-75.31,0-95.21,16.99-6.54,5.58-7.61,9.9-7.59,18.46-8.3-8.04-14.87-17.48-21.13-27.15,6.5-10.6,12.38-21.63,19.02-32.15,3.43-5.42,8.39-10.56,11.44-16.07,6.1-10.97,10.94-24.81,16.47-36.37,5.16-10.82,11.15-21.27,15.83-32.31.95.38,1.36,1.24,2.54,1.43,4.8.8,11.65.63,16.63.72,9.04.17,19.79.17,28.87-.82,1.69-.18,4.23-.53,5.52-1.72-1.28-.75-3.18-1.01-4.68-1.12-9.7-.68-23.56-.51-33.37,0-4.94.26-9.78,1.95-14.81,1.48,11.2-25.45,25.07-49.5,37.49-74.35.45-.69.82-1.93,1.95-1.66,2.07.48,16.66,33.93,18.47,38.37l-25.01-.74-7.56,1.46c10.96,1.66,22.14,1.99,33.19.85h.03ZM358.81,325.84c3.71.56,7.46,1,11.26.75,1.1-.08,4.3-.17,4.68-1.46-5.13-1.68-9.57-1.68-14.82-.71-1.18.23-1.25-.5-1.1,1.42h-.02ZM292.94,488.74c-6.94-1.34-13.22-1.89-20.27-.72.48,1.46,2.88,1.78,4.17,1.98,4.35.63,10.84,1.18,15.02.18,1.1-.26,1.27.51,1.09-1.43h0ZM303.79,478.59c-10.05-2.17-20.22-1.45-30.4-.72-.8,1.61,3.37,2.1,3.98,2.17,7.08.74,16.5,0,23.89,0,.15,0,2.82-.68,2.54-1.43l-.02-.02ZM336.38,471.36c-8.14-.74-17.55-1.34-25.73-.75-2.04.14-6.46.41-7.58,2.19,8.33.71,18.1,1.4,26.44.75,1.92-.15,5.84-.38,6.85-2.19h.02ZM351.58,460.5l-70.21,1.8c2.01,1.3,5.92,1.69,8.29,1.84,16.84,1.04,40.42.54,57.14-1.55,1.43-.18,4.18-.51,4.78-2.08h0ZM349,338.88c3.85.97,12.39,1.39,16.66,1.46,5.01.09,9.92-.24,14.88-.77-.6-1.55-3.38-1.92-4.78-2.08-6.07-.69-12.04-.23-17.99-.06-3.5.11-7.03-.14-10.52-.03-.36,2.19.54,1.16,1.75,1.46v.02ZM458,483.66c-5.96-.95-11.77-.15-17.73.74-.98.15-2.26.32-1.09,1.42,5.78,1.31,11.91.14,17.73-.74,1.27-.18,1.22.39,1.09-1.43v.02ZM450.41,472.07c-8.15-1.31-17.27-.83-25.34.74-1.06.21-2.25,0-2.54,1.43l14.87.75,15.53-1.48c-.3-1.4-1.45-1.27-2.54-1.45h.02ZM448.58,463.4l-19.21.03c-9.67-1.1-19.76.82-29.64.69l-5.43,1.43c1.57.18,3.06.65,4.68.75,13.03.89,31.86.57,44.83-.85,1.12-.12,5.52-.2,4.8-2.08l-.02.02ZM443.51,449.63c-14.94-.63-29.04.3-43.8,2.17-.98.12-2.31.51-1.07,1.43l36.54-.72c2.19-.48,4.51-.72,6.66-1.34,1.22-.35,2.02.54,1.68-1.54ZM414.23,443.14c-7.56.23-14.93-.2-22.49.69-1.33.15-1.18-.23-1.07,1.45,10.9.8,22.01,1.1,32.96.75,1.71-.06,3.29-.71,5.01-.78,3.68-.17,8.1.48,11.62.03,1.01-.12,2.11-.39,1.07-1.43-7.12-2.01-14.73-1.6-22.11-1.49-1.71.03-3.29.74-5.01.78h.02ZM392.84,361.32h-50.67c.97,1.75,4.95,1.93,6.88,2.16,12.39,1.43,28.15,1.24,40.43-.82.86-.14,3.37-.23,3.35-1.34h0ZM391.39,352.63c-17.52-1.84-35.32-2.17-52.85-.36,9.1,2.4,18.58,1.68,27.91,1.78,5.61.06,11.43.89,17.34.03l7.61-1.43v-.02ZM312.62,509.5c2.29-7.56,29.46-12.04,36.63-12.6,15.83-1.24,38.7.27,53.87,5.06,7.06,2.23,13.84,9.66,5.42,15.14-17.67,11.5-67.04,9.8-86.81,3.28-4.17-1.37-10.69-5.71-9.12-10.87h.02ZM393.91,516.24c2.29-.65-.05-8.09-2.87-7.23-2.46.75-.27,8.12,2.87,7.23ZM381.25,519.13c1.12-1.15-1.8-15.24-6.5-13.03-.59.57,2.04,14.67,6.5,13.03ZM364.6,518.41c.85-.85-.75-13.76-5.06-12.3-.85.86.94,13.78,5.06,12.3ZM350.13,520.58c6.31,1.09.91-14.43-1.09-14.46-3.08,4.32.6,9.9,1.09,14.46ZM338.1,520.54c2.57-1.42,2.01-4.18,1.71-6.66-.23-1.83-1.81-9.36-4.51-8.5-2.64.83-.59,15.73,2.81,15.15ZM431.98,174.94c-1.3,1.06-9.04,11.7-8,12.63h87.96c9.92,10.85,19,22.5,28.95,33.31,11.06,12.03,23.76,22.79,33.66,35.85-2.07,18.9-5.78,37.72-8.54,56.57-6.58,44.83-14.47,89.76-20.28,134.64-.26,2.01-.71,4.53-.85,6.41-.08,1.1-.11,1.27,1.1,1.1,1.42-.21,7.92-3.29,8.54-4.54,7.61-34.31,13.03-69.09,18.47-103.81,4.44-28.21,9.54-57.96,13.03-86.15.41-3.32,1.58-9.01.69-12.04-.42-1.46-16.51-17.21-19.05-20.04-6.69-7.52-12.69-15.79-19.53-23.18-10.16-10.99-21.37-21.24-32.21-31.56-25.17.48-50.5.83-75.71.47-2.96-.05-5.63-1.77-8.26.38l.02-.03ZM169.65,448.23c.95.74,7.32,2.84,8.53,2.87.69-.08.41-1.21.36-1.8-.86-10.11-4.11-22.94-5.66-33.45-3.56-24.01-6.23-48.15-9.63-72.17-4.15-29.39-8.93-58.71-13.31-88.05,22.79-21.18,47.16-40.69,66.95-64.84l5.09-2.88c17.98-.41,36.01-.6,53.99-.38,2.07.03,3.83.75,5.72.78,3.2.05,22.74.38,23.56-.75-1.55-3.03-5.95-12.41-9.07-13.01l-78.71.15c-5.03,2.99-8.21,8.06-12.47,12.15-19.39,18.64-39.45,36.89-58.68,55.71-2.51,2.45-8.92,7.82-8.86,11.02,8.92,52.22,15,104.96,23.83,157.19.98,5.83,5.13,34.92,8.36,37.45v.02ZM203.55,246.23c10.79-10.43,21.19-21.3,31.65-32.06,27.98-1.75,56.1-1.96,84.16-1.99l1.8-1.09c-3.86-9.8-8.48-6.29-16.24-6.13-22.67.47-48.96-1.99-71.01-.06-5.74.5-8.27,3.64-11.94,7.61-4.45,4.84-8.74,10.7-13.36,15.59-11.86,12.54-24.86,23.91-37.87,35.24l-.15,3.46c7.02,49.75,11.5,100.37,21.22,149.64,1.06,5.34,7.83,39.21,11.09,40.31,1.45.48,3.73-.09,5.34.11-.03-2.02.12-4.04-.09-6.07-1.65-15.94-6.64-34.53-9.21-50.88-6.04-38.55-10.73-77.55-13.89-116.43-.44-5.42-2.57-13.15-.89-18.28,1.42-4.35,15.3-15.06,19.36-19l.02.02ZM530.38,356.6c-3.71,33.85-8.48,67.63-12.84,101.39.21,1.25,3.95,1.48,4.78.95,2.28-1.43,10.76-46.5,11.56-52.51l19.33-145.74-58.98-55.45-8.33-1.07-70.83-.54-5.57,7.8c18.93.39,37.93-.51,56.85-.03,1.71.05,3.29.72,5.01.78,5.96.21,16.36-1.16,21.39,1.04,4.77,2.1,26.97,24.72,32.22,30.03,2.08,2.1,14.07,14.49,14.5,15.91,1.68,5.45-1.92,20.01-2.57,26.47-2.38,23.62-3.94,47.33-6.54,70.94v.02ZM638.25,522.38c-16,6.84-58.64,14.53-76.37,15.56-26.4,1.54-57.34-10.25-76.02-28.93-2.48-2.48-13.31-18.46-15.11-18.08-10.88,13.43-22.44,26.28-35.53,37.64-3.38,6.29-.2,16.18-5.06,21.73-3.44,3.92-19.68,13.39-24.81,15-3.56,1.12-7.12,1.1-10.9,2.13-10.2,2.79-24.74,12.72-34.55,12.57-8.75-.14-20.22-6.84-28.4-10.02-12.63-4.92-39-11.91-41.85-27.65-.91-5,.6-10.13-1.15-14.78l-32.99-34.37c-.85-.29-1.61-.24-2.38.24-.77.48-6.75,8.72-8.41,10.43-31.36,32.54-54.45,33.02-98.37,29.75-50.65-3.77-106.28-12.65-100.91-77,2.64-31.65,18.37-57.1,53.46-43.51,43.36,16.8,61.77,44.03,114.77,45.23,3.89.09,8.24,1.31,12.36-.68.8-1.13-.32-8.41-.6-10.35-2.61-17.51-8.44-35.75-11.88-53.28-7.73-39.36-12.45-79.42-17.58-119.2,7.08-8.69,14.91-17.02,23.15-24.65,3.77-3.49,27.05-23.94,29.67-24.63,5.34.02,11.08-.91,16.29-1.1,19.05-.69,42.68,2.14,60.87.06.8-.09,2.32-.23,2.51-1.15.09-.5-3.12-8.07-3.73-9.28-8.48-17.25-21.7-32.13-32.36-48.01-1.81-2.7-4.66-6.67-5.42-9.78-10.2-42.41,66.27-48.16,58.14-2.4,3.61,10.52,11.46,19.67,16.04,29.93,3.8.12,7.65,1.09,10.35-2.08,1-1.18,11.33-19.09,11.64-20.21,1.28-4.66-1.93-6.46-2.49-10.58-1.48-10.76,2.85-19.86,12.03-25.49,29.46-18.08,70.8,16.59,41.26,46.7-.69.71-2.51,1.13-3.8,2.37-5.48,5.21-12.1,19.94-16.39,27.05-4.2,6.94-10.07,13.33-12.77,20.96l.78,1.8c1.42.51,2.96.97,4.48.92,20.96-.57,45.17-2.76,65.94-1.51,5.6.33,12.07.95,16.6,4.39,9.06,6.88,31.21,26.74,37.67,35.44,2.34,3.15,1.98,5.21,1.78,9.06-.89,17.4-5.07,37.46-7.14,55.12-4.95,42.08-8.89,84.29-15.83,126.08-.23,5.04,12.07,7.12,16.12,7.38,33.51,2.08,77.91-36.52,108.97-48.83,14.31-5.67,32.65,1.22,40.66,14.31,18.94,30.96-.12,81.76-32.74,95.69v.02ZM398.64,229.93l-8.65,12.3c14.07,29.52,31.3,57.4,47.13,86.03,16.5,29.82,32.28,61.65,49.7,90.74,2.58,4.3,6.28,10.75,9.55,14.34.82.88,1.45,2.07,2.87,1.83,6.08-56.19,14.32-112.11,20.18-168.34l-.42-1.55c-10.49-11.36-23.36-20.13-34.88-30.32-1.21-1.07-1.83-2.84-3.34-3.91-2.37-1.69-11.53-2.04-15.17-2.2-17.48-.78-39.86-.97-57.26,0-3.23.18-6.49.89-9.73,1.13l.02-.03ZM229.33,439.4c1.66.41,3.67.24,4.59-1.37l98.63-172.12c1.37-2.76,7.47-15.12,7.47-17.16.02-3.05-7.83-18.31-10.35-19.38-.98-.42-1.96-.63-3.03-.57-21.55,1.46-45.38-1.83-66.66,0-12.89,1.12-22.44,14.78-31.45,22.84-8.15,7.29-16.56,14.38-24.99,21.34-.54,1.03-.42,2.13-.38,3.23.44,9,3.65,21.18,4.98,30.55,6.23,44.3,10.04,89.3,21.19,132.64l.02.02ZM427.58,524.2c-1.43-1.06-11.53,4.57-13.76,5.4-27.54,10.4-75.39,12.35-102.56.5-4.29-1.87-7.94-4.68-12.04-6.78-.59-.3-1.52-1.25-1.95-.21,6.19,9.4-1.39,20.57,9.18,27.74,16.07,10.93,68.1,10.64,87.28,7.17,6.02-1.09,25.57-6.29,28.22-11.59,3.11-6.2-.23-16.48,5.63-22.23h0ZM305.23,516.61c19.42,16.12,92.81,16.41,112.59,1.07,15.08-11.7-.44-18.93-11.79-22.23-17.36-5.06-38.02-6.25-56.05-5.06-11.68.77-40.68,4.53-47.63,14.62-3.26,4.74-1.06,8.35,2.88,11.61v-.02ZM466.75,483.29c-24.98-46.14-49.05-92.81-72.37-139.82-7.29-14.69-13.6-30.83-21.45-45.16-1.24-2.26-4.26-7.76-5.84-9.36-.6-.6-.66-1.03-1.77-.77-4.42,11.03-11.17,20.93-16.78,31.36-29.87,55.45-55.3,113.39-88.82,166.81-.53,1.87.85,3.05,1.78,4.47,3.52,5.28,10.04,12.6,14.4,17.45,1.45,1.61,8.48,9.63,9.39,10.16,1.16.68,1.95.88,3.29.69v-11.21c0-3.53,4.17-9.57,6.9-11.92,24.36-21.02,106.75-21.07,132.05-1.77,10.61,8.09,4.56,15.97,7.65,27.08,3.79-2.75,7.34-6.34,10.52-9.75,3.5-3.73,21.05-24.74,21.04-28.25h.02ZM659.14,430.57c-9.28-13.37-21.6-10.99-34.89-5.45-41.49,17.25-97.82,84.99-137.75,26.77-51.24-92.22-104.96-183.38-153.87-276.88-2.94-5.61-9.07-15.85-10.4-21.48-.8-3.43,2.11-6.4-1.96-8.14-4.5-1.92-10.87,2.05-11.4,6.69.39.47,5.93.06,5.06,1.81-1.37,2.78-12.03,4.32-12.92.59.59-9.55,15.98-19.26,24.15-13.98,8.29,5.36,1.09,10.37,2.13,15.23,33.75,66.36,69.55,131.73,105.97,196.66,11.43,20.38,22.71,41.6,34.74,61.53,8.95,14.84,18.41,30.25,33.07,40.06.89-.71.15-2.54-.2-3.43-2.4-6.22-10.14-18.78-13.79-25.3-7.74-13.82-16.35-27.2-24.13-41.02-26.88-47.65-53.49-95.46-79.39-143.64l39.09-70.66c1.16-1,2.07-2.93,3.03-3.85,3.44-3.31,6.13-2.99,8.07-8.93,6.02-18.52-22.55-31.79-36.78-20.86-5.39,4.14-7.92,12.32-5.19,18.7,1.58,3.68,3.76,1.87,2.16,6.49-2.96,8.53-16.18,29.99-21.48,38.62-1.03,1.68-4.17,7.76-6.02,7.61-9.28-13.69-16.65-28.68-24.84-43.06-1.49-2.61-5.48-7.58-6.29-9.69-.8-2.1,1.06-3.62,1.49-5.69.88-4.06.32-6.25-2.2-9.48-12.09-15.52-46.21-4.18-38.89,17.18,13.13,21.58,27.14,42.77,39.36,64.88,2.11,3.8,13.86,24.84,13.28,27.35-30.94,52.67-59.77,106.59-90.01,159.68-7.77,13.64-19.42,30.03-25.75,43.75-.74,1.61-1.36,3.17-1.16,5,9.63-1.57,14.81-9.96,19.85-17.43l100.34-180.92c.94.12,1.34,1.01,1.45,1.86.42,3.26-7.12,16.75-9.04,20.6-27.65,55.28-57.34,109.62-86.22,164.25-16.45,25.93-53.22,29.63-80.31,20.35-33.39-11.44-58.89-45.25-94.13-47.07-20.39-1.06-25.66,34.12-24.22,48.87,3.43,35.05,33.46,46.06,63.43,50.21,54.65,7.59,98.34,9.61,132.91-39.2,16.77-23.7,31.45-54.23,45.1-80.14,19.97-37.93,41.4-77.67,59.6-116.3,1.57-3.34,2.54-7.94,5.16-10.4-.05,1.15.35,2.16.82,3.17,6.99,14.96,16.5,30.44,24.18,45.32,24.16,46.79,46.76,96.81,72.61,142.4,27.39,48.28,60.39,65.58,116.21,58.77,21.78-2.66,55.81-7.21,71.81-23.03,15.2-15.03,20.53-50.53,8.17-68.32l.03-.06ZM411.5,159.53c3.06-9.37-3.58-5.25-5.61-12.12.77-2.6,14.91-1.24,13.69,3.47-.42,1.63-3.58,1.89-3.59,3.73-.05,3.83,8.2,2.82,9.99.92,1.99-2.11.82-7.18-.65-9.46-5.04-7.82-21.11-9.37-26.26-1.18-4.71,7.5,5.96,9.7,5.27,15.33-.29,2.35-3.37,7.55-4.57,9.99-8.32,16.81-17.64,33.2-26.14,49.93l2.23,5.06c10.75-22.5,23.36-44,35.66-65.67h-.02ZM274.11,349.01c-17.6.48-35.41-1.27-52.84,1.45l-1.46-7.97,29.36.75c7.11-1.54,14.47-.32,21.69-.75,1.49-.09,9.77-.85,9.77-1.8-.88-1.31-1.92-1.03-3.21-1.12-14.61-1.09-34.41-.51-49.29,0-2.75.09-5.64,1.28-8.6.8l-1.13-5.1,49.58-.74,14.13-1.45c.21-.72-3.08-1.43-3.26-1.43h-61.17v-4.35h27.15c.54,0,2.11-1.19,3.26-.72l-1.09-2.17h-18.82c-1.03,0-6.44.75-7.65,1.03-1.43.33-2.34,1.21-3.56,1.86l-.72-7.24h30.77c.38,0,1.51-1.16,2.54-.72.23.21-2.2,6.55.35,5.78,4.03-1.24,11.23-10.52,15.17-10.13,3.79.36,11.55,10.96,17.05,9.42,1.21-1.15-8.07-15.55-7.15-18.34.29-.86,12.57-8.89,14.64-10.76.71-.65,1.55-.65,1.21-2.04l-21.64-.08c-.44-5.03-3.47-10.05-4.39-14.79-.41-2.14.92-.33,1.07-.33h13.75c1.13,0,4.21-1.51,6.14-.72v-1.45h-21.72l-1.07-2.88-1.54,2.93-40.81,2.85c-.17,1.27,1.65.68,2.52.71,5.8.24,11.65-.57,17.36.75l20.68-1.1c-1.18,2.88-2.11,13.49-4.11,14.72-3.28,2.02-13.24-.06-17.88,1.69-1.06.39-.95,1.87-1.69,2.05-4.33,1.13-13.4-.88-18.32,0-.06.47.97,1.43,1.09,1.43,5.13,0,11.76.54,16.65,0,.21-.03.6-.92,1.07-1.07,1.98-.62,12,7.35,14.17,9.03l-2.54,10.53-33.34,1.04-4.92-43.65c9.07-8.57,18.93-16.27,28.09-24.75,4.53-4.2,12.23-13.82,16.68-16.63,1.28-.82,2.34-1.27,3.91-1.15l65.56.39c1.84,4.57,8.84,12.56,8.63,17.33-.12,2.73-6.13,13.67-7.8,16.84-18.7,35.29-40.25,70.17-60.34,104.73-10.64,18.31-21.1,36.78-31.05,55.48l-2.58-1.06-11.14-74.21c10.29,1.87,21.11.24,31.53-.03,5.74-.15,8.89.98,15.41-.44,1.65-.36,4.94-.95,5.9-2.41h0ZM220.18,289.63c-1.07.18-2.23.05-2.54,1.45,11.08,1.81,22.2-.03,33.29-.72-1.13-4.5-7.58-2.23-10.5-2.17-7.09.12-13.22.32-20.27,1.45h.02ZM246.61,254.16c13.36-.41,26.85.54,40.21.03,1.54-.06,2.9-.66,4.32-.74,3.43-.21,8.98,1.18,11.21-1.45-2.35.33-4.56-.62-6.85-.75-10.78-.65-37.78-1.28-47.33,1.27-1.3.35-1.87-.21-1.55,1.66v-.02ZM290.75,267.93c-19.55.57-39.45-1.12-58.91.82-.94.09-2.64.39-3.35,1-.02.75,8.39,1.72,9.78,1.8,17.12,1,34.43.32,51.39-2.19,1.27-.18,1.22.38,1.09-1.43v.02ZM296.08,261.29c1-.17,3.94-.21,4.09-1.33-1.86.05-3.58-.69-5.43-.78-13.84-.68-47.09.47-60.13,3.65-1.22.3-2.11-.71-1.75,1.46,20.99-.05,42.5.51,63.22-3h0ZM292.94,318.6h-11.58c1.69,2.29,9.78,2.34,11.58,0ZM275.56,325.84l-6.88-1.51-12.66,1.51h19.55ZM394.31,242.2l7.74-9.77c23.45.54,47.07-1.18,70.41,1.13,14.34,10.08,27.41,20.89,38.97,34.14.89,4.84-.85,9.6-1.3,14.34-.17,1.68.17,3.38,0,5.06-.39,3.65-3.38,27.88-4.27,29.04-.6.8-1.61,1.03-2.58,1.04l-25.01.69c.27,1.33,1.42,1.34,2.51,1.46,8.23.98,16.72,1.06,25.01,1.42l.03,2.43c-.53,2.26-24.59.8-28.16,1.09l-5.78-17.48,15.09-12.1-19.58-1.06-3.59-13.42c11.32.63,22.44-.51,33.67-1.45,3.67-.3,7.27.41,10.88-.71,1.1-.35,2.01-.12.71-1.48-2.32-2.43-40.28,1.22-46.26.06-.62-.17-1.86-8.63-3.34-.05h-36.92c-.17,1,1.28,1.1,1.99,1.25,8.03,1.75,17.02,1.36,25.17,1.61,3.09.09,5.71,1.6,9.01.03l-4.42,13.66-22.35.09,16.98,12.99-6.85,18.85,18.46-11.32,13.39,9.87c-7.12-.05-14.23-1.24-21.39-.74-1.1.08-4.3.17-4.68,1.46l57.19,2.9c.74,6.78-3.56,3.71-7.58,3.59-12.6-.39-24.96.56-37.31,2.93-.32.72,1.69,1.43,1.81,1.43h41.63l-.11,4.6-1.09,1.09c-11.73,1.45-23.82-.71-35,3.73-.06,1.06,2.61,1.28,3.34,1.36,10.41,1.06,20.95.78,31.41.8v4.35h-48.16l-59.71-108.98.03.05ZM489.84,288.2v-.71c-1.93.69-4.11-.62-5.43-.72-4.78-.39-10.01.29-14.84,0v1.45h20.27v-.02ZM439.9,254.89l42.91-1.61,5.6-1.99c-5.27-1.75-10.46-.18-15.53.02-10.13.41-20.31.63-30.37,2.2-.75.12-2.7.29-2.6,1.37l-.02.02ZM433.38,262.5c0,.32,5.27,1.06,6.13,1.12,9.77.6,23.59.59,33.36,0,2.35-.14,7.67-.41,9.03-2.19-7.8-.86-15.68-.92-23.56-.75-1.71.03-3.29.72-5.01.78-6.67.26-13.42-.69-19.95,1.06l.02-.02ZM430.48,269.72c.82,1.19,1.98,1.04,3.21,1.13,19.67,1.33,50.05,1.57,68.94-3.56,1.24-.33,2.02.51,1.66-1.55l-73.83,3.97.02.02Z"/>
  <g>
    <path class="st2" d="M409.82,377.26c2.02,0,3.74-.39,4.06-3.24.71-6.5-.12-6.79-3.24-6.79h-1c-.78,0-1.68-.02-2.69-.11-4.84-.42-9.6-.48-14.46-.75-.5-.05-.97-.05-1.43-.05l.02.03c-2.29,0-4.2.32-6.57.63h-.11c-.44,0-.94-.35-1.3-.35h-.05c-2.22.17-1.58,8.57-.74,9.93.36.57,1.22.74,2.31.74,1.65,0,3.82-.39,5.52-.39.78,0,1.48.08,1.98.33v40.9c0,1.52,2.82,2.26,5.63,2.26,2.16,0,4.29-.42,5.15-1.25l.2-39.98c.91-1.71,2.52-1.98,4.24-1.98.83,0,1.68.06,2.48.06Z"/>
    <path class="st2" d="M448.81,367.24c-1.03-.29-4.35-.8-6.49-.8,0,0-1.43.09-1.72.27-1.31.86-.56,11.41-.65,13.83-.05,1.13-.5,2.1-.54,2.99-.06.89.65,1.87.45,2.67-.39,1.57-4.94,2.04-7.79,2.04-.78,0-1.45-.03-1.86-.09-2.51-.38-.17-17.6-1.52-20.31-.48-.95-1.06-1.24-1.66-1.24-.83,0-1.75.51-2.69.54-.42.02-.85.02-1.27.02-1.27,0-2.55-.05-3.83-.05h-1.07v51.77c0,.94,3.91,1.25,6.87,1.25,1.65,0,2.99-.09,3.2-.24,1.55-1.09.51-15.39.78-18.41.21-2.41.5-3,.98-3s1.18.54,2.25.54h.03c.8-.02,2.99-.57,4.68-.57,1.07,0,1.95.23,2.13.95-.32,2.49.8,4.84.86,7.15.06,2.51-.95,4.56-.8,7.26.05.83.82,5.06,1.07,5.46.33.54,2.58.83,4.74.83s4.32-.27,4.72-.85c1.93-2.75.29-4.66.32-6.9.14-12.62,0-24.96-.05-37.64,0-2.31,2.34-6.47-1.15-7.47Z"/>
    <path class="st2" d="M276.19,444.6c1.4,0,2.99-.68,4.08-.68,1.01,0,2.22.65,3.58.68,3.37.06,6.75.09,10.14.09,8.12,0,16.27-.18,24.28-.48,1.43-1.15,2.01-2.55,2.19-4.33.35-3.12.44-11.55,0-14.52-.36-2.41-4.06-3.26-7.73-3.26-2.75,0-5.46.47-6.76,1.1-2.57,1.25.24,5.42-4.74,6.13-.38.05-.75.08-1.1.08-1.69,0-3-.53-4.53-.54h-.03c-.92,0-2.63.62-4.04.62-.78,0-1.48-.2-1.89-.8-.97-1.42.14-4.08.59-5.66,6.13-5.04,12.63-9.83,18.67-14.99.95-.8,1.3-2.08,2.19-2.88,1.65-1.49,4.36-2.54,5.72-3.7.48-.42,3.37-4.66,3.5-5.19.54-2.02.44-14.05,0-16.36-.57-3.05-2.11-2.99-3.49-4.45-1.4-1.49-2.73-2.85-4.11-4.24-1.8-1.81-2.32-3.59-5.69-4.09-2.08-.3-6.09-.45-10.1-.45-4.01,0-8.01.15-10.1.45-1.21.18-2.48.94-3.53,1.54-2.28,1.31-8.59,7.71-9.51,10.04-1.03,2.6-1.09,9.72,2.28,10.72.57.17,1.58.24,2.81.24,3.14,0,7.58-.51,9.01-1.21,2.08-1.01,1-3.61,1.77-4.75.56-.85,1.74-1.09,3.05-1.09,1.84,0,3.94.48,4.97.48,1.52,0,3.15-.69,4.45-.69s2.19.63,2.46,3.12c.35,3.14.41,7.46-1.81,9.84-4.5,4.83-11.91,9.6-17.07,14.07-1.31,1.13-1.89,2.61-2.93,3.59-2.11,1.96-6.05,3.97-8.27,6.2-.44,1.51-.97,3.14-1.1,4.69-.24,2.66-.33,17.79.36,19.2.57,1.16,1.46,1.49,2.45,1.49Z"/>
    <path class="st2" d="M332.59,434.24c.8,1.83,2.11,1.75,2.85,2.58,2.19,2.48,5.15,6.81,8.68,7.61.92.21,1.84.29,2.73.29,3.05,0,5.96-.95,8.71-.95,2.52,0,5.36.95,8.1.95,1.57,0,3.11-.32,4.54-1.28,2.31-1.55,8.36-7.55,9.6-9.95.65-1.27,1.18-3.06,1.31-4.48,1.48-15.05-1.09-32.45-.06-47.75-.39-1.61-.86-3.32-1.8-4.72-.77-1.15-4.98-5.84-6.1-6.93-1.49-1.45-4.75-3.26-6.87-3.26h-.03c-1.39.02-2.73.83-4.35.83h-.09c-3.56,0-8.57-.69-12.24-.83h-.26c-5.67,0-11.08,7.46-14.76,11.08-1.16,10.08-.45,20.41-.51,30.61-.03,4.23.24,8.71.02,13.06-.24,4.59-1.61,8.35.51,13.16ZM347.2,400.73c.06-4.14.39-8.86.66-12.99.08-1.19-1.43-4.47,1.28-5.33.71-.23,7.12-.65,9.7-.65.44,0,.77.02.94.05.88.14,3.37,1.78,3.37,2.32v43.44c-.29,1.06-1.18,1.31-2.1,1.31s-1.9-.26-2.45-.26h-.14c-1.96.2-4.29.86-6.43.86-1.8,0-3.47-.47-4.71-2.04-.06-8.89-.26-17.81-.14-26.71Z"/>
  </g>
  <g>
    <path class="st0" d="M576.78,117.06c-1.66-2.02-9.49-6.67-9.49-8.75,0-.48,4.03-5.75,4.68-6.2.85-.59,1.37-.81,1.75-.81.86,0,.85,1.19,1.61,1.84,2.01,1.69,7.95,7.53,10.81,7.53.26,0,.5-.06.71-.17.38-.2,5.1-6.11,5.1-6.55,0-1.18-4.75-4.65-6.13-5.84-3.09-2.7-10.26-9.21-13.46-10.84-.31-.16-.54-.3-.79-.3-.19,0-.37.08-.61.29-8.39,10.6-17.76,20.54-26.04,31.21-1.37,1.77-5.64,6.4-4.77,8.29,5.31,3.64,9.93,8.78,14.91,12.65.92.72,4.15,2.99,5.48,2.99.11,0,.21-.02.3-.06.66-.3,5.09-6.02,4.94-7.06-.32-2.19-9.15-8.32-11.4-10.04l.26-2.08c2.66-1.58,2.91-5.74,5.36-5.74.51,0,1.15.2,1.92.65,4.03,2.37,6.29,6.38,8.78,6.38,1.71,0,3.52-1.87,6.08-7.38Z"/>
    <path class="st0" d="M131.71,168.3c1.04,0,2.2,1.21,3.85,1.21.53,0,1.1-.12,1.74-.45,1.09-.56,5.18-6.28,4.3-7.5l-43.95-21.63c-.1-.03-.22-.03-.34-.03-3.22.01-9.69,7.64-5.47,10.25l29.28,37.32,1.77-.35c.21-2.82,4.94-5.04,4.2-7.74-.29-1.06-2.04-1.58-2.07-3.02-.05-2.08,4.45-7.61,6.44-8.03.08-.03.17-.03.26-.03ZM117.4,166.57l-6.17-7.95c3.91,1.3,14.16,4.14,6.17,7.95Z"/>
    <path class="st0" d="M412.82,700.1h.06c1.22,0,12.6-2.19,13.25-2.54,1.48-.78,5.09-6.64,5.12-8.68l-6.02-29.49c-1.04-2.28-6.64-6.16-9.25-6.16h.02c-.08,0-.15,0-.23,0-.78.08-1.6.97-2.45,1.09-8.04,1.16-11.77,1.13-14.73,9.95l6.02,30.23c.78,1.74,6.32,5.42,8.21,5.6ZM414.95,662.94c.75,0,1.36.12,1.61.41l5.24,25.91-8.27,1.48v.02s-.01-.02-.01-.02h.01s-5.41-25.64-5.41-25.64c.27-.94,4.41-2.16,6.84-2.16Z"/>
    <path class="st0" d="M584.69,164.77c5.36-3.85,10.5-11.36,16.18-14.26,3.83-1.96,26.43-8.14,27.27-9.3-.02-1.27-5.8-7.86-6.29-7.98-.14-.05-.29-.05-.45-.05-3,0-12.36,4.48-14.02,4.48-.11,0-.23-.06-.23-.06l5.07-14.1c-.06-.6-4.74-6.16-5.48-6.85-.47-.42-.6-.8-.95-.8h0c-.2,0-.44.11-.85.38-2.41,1.61-9.66,23.47-12.26,27.36-2.26,2.61-15.33,12.71-15.88,14.79-.35,1.36,3.82,6.81,6.67,6.81.44,0,.85-.14,1.21-.42Z"/>
    <path class="st0" d="M663.23,315.03l34.08-7.24c1.36-2.9,4.92-6.01,5.13-9.19.14-1.92-1.58-10.52-2.29-12.57-1.66-4.81-7.12-7.12-12-7.12h0c-.51,0-1.04.02-1.54.08-6.97.74-18.2,3.43-25.2,5.21-1.93.48-4.92,1.01-6.44,2.23-1.39,1.12-4.92,6.94-5.1,8.71-.11.97,3.11,14.55,3.56,15.18,1.21,1.68,7.61,4.72,9.81,4.72ZM661.93,294.85l27.32-5.86c1.03.26,3.18,8.74,1.71,9.89l-27.67,5.98v.02c-.66-.08-4.57-9.19-1.36-10.02Z"/>
    <path class="st0" d="M521.07,649.07c-.12-1.55-6.47-11.83-7.82-12.51-1.15-.56-6.28-1.61-8.12-1.61-.14,0-.26.02-.35.02-2.81.36-7.03,5.15-9.77,5.15-.11,0-.23-.02-.33-.03-.41-.06-4.5-5.9-3.77-7.29.26-.53,4.14-3.02,4.8-3.24.59-.2,1.09-.29,1.51-.29,2.02,0,2.35,1.99,3.62,1.99h.11c1.28-.11,6.35-4,5.95-5.75-.09-.39-1.72-3.02-2.07-3.34-1.31-1.18-6.63-2.45-8.63-2.45h.03c-.08-.01-.14-.01-.2-.01-1.65.09-10.88,5.16-11.98,6.37-2.08,2.29-2.04,6.41-2.76,9.3,5.64,9.52,10.96,19.61,17.99,28.09h.18c2.37,0,5.03,1.9,7.17,1.9h.23c1-.08,11.21-6.57,12-7.58,1.34-1.74,2.4-6.54,2.22-8.71ZM511.44,652.22c-.47.77-5.18,3.08-7,3.08h-.02c-.12,0-.24,0-.33-.03-.68-.17-3.61-5.58-3.31-6.76.27-1.09,5.03-4.08,6.47-4.08.08,0,.14.02.18.02,1.4.35,4.86,6.32,4,7.77Z"/>
    <path class="st0" d="M534.49,86.32c2.52-1.83,20.47-9.99,20.51-11.33-1.86-1.37-6.85-5.33-8.98-5.33h-.08l-14.82,7.14c.75-3.28,6.84-9.03,6.55-11.92-.14-1.45-4.9-4.55-7.67-4.56-.61,0-1.1.15-1.45.51l-24.84,41.1c-.14,1.68,6.29,5.34,8.63,5.34.26,0,.47-.05.62-.15.56-.39,5.6-10.11,6.72-11.74.5-.74,1.12-1.74,2.04-1.93,0,4.94-3.5,17.76.47,20.9.83.65,5.37,2.96,6.4,3.02.21.02.39.02.53.02.92,0,.38-.29.56-1.15,1.61-7.7.85-18.19,2.22-26,.33-1.92,1.07-2.81,2.6-3.91Z"/>
    <path class="st0" d="M632.08,207.18h.05c1.69,2.32,3.46,4.78,4.98,7.21.63,1.03.74,2.82,1.31,3.4.88.88,8.59,2.4,10.78,2.4h.3c3.43-.36,11.56-7.21,15.52-8.41,2.02-3.09,3.55-7.85,2.88-11.52l-10.17-18.41c-.3-.12-.59-.17-.88-.17v-.03c-.65,0-1.27.24-1.9.48-7.5,2.79-20.83,12-28.51,16.38-1.86,1.06-12.33,5.87-12.71,6.47-.6.95,2.13,9.1,5.24,9.1.17,0,.32-.02.48-.06,2.02-.57,11.12-6.85,12.63-6.85ZM652.51,195.63h.08c1.92,0,4.8,6.31,5.12,8.15l-11.04,6.17h0s-.02,0-.02,0h.01s-4.66-7.56-4.66-7.56c0-1.24,9.12-6.63,10.5-6.76Z"/>
    <path class="st0" d="M466.07,76.63c-.56,3.26,2.87,10.13,5.87,11.89,1.16.68,9.9,4.14,10.99,4.26.35.05.69.06,1.07.06,4.92,0,11.7-3.32,12.12-8.56.23-2.81-5.36-4.62-7.77-4.62h-.35c-1.99.18-1.72,2.88-3.58,2.93-.94,0-7.35-3.26-7.53-4.06l11.5-26.76c.09-.05.23-.06.38-.06,1.86,0,8.01,2.96,8.2,3.79.18.82-.94,2.25-.56,3.46.29.92,6.22,3.44,8.51,3.44.36,0,.62-.05.77-.18.24-.21,2.26-5.27,2.23-5.98-.06-1.63-3.29-8.9-4.66-9.87-.94-.65-12.29-5.67-13.12-5.77h-.18c-1.69,0-7,2.14-8.36,3-5.6,3.52-11.32,26.61-15.53,33.02Z"/>
    <path class="st0" d="M429.62,32.13c-2.41,5.63-5.6,19.95-6.88,26.41-.38,1.96-1.1,4.36-.98,6.29.17,2.58,3.68,8.09,5.9,9.36,1.3.74,12.6,3.31,14.58,3.31h.14c2.37-.23,7.88-4.14,8.92-6.34l8.15-33.76c-1.25-2.85-3.21-7-5.86-8.68-2.45-1.57-9.92-3.34-14.13-3.34v.02c-.75,0-1.42.05-1.92.18-2.48.63-6.88,4.11-7.92,6.55ZM440.23,35.7c2.11,1.1,8.06.92,8.38,3.82l-6.61,27.08c-.14.12-.45.17-.89.17h0,0c-2.37,0-8.35-1.45-8.5-1.98.24-3.58,6.05-28.8,7.62-29.08Z"/>
    <path class="st0" d="M642.22,266.51c1.3,1.31,7.26,3.49,9.57,3.49.15,0,.29-.02.41-.03,9.33-4.3,21.63-6.94,30.62-11.43,2.91-1.45,6.07-8.03,5.89-11.15-.06-1.01-3.65-11.06-4.29-12.24-1.54-2.87-7.65-5.52-11.27-5.52h0c-.38,0-.72.03-1.04.09-3.95.75-25.73,9.06-29.49,11.08-3.09,1.66-6.85,8.1-6.52,11.5.08.77,5.58,13.66,6.13,14.22ZM647.64,250.16l27.48-9.71s0,0,0,0h.02-.01c-.22,2.54,4.44,7.61,1.72,9.43l-24.83,9.09c-.12.03-.24.05-.38.05-2.7,0-5.61-7.35-4-8.84Z"/>
    <path class="st0" d="M394.61,68.18c.35.48,3.55,1.19,6.2,1.19,1.63,0,3.05-.27,3.5-1.01,1.39-2.26.57-6.01.85-8.56.57-5.25,4.77-38.21,3.31-40.24-.5-.68-4.57-1.39-7.17-1.39-.92,0-1.66.09-1.98.3-1.49,1.04-.89,16.25-2.45,18.55-.38.54-1.98.77-3.73.77-2.34,0-4.94-.39-5.27-.92-.35-.56-.17-6.82-.09-8.21.45-8.56,3.77-12.19-4.21-12.19v.02c-1.36,0-3.05.11-5.15.32l-4.35,48.7c.41,1.19,4.32,1.99,7.02,1.99,1.07,0,1.96-.12,2.37-.41,2.49-1.74,1.28-16.71,2.78-18.81.27-.39,1.21-.54,2.38-.54,2.49,0,6.08.68,7.15,1.27.72,4.3-2.72,17.01-1.18,19.17Z"/>
    <path class="st0" d="M474.46,681.82c.97-2.81,3.86-6.25,3.49-9.25-3.97-7.58-6.57-21.19-11.26-27.85-1.37-1.95-6.64-4.72-9.04-4.72h-.02c-.92,0-10.63,3.71-11.59,4.35-2.14,1.4-4.94,7.2-4.68,9.72l11.53,29.07c.88,1,7.65,3.88,9.06,3.88h.05c2.19-.11,9.31-4.98,12.47-5.19ZM461.11,677.05h-.02c-.33,0-.62-.06-.83-.2-1.03-.63-7.56-19.82-9.01-22.52-1.22-2.32,3.89-4.57,6.54-4.57.6,0,1.07.12,1.31.38,1.12,3.41,10.1,22.71,8.95,24.54-1.46.42-5.01,2.37-6.94,2.37Z"/>
    <path class="st0" d="M380.89,704.44c.65-.03,1.63-.53,1.81-1.09v-11.21c0-.33-1.86-.63-3.88-.63-1.9,0-3.95.27-4.8,1.01-.92.82-.62,2.69-1.92,3.15-.5.18-1.15.24-1.86.24-1.4,0-3.08-.23-4.47-.23-.42,0-.82.02-1.18.08l.69-3.29,16.54-15.32c-.02-3.37.72-7.95-.17-11.14-.09-.33-4.39-5.07-4.77-5.34-1.24-.91-5.28-1.28-8.98-1.28v-.03c-2.66,0-5.13.2-6.25.53-2.82.85-7.09,5.78-7.26,8.74-.06.91.33,3.79,1.25,4,.32.08,1.18.11,2.22.11,2.1,0,4.89-.15,5.31-.45,1.13-.82.17-3.18,1.1-3.35,1.86-.32,3.5-.56,4.83-.56,3.4,0,4.78,1.58,2.75,7.52l-16.13,14.99c-1.07,4.57-.77,9.7.23,14.23l24.92-.66Z"/>
    <path class="st0" d="M47.88,257.74c3.03-.27-1.54-11.09-2.73-12.09-.32-.26-7.09-2.67-7.7-2.73h-.24v-.02c-3.53,0-4.12,6.96-4.12,9.75l14.79,5.09Z"/>
    <path class="st0" d="M205.48,53.37c-.6,3.15,15.32,33.01,16.89,38.62,3.08,2.02,6.08,3.44,9.45,3.44,1.31,0,2.69-.21,4.14-.69,1.19-.41,9.24-4.04,9.92-4.56,2.23-1.68,5.16-9.12,4.01-11.95l-16.48-36.72c-.33-.35-.86-.5-1.49-.5-2.84,0-7.87,2.96-7.74,4.95l15.09,34.29c.39,2.16-4.36,4.29-7.21,4.29-.75,0-1.37-.15-1.74-.48l-15.88-34.09c-.24-.26-.63-.36-1.12-.36-2.52,0-7.7,2.94-7.85,3.77Z"/>
    <path class="st0" d="M267.89,654.55c.23.29,6.14,2.85,6.61,2.85,5.21-.08,2.88-12.18-1.13-14.81-.98-.65-11.71-4.72-12.57-4.72l-.03.02c-1.22.08-6.75,2.97-7.67,3.95-.89.95-5.46,11.2-5.46,12.33,0,.83,3.05,8.51,3.49,8.86l9.86,3.89c.51.82-1.84,7.55-2.17,7.79-.21.15-.56.23-.98.23-2.32,0-7.11-2.07-7.44-3.47-.18-.74.86-1.77-.08-2.85-.29-.33-5.19-2.99-5.64-3.05-.18-.05-.36-.05-.53-.05-5-.02-2.78,11.62-.24,14.14.47.47,10.99,4.91,11.97,5.12.11.03.23.03.38.03,2.23,0,8.78-2.52,9.69-3.71.35-.45,4.26-9.73,4.41-10.44.66-3.15-1.1-9.3-3.79-11.09-1.55-1.03-8.2-2.72-8.77-3.55-1.22-1.77,2.25-8.63,4.18-8.63h.09c.32.03,5.43,2.85,5.63,3.11,1.31,1.61-.44,3.2.21,4.06Z"/>
    <path class="st0" d="M222.08,635.89c-.29-1.16,3.24-6.43,4.01-6.66.11-.03.23-.05.36-.05,2.64,0,9.28,6.49,11.82,6.49h.03c1.45-.03,6.32-6.08,4.5-7.77-3-.86-16.71-11.47-19.17-11.47-.09,0-.15,0-.21.03-8.56,11.7-16,24.24-23.54,36.57l-.29,2.13,7.38,3.7c2.26,1.78,8.87,6.99,11.36,7.67.09.03.17.03.26.03,2.05,0,6.04-5.84,4.12-8.07-2.6-3.03-11.17-4.29-9.81-9.07,1.04-3.62,2.38-4.83,3.88-4.83,3,0,6.64,4.89,9.66,4.89.47,0,.91-.11,1.34-.38.65-.41,3.82-5.54,3.68-6.46-.17-1.09-8.87-4.69-9.39-6.75Z"/>
    <path class="st0" d="M194.49,116.99c-.02-1.58-8.98-13.64-10.53-16.27-.56-.97-1.42-1.48-1.04-2.93l19.33,13.63c.14.06.3.08.5.08,1.93,0,6.41-2.22,7.46-3.05.57-.47,1.9-2.66,1.33-3.38l-27.65-40.52h0l-7.4,4.42c-1.46,2.52,12.51,19.02,11.47,20.15l-20.27-13.46c-2.63.91-9.95,3.88-7.4,7.47l25.49,38.95c.29.21.66.3,1.07.3,2.73,0,7.65-4.08,7.64-5.39Z"/>
    <path class="st0" d="M334.98,67.78c2.17-8.18.21-10.16-3.5-10.16-3.44,0-8.39,1.71-12.9,1.71h-.21l-5.3-37.78c-.3-1.37-1.75-1.9-3.5-1.9-3.11,0-7.14,1.68-7.17,3.14l6.79,47.53,2.16.63,23.64-3.17Z"/>
    <path class="st0" d="M288.81,75.92c1.46,0,7.73-2.1,7.76-3.79l-23.53-43.1c-.59-.62-1.31-.8-2.07-.8l.02-.02c-.69,0-1.43.15-2.11.24-.65.09-5.39,1.45-5.63,1.63-2.22,1.65.53,22.13.74,26.1.39,7.47-.26,15.76.69,23.2.18,1.43.48,2.37,1.84,3.08,1.65-2.07,6.25-1.69,7.64-3.09,1.89-1.89-1.34-5.42,5.18-7.12,1.25-.33,2.28-.47,3.11-.47,4.54,0,3.67,4.14,6.37,4.15ZM278.45,62.32h-4.35l-.71-10.14c1.84.83,6.14,9.04,5.06,10.14Z"/>
    <path class="st0" d="M173.17,131.84l-32.75-35.38c-.47-.12-.85-.18-1.16-.18v-.02c-1.61,0-1.45,1.54-2.49,2.29-1.16.85-4.41,1.74-3.73,4.51.54,2.26,13.04,12.78,14.4,16.44-4.41-.47-18.65-10.05-23.03-10.05-.27,0-.5.03-.69.11-.39.15-4.71,5.46-5.92,6.07l33.02,37.1c.14.03.27.05.41.05,2.51,0,7.2-5.04,6.76-7.26-.29-1.45-15.32-15.52-14.17-16.6,6.63,2.13,14.9,8.51,21.21,10.31.39.12.82.18,1.25.18.71,0,1.4-.17,1.93-.56.47-.36.66-1.4,1.28-1.95,1.51-1.31,4.42-2.26,3.68-5.06Z"/>
    <path class="st0" d="M706.91,329.96c-.41-1.1-1.22-1.28-2.14-1.28-.45,0-.94.05-1.42.05h-.32c-1.03-.05-2.14-.08-3.34-.08l-.02.02c-9.46-.02-23.45,1.48-32.1,2.26-1.68.15-10.79,1-11.12,1.54l1.71,25.24c.54,1.1,1.63,1.43,2.91,1.43,2.01,0,4.53-.83,6.23-.83.2,0,.39,0,.56.03,1.55-1.3-1.58-14.26.26-16.39,1.75-2.01,37.82-1.63,39.33-3.74.8-1.12,0-6.81-.54-8.24Z"/>
    <path class="st0" d="M56.27,295.7c-1.01-2.93,2.37-9.48,1.98-12.06-.08-.51-4.47-7.59-4.98-8.07-.77-.72-2.37-1.34-3.41-1.66-2.26-.68-13.25-3.15-15.56-3.15v.02h-.18c-1.55.14-8.33,4.14-9.1,5.43-1.27,2.13-1.69,8.18-2.29,10.75-.8,3.43-2.73,6.91-2.64,10.99l.62.77,48.49,11.2c.17-1.98,2.81-8.1,1.9-9.42-1.3-1.87-14.1-2.7-14.82-4.78ZM45.28,293.19c-.11.08-.36.12-.75.12l.02.03c-2.66,0-11.06-1.8-11.4-2.32-.65-1.01.26-8.26,1.3-9.01.18-.14.59-.2,1.15-.2,3.12,0,10.99,1.81,11.64,2.75l-1.95,8.63Z"/>
    <path class="st0" d="M308.56,663.01c1.95,0,4.11,1.31,5.78,1.31.47,0,.88-.09,1.25-.35.98-.66,2.34-7.37,1.9-7.97-.63-.88-18.32-4.95-20.93-5.49-.97-.2-2.37-.71-3.52-.71-.65,0-1.22.17-1.58.65-.59.78-2.07,6.38-1.8,6.99,1.22,2.64,8.29,1.13,8.2,4.53-.83,4.39-9.06,31.66-7.73,33.7.27.42,3.79,1.54,6.17,1.54,1,0,1.78-.18,2.08-.69l8.21-32.9c.6-.44,1.27-.6,1.96-.6Z"/>
    <path class="st0" d="M98.2,226.23c.08-1.16-3.14-9.72-3.8-10.26-.51-.42-11.4-5.48-12.1-5.66-.32-.09-.72-.12-1.19-.12-2.97,0-8.53,1.49-10.02,2.72-2.49,2.04-3.55,10.85-7.06,10.85h-.14c-.82-.05-6.9-3-6.99-3.38-.35-1.43,2.38-7.68,3.05-8.09.26-.15.59-.2.98-.2.63,0,1.42.14,2.19.14.82,0,1.6-.14,2.17-.74.24-.26,3.08-5.99,3.14-6.34.42-2.52-2.26-3.62-5.67-3.62v-.03c-4.27,0-9.67,1.74-11.52,4.59-.82,1.27-5.12,11.05-5.21,12.23-.15,2.22,2.08,8.59,3.71,10.08.68.63,10.46,5.57,11.53,5.86.41.12.94.17,1.54.17,3.08,0,8.06-1.34,9.72-2.69,1.87-1.51,4.94-10.44,5.49-10.79.09-.06.27-.09.48-.09,1.75,0,6.73,1.86,7.41,2.52,1.86,1.8-1.18,8.27-2.34,8.92-1.07.6-4.32-.27-5.46,1.06-.2.21-2.31,5.01-2.35,5.3-.53,3.38,2.34,4.44,5.69,4.44,2.97,0,6.32-.83,8.07-1.6,4.54-2.01,6.07-11.11,8.68-15.24Z"/>
    <path class="st0" d="M14.54,351.2l49.67,3.31c.86-.62,2.64-19.06,2.48-21.07-.27-3.46-6.75-9.19-10.19-9.69-1.15-.17-7.06-.69-8.78-.69-.18,0-.32.02-.39.02-2.49.44-3.85,4.03-5.9,4.03-.5,0-1.04-.23-1.66-.75-1.16-1.01-1.4-3.05-3.79-3.79-1.46-.45-5.75-.89-9.07-.89v.02c-1.69,0-3.12.12-3.82.39-.8.32-4.59,3.35-5.28,4.12-4.14,4.63-2.55,9.58-2.87,15.23-.14,2.26-2.01,8.24-.39,9.78ZM46.08,333.81c1.66-.17,3.08-.27,4.27-.27,5.66,0,6.4,2.22,4.45,10.08-1.8.33-3.26.5-4.47.5h0,0c-5.46,0-5.33-3.4-4.26-10.31ZM26.49,331.94c9.7.11,11,.95,7.89,10.46-1,.06-1.92.09-2.75.09h0,0c-6.93,0-7.98-2.28-5.15-10.55Z"/>
  </g>
</svg>