<?xml version="1.0" encoding="UTF-8"?>
<svg id="Layer_1" xmlns="http://www.w3.org/2000/svg" version="1.1" viewBox="0 0 720 720">
  <!-- Generator: Adobe Illustrator 29.4.0, SVG Export Plug-In . SVG Version: 2.1.0 Build 152)  -->
  <defs>
    <style>
      .st0 {
        fill: #041e42;
      }

      .st1 {
        fill: #fff;
      }

      .st2 {
        fill: #b9975b;
      }

      .st3 {
        fill: #c8102e;
      }
    </style>
  </defs>
  <path class="st2" d="M645.87,437.32c5.83,7.23,8.2,16.54,7.62,25.73-.18,2.9-1.01,10.47-3.44,11.76-5.45,2.88-19.62,6.85-26.11,8.63-29.13,8.06-60.46,10.81-90.65,11.06-.14-1.06,1.9-1.3,2.6-1.37,29.39-3.11,55.62-4.97,84.28-13.46,1.93-.57,34.25-11.09,31.14-13.39-19.94,4.97-39.56,11.41-59.95,14.97-15.29,2.67-30.19,3.35-45.44,5.25-1.43.18-1.04-.17-1.03-1.39,26.17-2.97,53.16-8.9,77.83-18.1,3.65-1.36,15.21-5.66,17.72-7.61.35-.27.78-.62.72-1.09-.75-.56-14.66,4.35-17.07,5-17.64,4.72-35.56,7.09-53.87,7.29-.18-1.1,1.36-.86,2.17-1.06,23.89-6.13,49.63-7.65,71.66-19.56.11-.56-.65-.42-1.09-.36-8.71,1.25-19.64,5.52-28.74,7.47-8.93,1.92-17.48,4.17-26.65,2.66-.21-1.87,0-1.15,1.06-1.46,8.78-2.6,18.07-4.15,27-7.03,6.94-2.23,13.6-5,20.44-7.44l-.97-1.33-39.57,11.11,41.43-22.34c2.91-.97,7.17,3.91,8.89,6.04l.02.02ZM72.86,475.7c2.94,13.57,9.83,23.2,23.32,27.71,25.28,8.47,56.28,10.66,82.77,12.84l8.29-1.46c-27.2-2.55-54.08-7.2-80.7-13.04l1.46-.75c26.85,4.63,53.78,9.69,81.09,10.19l6.11-1.46c-24.45-1.61-48.6-5.22-72.52-10.37-10.93-2.35-22.96-5-33.54-8.45-.86-.27-14.37-4.3-11.92-6.52,10.63,3.47,21.48,6.14,32.43,8.47,27.98,5.92,57.29,10.04,85.92,10.35l5.43-1.43c-25.72-1.89-51.63-5.13-76.87-10.37-17.34-3.59-35.32-7.97-51.26-15.7h-.03ZM343.02,210.24c-3.65-6.22-7.43-12.53-11.7-18.34l25.93,48.99c34.43,61.99,67.27,124.95,103.79,185.79,4.69,7.82,9.33,15.83,15.05,22.94-10.78-22.37-23.15-44.01-35.35-65.64-32.59-57.81-64.13-116.55-97.73-173.75h0ZM553.22,507.57l-28.62-.74,9.13,2.08c31,2.57,62.18-1.96,91.84-10.78-.03,1.71-3.47,2.64-4.86,3.11-8.14,2.75-19.39,5.1-27.94,6.81-22.99,4.62-42.47,5.55-65.86,3.32-.8-.08-2.46-.86-2.31.51,17.69,3.92,36.63,3.58,54.56,1.36,20.69-2.55,45.85-9.27,62.33-22.37,1.42-1.12,2.97-2.82,4-4.32-8.44,3.38-16.6,7.14-25.34,9.77-21.76,6.52-44.22,10.01-66.94,11.26v-.02ZM113.4,484.75c22.11,4.65,56.4,10.66,78.56,9.77.88-.03,2.69.54,2.52-.71-41.81-7.2-85.29-10.38-124.52-27.51.24,3.55.21,5.92,3.61,7.61,9.33,4.62,29.13,8.62,39.81,10.87l.02-.02ZM85.73,469.69c30.83,8.17,63.78,11.74,95.36,16.13l6.14-.71c-31.08-6.01-62.91-10.07-93.21-19.36-8.1-2.49-15.91-5.86-24.06-8.15-2.26,9.12,9.16,10.34,15.77,12.09h0ZM149.35,472.68c5.48.8,11.83,1.87,17.27,2.28.8.06,3.37.57,3.24-.71-32.51-8.57-66.63-12.9-97.48-26.7-2.57-.26-1.61,5.46-1.61,7.06,25.57,8.45,51.9,14.17,78.59,18.05v.02ZM524.22,499.59c-.88.03-2.69-.54-2.52.71,34.19,3.95,69.11-.09,102.22-8.89,7.8-2.07,15.3-5.67,23.26-6.43l3.38-7.11c-18.7,7.46-37.82,13.75-57.76,17.16-23.73,4.06-44.86,3.62-68.57,4.56h-.02ZM159.73,464.84l-85.41-25.36-1.13,5.1c27.21,9.75,56.07,14.23,84.2,20.78l2.34-.54v.02ZM96.01,442.76c11.7,2.84,23.59,5.01,35.48,6.85-1-1.52-3.62-2.28-5.31-3-11.53-5.04-24.01-7.03-36.12-10.22-5.28-1.39-12.26-6.64-14.31.57.06,1.06,17.87,5.22,20.24,5.8h.02ZM81.79,431.63c6.44,1.75,13.42,3.73,20.03,4.26-.18-1.12-1.34-1.36-2.19-1.8-3.24-1.66-18.41-9.06-19.51-3.62-.33,1.65.69.89,1.68,1.16ZM589.76,472.07l-21.98,2.26-9.87,2.07c9.46-.08,20.68-.56,29.82-3.11.75-.21,2.19-.17,2.02-1.22ZM507.24,528.9c-2.01.94-9.3,10.66-11.59,13.06-36.83,38.59-82.92,66.69-132.86,85.06-54.38-20.19-101.77-50.15-141.18-92.67-1.09-1.18-3.18-4.95-3.98-5.45-1.86-1.15-9.22.98-9.45,3.65-.18,2.25,9.83,13.89,11.97,16.25,31.38,34.82,82.9,67.68,126.36,85.03,3.68,1.46,12.15,5.51,15.55,5.51,4.63,0,25.54-9.27,31.03-11.74,42.32-19.15,85.82-49.05,115.94-84.59,1.54-1.81,8.89-9.57,7.53-11.53-3-.21-6.58-3.88-9.33-2.61l.02.03ZM358.82,606.35c1.92.66,3.28,1.24,5.42,1.16,3.47-.12,16.66-7.06,20.65-9.1,32.45-16.51,62.26-36.77,87.98-62.6l16.66-18.85c.69-1.33-3.52-5.24-4.74-6.16-1.1-.83-2.29-2.1-3.85-1.71-12.96,11.08-23.68,26.38-36.77,37.13-10.14,8.32-28.04,19.53-39.51,26.37-14.17,8.44-29.55,15.27-44.03,23.21-27.08-12.71-52.57-28.63-76.73-46.27l-43.14-36.52c-2.41-1.65-6.72,2.99-6.52,5.03.23,2.41,23.89,24.39,27.54,27.56,23.64,20.59,67.63,50.62,97.03,60.79v-.03ZM455.1,352.63l36.93,67.31c1.9.17,1.19.08,1.4-1.1,3.88-20.84,4.66-43.06,7.98-64.05-15.5.08-31.02.39-46.32-2.17v.02ZM386.22,333.19l76.63,150.11c-8.14,11.08-15.12,23.38-25.85,32.21-.51-3.73.71-9.21,0-12.66-2.88-14.05-36.48-23.32-48.87-24.96-24.98-3.34-75.31,0-95.21,16.99-6.54,5.58-7.61,9.9-7.59,18.46-8.3-8.04-14.87-17.48-21.13-27.15,6.5-10.6,12.38-21.63,19.02-32.15,3.43-5.42,8.39-10.56,11.44-16.07,6.1-10.97,10.94-24.81,16.47-36.37,5.16-10.82,11.15-21.27,15.83-32.31.95.38,1.36,1.24,2.54,1.43,4.8.8,11.65.63,16.63.72,9.04.17,19.79.17,28.87-.82,1.69-.18,4.23-.53,5.52-1.72-1.28-.75-3.18-1.01-4.68-1.12-9.7-.68-23.56-.51-33.37,0-4.94.26-9.78,1.95-14.81,1.48,11.2-25.45,25.07-49.5,37.49-74.35.45-.69.82-1.93,1.95-1.66,2.07.48,16.66,33.93,18.47,38.37l-25.01-.74-7.56,1.46c10.96,1.66,22.14,1.99,33.19.85h.03ZM358.81,325.84c3.71.56,7.46,1,11.26.75,1.1-.08,4.3-.17,4.68-1.46-5.13-1.68-9.57-1.68-14.82-.71-1.18.23-1.25-.5-1.1,1.42h-.02ZM292.94,488.74c-6.94-1.34-13.22-1.89-20.27-.72.48,1.46,2.88,1.78,4.17,1.98,4.35.63,10.84,1.18,15.02.18,1.1-.26,1.27.51,1.09-1.43h0ZM303.79,478.59c-10.05-2.17-20.22-1.45-30.4-.72-.8,1.61,3.37,2.1,3.98,2.17,7.08.74,16.5,0,23.89,0,.15,0,2.82-.68,2.54-1.43l-.02-.02ZM336.38,471.36c-8.14-.74-17.55-1.34-25.73-.75-2.04.14-6.46.41-7.58,2.19,8.33.71,18.1,1.4,26.44.75,1.92-.15,5.84-.38,6.85-2.19h.02ZM351.58,460.5l-70.21,1.8c2.01,1.3,5.92,1.69,8.29,1.84,16.84,1.04,40.42.54,57.14-1.55,1.43-.18,4.18-.51,4.78-2.08h0ZM349,338.88c3.85.97,12.39,1.39,16.66,1.46,5.01.09,9.92-.24,14.88-.77-.6-1.55-3.38-1.92-4.78-2.08-6.07-.69-12.04-.23-17.99-.06-3.5.11-7.03-.14-10.52-.03-.36,2.19.54,1.16,1.75,1.46v.02ZM458,483.66c-5.96-.95-11.77-.15-17.73.74-.98.15-2.26.32-1.09,1.42,5.78,1.31,11.91.14,17.73-.74,1.27-.18,1.22.39,1.09-1.43v.02ZM450.41,472.07c-8.15-1.31-17.27-.83-25.34.74-1.06.21-2.25,0-2.54,1.43l14.87.75,15.53-1.48c-.3-1.4-1.45-1.27-2.54-1.45h.02ZM448.58,463.4l-19.21.03c-9.67-1.1-19.76.82-29.64.69l-5.43,1.43c1.57.18,3.06.65,4.68.75,13.03.89,31.86.57,44.83-.85,1.12-.12,5.52-.2,4.8-2.08l-.02.02ZM443.51,449.63c-14.94-.63-29.04.3-43.8,2.17-.98.12-2.31.51-1.07,1.43l36.54-.72c2.19-.48,4.51-.72,6.66-1.34,1.22-.35,2.02.54,1.68-1.54ZM414.23,443.14c-7.56.23-14.93-.2-22.49.69-1.33.15-1.18-.23-1.07,1.45,10.9.8,22.01,1.1,32.96.75,1.71-.06,3.29-.71,5.01-.78,3.68-.17,8.1.48,11.62.03,1.01-.12,2.11-.39,1.07-1.43-7.12-2.01-14.73-1.6-22.11-1.49-1.71.03-3.29.74-5.01.78h.02ZM392.84,361.32h-50.67c.97,1.75,4.95,1.93,6.88,2.16,12.39,1.43,28.15,1.24,40.43-.82.86-.14,3.37-.23,3.35-1.34h0ZM391.39,352.63c-17.52-1.84-35.32-2.17-52.85-.36,9.1,2.4,18.58,1.68,27.91,1.78,5.61.06,11.43.89,17.34.03l7.61-1.43v-.02ZM312.62,509.5c2.29-7.56,29.46-12.04,36.63-12.6,15.83-1.24,38.7.27,53.87,5.06,7.06,2.23,13.84,9.66,5.42,15.14-17.67,11.5-67.04,9.8-86.81,3.28-4.17-1.37-10.69-5.71-9.12-10.87h.02ZM393.91,516.24c2.29-.65-.05-8.09-2.87-7.23-2.46.75-.27,8.12,2.87,7.23ZM381.25,519.13c1.12-1.15-1.8-15.24-6.5-13.03-.59.57,2.04,14.67,6.5,13.03ZM364.6,518.41c.85-.85-.75-13.76-5.06-12.3-.85.86.94,13.78,5.06,12.3ZM350.13,520.58c6.31,1.09.91-14.43-1.09-14.46-3.08,4.32.6,9.9,1.09,14.46ZM338.1,520.54c2.57-1.42,2.01-4.18,1.71-6.66-.23-1.83-1.81-9.36-4.51-8.5-2.64.83-.59,15.73,2.81,15.15ZM431.98,174.94c-1.3,1.06-9.04,11.7-8,12.63h87.96c9.92,10.85,19,22.5,28.95,33.31,11.06,12.03,23.76,22.79,33.66,35.85-2.07,18.9-5.78,37.72-8.54,56.57-6.58,44.83-14.47,89.76-20.28,134.64-.26,2.01-.71,4.53-.85,6.41-.08,1.1-.11,1.27,1.1,1.1,1.42-.21,7.92-3.29,8.54-4.54,7.61-34.31,13.03-69.09,18.47-103.81,4.44-28.21,9.54-57.96,13.03-86.15.41-3.32,1.58-9.01.69-12.04-.42-1.46-16.51-17.21-19.05-20.04-6.69-7.52-12.69-15.79-19.53-23.18-10.16-10.99-21.37-21.24-32.21-31.56-25.17.48-50.5.83-75.71.47-2.96-.05-5.63-1.77-8.26.38l.02-.03ZM169.65,448.23c.95.74,7.32,2.84,8.53,2.87.69-.08.41-1.21.36-1.8-.86-10.11-4.11-22.94-5.66-33.45-3.56-24.01-6.23-48.15-9.63-72.17-4.15-29.39-8.93-58.71-13.31-88.05,22.79-21.18,47.16-40.69,66.95-64.84l5.09-2.88c17.98-.41,36.01-.6,53.99-.38,2.07.03,3.83.75,5.72.78,3.2.05,22.74.38,23.56-.75-1.55-3.03-5.95-12.41-9.07-13.01l-78.71.15c-5.03,2.99-8.21,8.06-12.47,12.15-19.39,18.64-39.45,36.89-58.68,55.71-2.51,2.45-8.92,7.82-8.86,11.02,8.92,52.22,15,104.96,23.83,157.19.98,5.83,5.13,34.92,8.36,37.45v.02ZM203.55,246.23c10.79-10.43,21.19-21.3,31.65-32.06,27.98-1.75,56.1-1.96,84.16-1.99l1.8-1.09c-3.86-9.8-8.48-6.29-16.24-6.13-22.67.47-48.96-1.99-71.01-.06-5.74.5-8.27,3.64-11.94,7.61-4.45,4.84-8.74,10.7-13.36,15.59-11.86,12.54-24.86,23.91-37.87,35.24l-.15,3.46c7.02,49.75,11.5,100.37,21.22,149.64,1.06,5.34,7.83,39.21,11.09,40.31,1.45.48,3.73-.09,5.34.11-.03-2.02.12-4.04-.09-6.07-1.65-15.94-6.64-34.53-9.21-50.88-6.04-38.55-10.73-77.55-13.89-116.43-.44-5.42-2.57-13.15-.89-18.28,1.42-4.35,15.3-15.06,19.36-19l.02.02ZM530.38,356.6c-3.71,33.85-8.48,67.63-12.84,101.39.21,1.25,3.95,1.48,4.78.95,2.28-1.43,10.76-46.5,11.56-52.51l19.33-145.74-58.98-55.45-8.33-1.07-70.83-.54-5.57,7.8c18.93.39,37.93-.51,56.85-.03,1.71.05,3.29.72,5.01.78,5.96.21,16.36-1.16,21.39,1.04,4.77,2.1,26.97,24.72,32.22,30.03,2.08,2.1,14.07,14.49,14.5,15.91,1.68,5.45-1.92,20.01-2.57,26.47-2.38,23.62-3.94,47.33-6.54,70.94v.02ZM638.25,522.38c-16,6.84-58.64,14.53-76.37,15.56-26.4,1.54-57.34-10.25-76.02-28.93-2.48-2.48-13.31-18.46-15.11-18.08-10.88,13.43-22.44,26.28-35.53,37.64-3.38,6.29-.2,16.18-5.06,21.73-3.44,3.92-19.68,13.39-24.81,15-3.56,1.12-7.12,1.1-10.9,2.13-10.2,2.79-24.74,12.72-34.55,12.57-8.75-.14-20.22-6.84-28.4-10.02-12.63-4.92-39-11.91-41.85-27.65-.91-5,.6-10.13-1.15-14.78l-32.99-34.37c-.85-.29-1.61-.24-2.38.24-.77.48-6.75,8.72-8.41,10.43-31.36,32.54-54.45,33.02-98.37,29.75-50.65-3.77-106.28-12.65-100.91-77,2.64-31.65,18.37-57.1,53.46-43.51,43.36,16.8,61.77,44.03,114.77,45.23,3.89.09,8.24,1.31,12.36-.68.8-1.13-.32-8.41-.6-10.35-2.61-17.51-8.44-35.75-11.88-53.28-7.73-39.36-12.45-79.42-17.58-119.2,7.08-8.69,14.91-17.02,23.15-24.65,3.77-3.49,27.05-23.94,29.67-24.63,5.34.02,11.08-.91,16.29-1.1,19.05-.69,42.68,2.14,60.87.06.8-.09,2.32-.23,2.51-1.15.09-.5-3.12-8.07-3.73-9.28-8.48-17.25-21.7-32.13-32.36-48.01-1.81-2.7-4.66-6.67-5.42-9.78-10.2-42.41,66.27-48.16,58.14-2.4,3.61,10.52,11.46,19.67,16.04,29.93,3.8.12,7.65,1.09,10.35-2.08,1-1.18,11.33-19.09,11.64-20.21,1.28-4.66-1.93-6.46-2.49-10.58-1.48-10.76,2.85-19.86,12.03-25.49,29.46-18.08,70.8,16.59,41.26,46.7-.69.71-2.51,1.13-3.8,2.37-5.48,5.21-12.1,19.94-16.39,27.05-4.2,6.94-10.07,13.33-12.77,20.96l.78,1.8c1.42.51,2.96.97,4.48.92,20.96-.57,45.17-2.76,65.94-1.51,5.6.33,12.07.95,16.6,4.39,9.06,6.88,31.21,26.74,37.67,35.44,2.34,3.15,1.98,5.21,1.78,9.06-.89,17.4-5.07,37.46-7.14,55.12-4.95,42.08-8.89,84.29-15.83,126.08-.23,5.04,12.07,7.12,16.12,7.38,33.51,2.08,77.91-36.52,108.97-48.83,14.31-5.67,32.65,1.22,40.66,14.31,18.94,30.96-.12,81.76-32.74,95.69v.02ZM398.64,229.93l-8.65,12.3c14.07,29.52,31.3,57.4,47.13,86.03,16.5,29.82,32.28,61.65,49.7,90.74,2.58,4.3,6.28,10.75,9.55,14.34.82.88,1.45,2.07,2.87,1.83,6.08-56.19,14.32-112.11,20.18-168.34l-.42-1.55c-10.49-11.36-23.36-20.13-34.88-30.32-1.21-1.07-1.83-2.84-3.34-3.91-2.37-1.69-11.53-2.04-15.17-2.2-17.48-.78-39.86-.97-57.26,0-3.23.18-6.49.89-9.73,1.13l.02-.03ZM229.33,439.4c1.66.41,3.67.24,4.59-1.37l98.63-172.12c1.37-2.76,7.47-15.12,7.47-17.16.02-3.05-7.83-18.31-10.35-19.38-.98-.42-1.96-.63-3.03-.57-21.55,1.46-45.38-1.83-66.66,0-12.89,1.12-22.44,14.78-31.45,22.84-8.15,7.29-16.56,14.38-24.99,21.34-.54,1.03-.42,2.13-.38,3.23.44,9,3.65,21.18,4.98,30.55,6.23,44.3,10.04,89.3,21.19,132.64l.02.02ZM427.58,524.2c-1.43-1.06-11.53,4.57-13.76,5.4-27.54,10.4-75.39,12.35-102.56.5-4.29-1.87-7.94-4.68-12.04-6.78-.59-.3-1.52-1.25-1.95-.21,6.19,9.4-1.39,20.57,9.18,27.74,16.07,10.93,68.1,10.64,87.28,7.17,6.02-1.09,25.57-6.29,28.22-11.59,3.11-6.2-.23-16.48,5.63-22.23h0ZM305.23,516.61c19.42,16.12,92.81,16.41,112.59,1.07,15.08-11.7-.44-18.93-11.79-22.23-17.36-5.06-38.02-6.25-56.05-5.06-11.68.77-40.68,4.53-47.63,14.62-3.26,4.74-1.06,8.35,2.88,11.61v-.02ZM466.75,483.29c-24.98-46.14-49.05-92.81-72.37-139.82-7.29-14.69-13.6-30.83-21.45-45.16-1.24-2.26-4.26-7.76-5.84-9.36-.6-.6-.66-1.03-1.77-.77-4.42,11.03-11.17,20.93-16.78,31.36-29.87,55.45-55.3,113.39-88.82,166.81-.53,1.87.85,3.05,1.78,4.47,3.52,5.28,10.04,12.6,14.4,17.45,1.45,1.61,8.48,9.63,9.39,10.16,1.16.68,1.95.88,3.29.69v-11.21c0-3.53,4.17-9.57,6.9-11.92,24.36-21.02,106.75-21.07,132.05-1.77,10.61,8.09,4.56,15.97,7.65,27.08,3.79-2.75,7.34-6.34,10.52-9.75,3.5-3.73,21.05-24.74,21.04-28.25h.02ZM659.14,430.57c-9.28-13.37-21.6-10.99-34.89-5.45-41.49,17.25-97.82,84.99-137.75,26.77-51.24-92.22-104.96-183.38-153.87-276.88-2.94-5.61-9.07-15.85-10.4-21.48-.8-3.43,2.11-6.4-1.96-8.14-4.5-1.92-10.87,2.05-11.4,6.69.39.47,5.93.06,5.06,1.81-1.37,2.78-12.03,4.32-12.92.59.59-9.55,15.98-19.26,24.15-13.98,8.29,5.36,1.09,10.37,2.13,15.23,33.75,66.36,69.55,131.73,105.97,196.66,11.43,20.38,22.71,41.6,34.74,61.53,8.95,14.84,18.41,30.25,33.07,40.06.89-.71.15-2.54-.2-3.43-2.4-6.22-10.14-18.78-13.79-25.3-7.74-13.82-16.35-27.2-24.13-41.02-26.88-47.65-53.49-95.46-79.39-143.64l39.09-70.66c1.16-1,2.07-2.93,3.03-3.85,3.44-3.31,6.13-2.99,8.07-8.93,6.02-18.52-22.55-31.79-36.78-20.86-5.39,4.14-7.92,12.32-5.19,18.7,1.58,3.68,3.76,1.87,2.16,6.49-2.96,8.53-16.18,29.99-21.48,38.62-1.03,1.68-4.17,7.76-6.02,7.61-9.28-13.69-16.65-28.68-24.84-43.06-1.49-2.61-5.48-7.58-6.29-9.69-.8-2.1,1.06-3.62,1.49-5.69.88-4.06.32-6.25-2.2-9.48-12.09-15.52-46.21-4.18-38.89,17.18,13.13,21.58,27.14,42.77,39.36,64.88,2.11,3.8,13.86,24.84,13.28,27.35-30.94,52.67-59.77,106.59-90.01,159.68-7.77,13.64-19.42,30.03-25.75,43.75-.74,1.61-1.36,3.17-1.16,5,9.63-1.57,14.81-9.96,19.85-17.43l100.34-180.92c.94.12,1.34,1.01,1.45,1.86.42,3.26-7.12,16.75-9.04,20.6-27.65,55.28-57.34,109.62-86.22,164.25-16.45,25.93-53.22,29.63-80.31,20.35-33.39-11.44-58.89-45.25-94.13-47.07-20.39-1.06-25.66,34.12-24.22,48.87,3.43,35.05,33.46,46.06,63.43,50.21,54.65,7.59,98.34,9.61,132.91-39.2,16.77-23.7,31.45-54.23,45.1-80.14,19.97-37.93,41.4-77.67,59.6-116.3,1.57-3.34,2.54-7.94,5.16-10.4-.05,1.15.35,2.16.82,3.17,6.99,14.96,16.5,30.44,24.18,45.32,24.16,46.79,46.76,96.81,72.61,142.4,27.39,48.28,60.39,65.58,116.21,58.77,21.78-2.66,55.81-7.21,71.81-23.03,15.2-15.03,20.53-50.53,8.17-68.32l.03-.06ZM411.5,159.53c3.06-9.37-3.58-5.25-5.61-12.12.77-2.6,14.91-1.24,13.69,3.47-.42,1.63-3.58,1.89-3.59,3.73-.05,3.83,8.2,2.82,9.99.92,1.99-2.11.82-7.18-.65-9.46-5.04-7.82-21.11-9.37-26.26-1.18-4.71,7.5,5.96,9.7,5.27,15.33-.29,2.35-3.37,7.55-4.57,9.99-8.32,16.81-17.64,33.2-26.14,49.93l2.23,5.06c10.75-22.5,23.36-44,35.66-65.67h-.02ZM274.11,349.01c-17.6.48-35.41-1.27-52.84,1.45l-1.46-7.97,29.36.75c7.11-1.54,14.47-.32,21.69-.75,1.49-.09,9.77-.85,9.77-1.8-.88-1.31-1.92-1.03-3.21-1.12-14.61-1.09-34.41-.51-49.29,0-2.75.09-5.64,1.28-8.6.8l-1.13-5.1,49.58-.74,14.13-1.45c.21-.72-3.08-1.43-3.26-1.43h-61.17v-4.35h27.15c.54,0,2.11-1.19,3.26-.72l-1.09-2.17h-18.82c-1.03,0-6.44.75-7.65,1.03-1.43.33-2.34,1.21-3.56,1.86l-.72-7.24h30.77c.38,0,1.51-1.16,2.54-.72.23.21-2.2,6.55.35,5.78,4.03-1.24,11.23-10.52,15.17-10.13,3.79.36,11.55,10.96,17.05,9.42,1.21-1.15-8.07-15.55-7.15-18.34.29-.86,12.57-8.89,14.64-10.76.71-.65,1.55-.65,1.21-2.04l-21.64-.08c-.44-5.03-3.47-10.05-4.39-14.79-.41-2.14.92-.33,1.07-.33h13.75c1.13,0,4.21-1.51,6.14-.72v-1.45h-21.72l-1.07-2.88-1.54,2.93-40.81,2.85c-.17,1.27,1.65.68,2.52.71,5.8.24,11.65-.57,17.36.75l20.68-1.1c-1.18,2.88-2.11,13.49-4.11,14.72-3.28,2.02-13.24-.06-17.88,1.69-1.06.39-.95,1.87-1.69,2.05-4.33,1.13-13.4-.88-18.32,0-.06.47.97,1.43,1.09,1.43,5.13,0,11.76.54,16.65,0,.21-.03.6-.92,1.07-1.07,1.98-.62,12,7.35,14.17,9.03l-2.54,10.53-33.34,1.04-4.92-43.65c9.07-8.57,18.93-16.27,28.09-24.75,4.53-4.2,12.23-13.82,16.68-16.63,1.28-.82,2.34-1.27,3.91-1.15l65.56.39c1.84,4.57,8.84,12.56,8.63,17.33-.12,2.73-6.13,13.67-7.8,16.84-18.7,35.29-40.25,70.17-60.34,104.73-10.64,18.31-21.1,36.78-31.05,55.48l-2.58-1.06-11.14-74.21c10.29,1.87,21.11.24,31.53-.03,5.74-.15,8.89.98,15.41-.44,1.65-.36,4.94-.95,5.9-2.41h0ZM220.18,289.63c-1.07.18-2.23.05-2.54,1.45,11.08,1.81,22.2-.03,33.29-.72-1.13-4.5-7.58-2.23-10.5-2.17-7.09.12-13.22.32-20.27,1.45h.02ZM246.61,254.16c13.36-.41,26.85.54,40.21.03,1.54-.06,2.9-.66,4.32-.74,3.43-.21,8.98,1.18,11.21-1.45-2.35.33-4.56-.62-6.85-.75-10.78-.65-37.78-1.28-47.33,1.27-1.3.35-1.87-.21-1.55,1.66v-.02ZM290.75,267.93c-19.55.57-39.45-1.12-58.91.82-.94.09-2.64.39-3.35,1-.02.75,8.39,1.72,9.78,1.8,17.12,1,34.43.32,51.39-2.19,1.27-.18,1.22.38,1.09-1.43v.02ZM296.08,261.29c1-.17,3.94-.21,4.09-1.33-1.86.05-3.58-.69-5.43-.78-13.84-.68-47.09.47-60.13,3.65-1.22.3-2.11-.71-1.75,1.46,20.99-.05,42.5.51,63.22-3h0ZM292.94,318.6h-11.58c1.69,2.29,9.78,2.34,11.58,0ZM275.56,325.84l-6.88-1.51-12.66,1.51h19.55ZM394.31,242.2l7.74-9.77c23.45.54,47.07-1.18,70.41,1.13,14.34,10.08,27.41,20.89,38.97,34.14.89,4.84-.85,9.6-1.3,14.34-.17,1.68.17,3.38,0,5.06-.39,3.65-3.38,27.88-4.27,29.04-.6.8-1.61,1.03-2.58,1.04l-25.01.69c.27,1.33,1.42,1.34,2.51,1.46,8.23.98,16.72,1.06,25.01,1.42l.03,2.43c-.53,2.26-24.59.8-28.16,1.09l-5.78-17.48,15.09-12.1-19.58-1.06-3.59-13.42c11.32.63,22.44-.51,33.67-1.45,3.67-.3,7.27.41,10.88-.71,1.1-.35,2.01-.12.71-1.48-2.32-2.43-40.28,1.22-46.26.06-.62-.17-1.86-8.63-3.34-.05h-36.92c-.17,1,1.28,1.1,1.99,1.25,8.03,1.75,17.02,1.36,25.17,1.61,3.09.09,5.71,1.6,9.01.03l-4.42,13.66-22.35.09,16.98,12.99-6.85,18.85,18.46-11.32,13.39,9.87c-7.12-.05-14.23-1.24-21.39-.74-1.1.08-4.3.17-4.68,1.46l57.19,2.9c.74,6.78-3.56,3.71-7.58,3.59-12.6-.39-24.96.56-37.31,2.93-.32.72,1.69,1.43,1.81,1.43h41.63l-.11,4.6-1.09,1.09c-11.73,1.45-23.82-.71-35,3.73-.06,1.06,2.61,1.28,3.34,1.36,10.41,1.06,20.95.78,31.41.8v4.35h-48.16l-59.71-108.98.03.05ZM489.84,288.2v-.71c-1.93.69-4.11-.62-5.43-.72-4.78-.39-10.01.29-14.84,0v1.45h20.27v-.02ZM439.9,254.89l42.91-1.61,5.6-1.99c-5.27-1.75-10.46-.18-15.53.02-10.13.41-20.31.63-30.37,2.2-.75.12-2.7.29-2.6,1.37l-.02.02ZM433.38,262.5c0,.32,5.27,1.06,6.13,1.12,9.77.6,23.59.59,33.36,0,2.35-.14,7.67-.41,9.03-2.19-7.8-.86-15.68-.92-23.56-.75-1.71.03-3.29.72-5.01.78-6.67.26-13.42-.69-19.95,1.06l.02-.02ZM430.48,269.72c.82,1.19,1.98,1.04,3.21,1.13,19.67,1.33,50.05,1.57,68.94-3.56,1.24-.33,2.02.51,1.66-1.55l-73.83,3.97.02.02Z"/>
  <g>
    <path class="st3" d="M363.65,446.61c-1.57,0-3.08-.26-4.54-.51-1.28-.23-2.48-.44-3.55-.44-1.18,0-2.46.21-3.82.42-1.55.26-3.17.51-4.89.51-1.12,0-2.14-.11-3.15-.33-3.53-.8-6.26-4.11-8.47-6.76-.42-.51-.83-1.01-1.21-1.43-.06-.05-.27-.17-.44-.26-.72-.39-1.95-1.04-2.73-2.81-1.8-4.06-1.39-7.47-.98-10.78.12-1.06.26-2.14.32-3.26.14-2.66.09-5.43.03-8.1-.03-1.65-.06-3.28-.05-4.86.02-2.97-.03-6.02-.08-8.97-.12-7.18-.23-14.61.6-21.85l.08-.66.47-.47c.72-.71,1.51-1.57,2.37-2.51,3.73-4.06,8.36-9.12,13.72-9.12h.32c1.65.08,3.55.24,5.39.41,2.37.21,4.83.44,6.76.44.66,0,1.27-.18,1.92-.36.74-.21,1.58-.45,2.49-.47,2.96,0,6.66,2.26,8.24,3.79,1.16,1.12,5.48,5.92,6.35,7.24,1.12,1.68,1.65,3.62,2.05,5.33l.06.29v.29c-.5,7.11-.18,14.85.12,22.35.35,8.54.71,17.37-.09,25.46-.17,1.68-.75,3.71-1.51,5.16-1.4,2.72-7.7,8.95-10.22,10.64-1.6,1.07-3.43,1.6-5.6,1.6l.03.02ZM349.21,426.72c.68.62,1.55.89,2.84.89,1.16,0,2.46-.24,3.71-.47.88-.15,1.72-.3,2.51-.39h.11l.23-.02c.32,0,.72.06,1.21.12.41.06.88.14,1.25.14h.21v-42.23c-.51-.41-1.46-1-1.84-1.1h-.59c-2.61,0-8.44.41-9.21.59-.2.06-.41.14-.06,1.99.11.57.2,1.12.17,1.63l-.11,1.63c-.24,3.61-.5,7.71-.56,11.26-.09,6.17,0,12.48.06,18.58.03,2.46.06,4.92.08,7.37v.02ZM294.03,446.58c-3.41,0-6.82-.03-10.2-.09-.95-.02-1.81-.26-2.49-.44-.41-.12-.83-.23-1.06-.23-.29,0-.85.14-1.34.26-.83.2-1.77.42-2.73.42-2.38,0-3.56-1.37-4.14-2.54-1.1-2.22-.66-18.97-.56-20.21.14-1.52.59-3.05.98-4.39l.32-1.12.35-.35c1.33-1.33,3.09-2.52,4.81-3.67,1.36-.92,2.64-1.78,3.52-2.58.33-.3.63-.75.98-1.27.51-.75,1.1-1.6,1.99-2.37,2.02-1.75,4.3-3.49,6.7-5.31,3.71-2.82,7.55-5.74,10.2-8.6.91-.98,1.89-3.23,1.31-8.35-.12-1.07-.35-1.39-.39-1.43h-.2c-.41,0-1,.14-1.63.29-.85.2-1.81.42-2.82.42-.57,0-1.25-.09-2.05-.21-.94-.14-1.99-.27-2.91-.27-1.19,0-1.48.26-1.48.26,0,.03,0,.47-.02.75-.06,1.22-.17,3.52-2.48,4.63-1.96.95-7.02,1.4-9.83,1.4-1.52,0-2.61-.11-3.35-.33-.94-.29-2.25-1.01-3.17-2.9-1.57-3.21-1.18-8.14-.32-10.32,1.13-2.85,7.82-9.52,10.31-10.97,1.21-.71,2.66-1.54,4.21-1.77,2.05-.3,5.93-.48,10.38-.48s8.33.18,10.37.48c3.28.48,4.57,2.07,5.74,3.47.32.38.63.77,1.03,1.16,1.39,1.4,2.73,2.78,4.14,4.29.29.3.6.53.97.78,1.09.77,2.45,1.72,2.99,4.6.45,2.38.62,14.79-.03,17.21-.29,1.03-3.47,5.58-4.09,6.13-.77.66-1.75,1.21-2.81,1.8-1.06.59-2.16,1.21-2.88,1.86-.23.21-.45.57-.69.98-.36.59-.82,1.33-1.52,1.95-3.52,3.02-7.24,5.93-10.84,8.74-2.46,1.93-5,3.91-7.43,5.9-.03.09-.06.18-.09.29-.23.72-.83,2.63-.6,3.17h.36c.57,0,1.36-.17,2.04-.32.72-.15,1.4-.3,2.01-.3.95,0,1.72.15,2.48.3.71.14,1.37.26,2.07.26.27,0,.54-.02.85-.06,1.52-.21,1.58-.54,1.78-1.95.18-1.22.44-3.05,2.38-4,1.61-.78,4.59-1.3,7.59-1.3,5.64,0,9.15,1.78,9.6,4.87.47,3.2.36,11.8.02,14.99-.26,2.46-1.18,4.24-2.88,5.6l-.48.39-.62.03c-8.38.32-16.57.48-24.33.48v-.05ZM397.75,422.3c-4.63,0-7.52-1.6-7.52-4.15v-39.36h-.09c-.75,0-1.71.09-2.61.2-.98.11-1.99.2-2.91.2-.78,0-2.9,0-3.91-1.63-1.09-1.75-1.61-8.33-.26-11.02.74-1.45,1.86-1.74,2.46-1.78h.18c.51,0,.95.15,1.25.27.03,0,.08.03.11.05l.75-.11c2.01-.27,3.74-.51,5.84-.51.5,0,1.01,0,1.55.05,1.77.11,3.52.17,5.25.24,3.02.12,6.13.24,9.25.51.95.09,1.81.09,2.52.09h1.01c1.39,0,3.09,0,4.26,1.3,1.27,1.42,1.28,3.67.85,7.59-.54,4.92-4.6,4.92-5.93,4.92-.42,0-.86-.02-1.28-.03-.39,0-.78-.03-1.18-.03-1.4,0-2.01.23-2.35.63l-.2,40.22-.57.56c-1.66,1.61-5.07,1.8-6.46,1.8h-.02ZM425.05,422.01c-7.26,0-8.75-1.25-8.75-3.14v-53.61l1.84-.05h1.12c.65,0,1.3,0,1.95.02.63,0,1.25.02,1.89.02.41,0,.82,0,1.22-.02.24,0,.57-.11.92-.21.53-.15,1.13-.33,1.81-.33,1,0,2.4.39,3.34,2.28.75,1.51.72,4.6.57,9.95-.08,2.96-.2,7.71.21,9.4.26,0,.56.02.91.02,2.82,0,5-.42,5.84-.78-.02-.06-.05-.12-.06-.18-.17-.53-.38-1.19-.33-1.96.03-.59.17-1.12.3-1.63.12-.47.23-.91.24-1.31.02-.59,0-1.66-.05-2.97-.26-9.06.03-11.36,1.52-12.36.6-.41,1.45-.57,2.79-.57,2.28,0,5.77.53,7,.88,4.26,1.21,3.29,5.45,2.84,7.49-.15.68-.32,1.37-.32,1.8l.05,9.07c.05,9.33.11,18.99,0,28.59,0,.48.12,1,.26,1.6.38,1.6.88,3.77-.92,6.35-.32.45-1.16,1.65-6.26,1.65s-6.02-1.19-6.35-1.71c-.63-1.01-1.33-5.99-1.34-6.35-.09-1.65.18-3.08.44-4.33.2-1.03.39-1.99.36-2.97-.02-.78-.21-1.66-.41-2.58-.24-1.13-.51-2.37-.51-3.7h-.18c-.86,0-1.98.18-2.87.33-.74.12-1.33.23-1.78.23h0c-.51,0-.94-.06-1.31-.15-.03.24-.06.54-.09.89-.08.85-.03,2.99.02,5.25.24,10.87-.05,13.45-1.6,14.53-.38.26-.83.59-4.27.59h-.02Z"/>
    <path class="st1" d="M391.06,366.32c.47,0,.94,0,1.43.05,4.86.27,9.61.33,14.46.75,1.01.09,1.9.11,2.69.11h1c3.12,0,3.95.29,3.24,6.79-.32,2.85-2.04,3.24-4.06,3.24-.8,0-1.65-.06-2.48-.06-1.72,0-3.34.27-4.24,1.98l-.2,39.98c-.86.83-2.99,1.25-5.15,1.25-2.81,0-5.63-.74-5.63-2.26v-40.9c-.5-.26-1.19-.33-1.98-.33-1.71,0-3.88.39-5.52.39-1.09,0-1.95-.17-2.31-.74-.85-1.36-1.48-9.77.74-9.93h.05c.36,0,.86.35,1.3.35h.11c2.37-.32,4.27-.63,6.57-.63M347.34,366.33h.26c3.67.14,8.68.83,12.24.83h.09c1.61,0,2.96-.82,4.35-.83h.03c2.11,0,5.37,1.81,6.87,3.26,1.12,1.09,5.33,5.78,6.1,6.93.94,1.4,1.4,3.11,1.8,4.72-1.03,15.3,1.54,32.71.06,47.75-.14,1.42-.66,3.21-1.31,4.48-1.24,2.4-7.29,8.39-9.6,9.95-1.43.97-2.97,1.28-4.54,1.28-2.75,0-5.58-.95-8.1-.95-2.75,0-5.66.95-8.71.95-.89,0-1.81-.08-2.73-.29-3.53-.8-6.49-5.13-8.68-7.61-.74-.83-2.05-.75-2.85-2.58-2.13-4.81-.75-8.57-.51-13.16.23-4.35-.05-8.83-.02-13.06.06-10.2-.65-20.53.51-30.61,3.68-3.62,9.09-11.08,14.76-11.08M352.05,429.48c2.14,0,4.47-.66,6.43-.86h.14c.54,0,1.52.26,2.45.26s1.81-.26,2.1-1.31v-43.44c0-.54-2.49-2.19-3.37-2.32-.17-.03-.5-.05-.94-.05-2.58,0-9,.42-9.7.65-2.72.86-1.21,4.14-1.28,5.33-.27,4.14-.6,8.86-.66,12.99-.12,8.9.08,17.82.14,26.71,1.24,1.57,2.91,2.04,4.71,2.04M442.32,366.44c2.14,0,5.46.51,6.49.8,3.49,1,1.15,5.16,1.15,7.47.05,12.68.18,25.02.05,37.64-.03,2.23,1.61,4.15-.32,6.9-.41.57-2.57.85-4.72.85s-4.41-.29-4.74-.83c-.26-.41-1.03-4.63-1.07-5.46-.15-2.7.86-4.75.8-7.26-.06-2.31-1.18-4.66-.86-7.15-.18-.72-1.06-.95-2.13-.95-1.69,0-3.88.56-4.68.57h-.03c-1.07,0-1.77-.54-2.25-.54s-.77.59-.98,3c-.27,3.02.77,17.33-.78,18.41-.21.15-1.55.24-3.2.24-2.96,0-6.87-.32-6.87-1.25v-51.77h1.07c1.28,0,2.57.05,3.83.05.42,0,.85,0,1.27-.02.94-.03,1.86-.54,2.69-.54.6,0,1.18.29,1.66,1.24,1.36,2.72-.98,19.94,1.52,20.31.41.06,1.07.09,1.86.09,2.85,0,7.4-.47,7.79-2.04.2-.8-.51-1.78-.45-2.67.05-.89.5-1.86.54-2.99.09-2.41-.66-12.96.65-13.82.29-.18.92-.26,1.75-.26M296.91,366.67c4.01,0,8.03.15,10.11.45,3.37.5,3.89,2.28,5.69,4.09,1.37,1.39,2.7,2.75,4.11,4.24,1.37,1.46,2.91,1.4,3.49,4.45.44,2.31.54,14.34,0,16.36-.14.53-3.02,4.77-3.5,5.19-1.36,1.16-4.08,2.2-5.72,3.7-.89.8-1.24,2.08-2.19,2.88-6.04,5.16-12.54,9.95-18.67,14.99-.45,1.58-1.55,4.24-.59,5.66.41.6,1.1.8,1.89.8,1.42,0,3.12-.62,4.04-.62h.03c1.52.02,2.84.54,4.53.54.35,0,.72-.03,1.1-.08,4.98-.71,2.17-4.87,4.74-6.13,1.3-.63,4.01-1.1,6.76-1.1,3.67,0,7.37.85,7.73,3.26.44,2.97.35,11.4,0,14.52-.18,1.78-.75,3.18-2.19,4.33-8.01.3-16.16.48-24.28.48-3.4,0-6.78-.03-10.14-.09-1.36-.03-2.57-.68-3.58-.68h0c-1.09,0-2.67.68-4.08.68-.98,0-1.87-.33-2.45-1.49-.69-1.4-.6-16.54-.36-19.2.14-1.55.66-3.18,1.1-4.69,2.22-2.23,6.16-4.24,8.27-6.2,1.04-.98,1.61-2.46,2.93-3.59,5.16-4.47,12.57-9.24,17.07-14.07,2.22-2.38,2.16-6.7,1.81-9.84-.27-2.49-1.22-3.12-2.46-3.12s-2.93.69-4.45.69h0c-1.03,0-3.12-.48-4.97-.48-1.31,0-2.49.24-3.05,1.09-.77,1.15.32,3.74-1.77,4.75-1.43.69-5.87,1.21-9.01,1.21-1.22,0-2.23-.08-2.81-.24-3.37-1-3.31-8.12-2.28-10.72.92-2.32,7.23-8.72,9.51-10.04,1.06-.6,2.32-1.36,3.53-1.54,2.1-.3,6.1-.45,10.11-.45M391.06,362.55h0c-2.23,0-4.12.26-6.11.54l-.27.03c-.39-.14-.94-.27-1.58-.27h-.32c-1.69.14-3.15,1.16-4,2.82-.71,1.39-1.01,3.46-1.01,5.55-1.57-1.8-3.32-3.7-3.97-4.32-1.86-1.8-6.02-4.33-9.49-4.33h-.08c-1.18,0-2.19.3-2.99.54-.51.15-1.01.29-1.31.29h-.08c-1.84,0-4.26-.21-6.6-.42-1.87-.17-3.8-.35-5.49-.41h-.39c-6.19,0-11.14,5.4-15.11,9.73-.83.91-1.63,1.77-2.29,2.43l-.95.94-.15,1.33c-.86,7.37-.74,14.87-.62,22.11.05,2.93.09,5.96.08,8.92,0,1.63.02,3.29.05,4.92.05,2.64.11,5.37-.03,7.97-.06,1.04-.18,2.05-.3,3.12-.41,3.4-.86,7.23,1.13,11.76,1.04,2.35,2.69,3.23,3.56,3.7.03.02.06.03.09.05.32.36.65.77,1,1.19,2.25,2.73,5.34,6.46,9.49,7.4,1.13.26,2.31.39,3.56.39,1.87,0,3.64-.29,5.19-.54,1.28-.21,2.49-.41,3.52-.41.91,0,2.04.2,3.23.41,1.48.26,3.14.54,4.87.54,2.55,0,4.74-.63,6.66-1.92,2.45-1.65,9.15-8.07,10.84-11.35.88-1.68,1.52-3.92,1.72-5.86.8-8.23.44-17.12.09-25.72-.3-7.44-.62-15.14-.15-22.14l.05-.57v-.03c.54.11,1.13.15,1.77.15,1.01,0,2.07-.11,3.11-.21.21-.02.42-.05.63-.06v37.35c0,2.93,2.48,6.04,9.4,6.04,2.01,0,5.69-.3,7.77-2.32l1.13-1.1v-1.58l.2-38.18h.47c.36,0,.74,0,1.12.03.45.02.92.03,1.36.03,1.99,0,3.49-.44,4.6-1.1v38.92c0,5.03,6.91,5.03,10.64,5.03,3.43,0,4.47-.3,5.36-.92,2.45-1.71,2.64-4.77,2.4-16.12-.03-1.51-.06-3.05-.06-4.08.48-.05,1.03-.12,1.66-.24.32-.06.68-.12,1.03-.17.11.74.26,1.43.39,2.07.18.83.35,1.61.36,2.22.02.77-.14,1.6-.33,2.55-.27,1.37-.57,2.93-.47,4.8,0,.05.66,5.69,1.63,7.26.85,1.36,2.38,2.6,7.95,2.6s6.96-1.24,7.8-2.46c2.29-3.26,1.61-6.14,1.21-7.86-.11-.47-.21-.91-.21-1.16.11-9.63.05-19.29,0-28.63-.02-3-.03-6.02-.05-9.06,0-.23.17-.92.26-1.37.45-1.98,1.81-8.01-4.15-9.72-1.33-.38-5-.95-7.52-.95-1.75,0-2.9.27-3.83.89-2.49,1.66-2.63,4.97-2.37,13.98.03,1.22.06,2.37.05,2.87,0,.21-.09.56-.18.92-.14.54-.3,1.22-.35,1.99-.02.3,0,.6.02.88-.75.12-1.74.23-2.82.26-.12-2.04-.05-5.3,0-7.47.15-5.8.18-8.92-.78-10.84-1.45-2.9-3.77-3.34-5.03-3.34-.95,0-1.75.24-2.34.41-.18.05-.42.12-.51.14h-1.09c-.62,0-1.24,0-1.86-.02-.66,0-1.31-.02-1.98-.02h-1.16l-3.68.09v.6c-1.33-.57-2.73-.57-3.77-.57h-1c-.66,0-1.46,0-2.35-.09-3.15-.27-6.29-.41-9.33-.53-1.74-.08-3.49-.14-5.24-.24-.57-.03-1.12-.05-1.65-.05h-.03ZM351.44,385.91c2.04-.18,5.57-.39,7.41-.39h.18c.11.06.23.14.36.21v39.17c-.26-.03-.51-.05-.78-.05-.2,0-.36,0-.53.03-.89.09-1.78.26-2.64.41-1.18.21-2.4.44-3.38.44-.41,0-.72-.03-.95-.09-.02-2.1-.05-4.2-.06-6.29-.08-6.08-.14-12.39-.06-18.55.05-3.5.32-7.58.54-11.17l.11-1.63c.05-.74-.08-1.42-.2-2.07h0v-.02ZM296.91,362.89h0c-4.54,0-8.51.18-10.66.5-1.9.27-3.59,1.27-4.83,1.98-2.6,1.51-9.8,8.48-11.17,11.94-1.16,2.93-1.34,8.29.38,11.83,1.22,2.51,3.03,3.49,4.33,3.88.59.17,1.61.41,3.89.41,2.87,0,8.29-.44,10.66-1.58,2.79-1.36,3.34-3.86,3.49-5.45.72.03,1.57.15,2.32.26.86.12,1.61.23,2.31.23,1.21,0,2.31-.26,3.21-.45.42,4.45-.47,5.95-.88,6.38-2.55,2.75-6.32,5.61-9.98,8.39-2.32,1.78-4.74,3.61-6.81,5.39-1.07.94-1.75,1.93-2.31,2.73-.27.39-.54.78-.71.95-.75.71-2.04,1.57-3.28,2.4-1.8,1.21-3.64,2.45-5.1,3.91l-.68.68-.27.94-.18.63c-.42,1.43-.91,3.06-1.06,4.77,0,.17-.74,18.22.74,21.21,1.13,2.28,3.26,3.58,5.83,3.58,1.19,0,2.29-.27,3.17-.48.27-.06.66-.17.88-.2.15.03.39.11.59.15.74.21,1.75.48,2.96.51,3.32.06,6.76.09,10.22.09,7.8,0,16.01-.17,24.44-.48l1.25-.05.97-.78c2.1-1.69,3.26-3.94,3.58-6.88.35-3.35.47-12.07-.03-15.45-.29-1.95-1.98-6.49-11.46-6.49-2.6,0-6.17.39-8.42,1.48-2.85,1.39-3.24,4.12-3.43,5.43,0,.09-.03.21-.05.33-.05,0-.09,0-.14.02-.2.03-.38.05-.57.05-.53,0-1.09-.11-1.74-.23-.78-.15-1.69-.32-2.73-.33h-.09c-.72,0-1.4.14-2.13.29.02-.05.03-.11.05-.15,2.29-1.86,4.66-3.71,6.96-5.52,3.61-2.84,7.35-5.77,10.9-8.8.94-.8,1.49-1.72,1.92-2.38.14-.21.32-.51.39-.59.54-.48,1.54-1.04,2.51-1.58,1.09-.6,2.2-1.24,3.11-2.02.92-.78,4.29-5.63,4.68-7.05.78-2.87.53-15.67.08-18.05-.69-3.62-2.61-4.98-3.76-5.8-.33-.24-.53-.38-.68-.53-1.48-1.6-2.88-3.02-4.18-4.33-.32-.32-.6-.66-.91-1.04-1.24-1.49-2.93-3.55-6.91-4.14-2.13-.32-6.11-.5-10.66-.5h0l-.02.03Z"/>
  </g>
  <g>
    <path class="st0" d="M354.13,705.53c-1.16-5.33-1.24-10.69-.23-15.08l.14-.56,16.21-15.05c1.07-3.32.6-4.14.54-4.23-.12-.17-.62-.35-1.66-.35-.92,0-2.05.14-3.43.36-.03.95-.18,2.32-1.4,3.2-.33.24-1.12.8-6.41.8-1.96,0-2.46-.12-2.64-.17-2.84-.66-2.72-5.9-2.72-5.95.23-3.98,5.21-9.43,8.6-10.43,1.89-.56,5.66-.6,6.78-.6,2.94,0,8.15.21,10.1,1.66.05.03,5.13,5.16,5.46,6.35.71,2.52.53,5.64.36,8.39-.08,1.18-.14,2.28-.14,3.24v.83l-16.69,15.47-.08.38c.39.02.8.06,1.21.09.72.06,1.45.11,2.1.11.54,0,.88-.05,1.07-.09.06-.14.12-.36.18-.53.21-.68.5-1.6,1.28-2.31,1.1-.98,3.14-1.48,6.05-1.48,4.09,0,5.77.72,5.77,2.52v11.5l-.09.27c-.48,1.57-2.35,2.35-3.53,2.41l-26.52.71-.33-1.52.02.03ZM412.63,701.98c-2.4-.23-8.63-4.27-9.75-6.69l-.09-.2-6.17-30.94.17-.48c3.14-9.37,7.53-9.99,14.81-11l1.43-.2s.35-.2.53-.3c.53-.32,1.18-.71,1.99-.8.14,0,.27-.02.42-.02,3.47,0,9.69,4.47,10.96,7.27l.09.2,6.1,29.9v.21c-.05,2.6-3.94,9.15-6.13,10.31-1.22.65-13.15,2.76-14.14,2.76h-.24l.03-.03ZM414.98,688.56l4.59-.81-4.63-22.91c-1.55,0-3.67.57-4.75,1.03l4.8,22.7ZM296.31,699.1c-1.89,0-6.78-.91-7.76-2.4-1.06-1.61-.48-5.45,5.15-26.23,1.03-3.82,1.93-7.14,2.25-8.59-.3-.29-1.75-.56-2.55-.71-2.1-.41-4.48-.86-5.45-2.94-.75-1.63,1.36-8.04,1.99-8.9.48-.65,1.4-1.42,3.09-1.42,1.04,0,2.1.29,3.02.53.32.09.62.17.88.23.85.18,20.74,4.35,22.08,6.25.47.65.62,1.51.14,4.2-.63,3.56-1.48,5.72-2.51,6.41-.66.45-1.43.68-2.31.68h0c-1.12,0-2.2-.36-3.28-.72-.89-.3-1.81-.6-2.52-.6-.12,0-.24,0-.35.03l-8.07,32.31-.14.23c-.63,1.09-1.89,1.63-3.71,1.63l.05.03ZM461.95,688.91c-1.83,0-9.15-3.02-10.47-4.53l-.21-.24-11.76-29.61-.03-.26c-.33-3.23,2.76-9.67,5.51-11.5.92-.6,11-4.65,12.62-4.66,3.05,0,8.87,3.05,10.63,5.52,2.82,4,4.86,10.16,6.84,16.12,1.49,4.51,2.91,8.78,4.56,11.94l.17.3.05.35c.32,2.57-1.03,5.07-2.22,7.29-.54,1.01-1.07,1.98-1.34,2.81l-.41,1.19-1.25.08c-1.31.09-4.27,1.61-6.44,2.73-2.88,1.48-4.71,2.4-6.07,2.46h-.14l-.02.02ZM453,653.61c.66,1.3,1.92,4.66,3.88,9.93,1.46,3.95,3.62,9.73,4.51,11.58,1.03-.15,2.7-.88,3.85-1.37.32-.14.62-.27.91-.39-.66-3.09-4.38-11.83-6.25-16.27-.97-2.28-1.78-4.2-2.26-5.45-1.75.06-4.15,1.25-4.63,1.95v.03ZM256.24,686.68c-.27,0-.53-.03-.75-.08-.65-.14-11.94-4.65-12.9-5.63-2.52-2.51-4.32-10.38-2.66-14.38.78-1.89,2.32-2.97,4.23-2.97.26,0,.53.02.8.06.89.12,6.22,3.02,6.79,3.68,1.22,1.4.85,2.9.62,3.62.92.74,3.58,1.9,5.18,2.05.47-1.18,1.22-3.49,1.51-4.84l-8.87-3.5-.23-.18c-1.19-.95-4.2-9.4-4.2-10.34,0-1.74,4.83-12.41,5.96-13.61,1.18-1.27,7.17-4.44,8.92-4.56h0c1.75,0,12.93,4.5,13.75,5.03,3.83,2.51,5.86,10.31,4.63,14.53-.68,2.35-2.32,3.71-4.51,3.74-.88,0-7.35-2.54-8.15-3.62-.83-1.12-.47-2.32-.24-3.06.15-.48.18-.68.17-.8-.8-.5-3.17-1.81-4.3-2.38-1.03.97-2.54,4.08-2.58,5.39.74.33,2.25.85,3.31,1.21,2.46.83,4.01,1.39,4.89,1.98,3.4,2.28,5.39,9.19,4.59,13.04-.17.78-4.15,10.43-4.75,11.2-1.46,1.92-8.74,4.45-11.18,4.45h0ZM218.6,668.46c-.26,0-.51-.03-.75-.11-1.96-.54-5.63-2.97-11.88-7.89l-8.41-4.21.51-3.86,3.08-5.06c6.5-10.67,13.24-21.72,20.75-31.98l.3-.41.47-.2c.3-.14.62-.2.97-.2,1.74,0,4.69,1.87,11.5,6.46,2.99,2.01,7.09,4.77,8.17,5.07l.44.12.33.32c.63.59,1.54,1.95.59,4.47-.88,2.29-3.94,6.52-6.32,6.57-1.83,0-3.83-1.34-6.96-3.55-1.37-.97-3.59-2.52-4.63-2.88-.82.95-2.29,3.28-2.72,4.36.82.81,3.34,2.23,4.75,3.03,3.06,1.72,4.32,2.45,4.53,3.82.3,2.01-3.59,7.74-4.56,8.35-.71.44-1.49.66-2.34.66-2.13,0-4.08-1.43-5.96-2.81-1.25-.92-2.82-2.07-3.7-2.07-.66,0-1.43,1.3-2.05,3.46-.38,1.34,1,2.29,4.47,4.04,1.86.94,3.77,1.9,4.95,3.29,1.24,1.43,1.28,3.58.15,6.04-.95,2.07-3.26,5.15-5.71,5.15h.03ZM506.6,667.24c-1.4,0-2.76-.53-4.09-1.04-1.09-.42-2.22-.86-3.08-.86l-.94.03-.69-.71c-5.77-6.96-10.41-14.97-14.9-22.74-1.09-1.87-2.17-3.74-3.26-5.6l-.39-.66.18-.75c.18-.74.32-1.6.45-2.52.41-2.6.86-5.54,2.75-7.59,1.31-1.43,10.97-6.87,13.28-6.97h.29c1.98,0,8.01,1.24,9.89,2.93.53.48,2.45,3.46,2.64,4.32.23.98-.08,2.02-.92,3.18-1.46,2.01-4.91,4.71-6.7,4.86h-.29c-1.36,0-2.17-.83-2.72-1.39-.5-.51-.62-.59-.92-.59-.17,0-.45.03-.89.18-.5.21-2.57,1.55-3.53,2.28.38,1.15,1.8,3.44,2.63,4.53.95-.3,2.43-1.36,3.56-2.16,1.92-1.36,3.73-2.66,5.54-2.88.17-.02.36-.03.59-.03,1.93,0,7.43,1.06,8.95,1.81,2.07,1.03,8.69,11.95,8.86,14.04.2,2.37-.85,7.74-2.61,10.02-.88,1.13-11.47,8.17-13.37,8.29h-.35l.05.05ZM502.73,649.01c.3,1.07,1.48,3.37,2.17,4.38,1.19-.26,3.74-1.43,4.75-2.1-.24-1.25-1.78-3.97-2.67-4.89-1.1.38-3.41,1.8-4.26,2.61ZM661.07,361.02c-2.79,0-4.04-1.36-4.6-2.49l-.17-.33-1.77-26.22.32-.51c.54-.88.85-1.36,12.56-2.41,1.43-.14,3.02-.27,4.69-.44,8.72-.82,19.59-1.84,27.57-1.84,1.22,0,2.38.03,3.43.08h.21c.21,0,.42,0,.63-.02.27,0,.53-.03.78-.03,1.98,0,3.29.85,3.91,2.51.3.83,1.87,7.82.32,9.99-1.12,1.55-4.11,1.95-21.37,2.72-6.79.3-15.95.71-18.13,1.36-.29,1.15.09,5.07.33,7.46.53,5.34.71,7.76-.74,8.97l-.65.54-.83-.12c-.09,0-.18-.02-.29-.02-.63,0-1.55.17-2.51.35-1.22.23-2.49.47-3.73.47h.01ZM13.74,353.02l-.5-.47c-1.9-1.81-1.22-5.39-.57-8.86.18-.97.35-1.87.38-2.4.08-1.34.03-2.69,0-3.97-.12-4.12-.26-8.38,3.35-12.41.69-.78,4.74-4.12,5.99-4.62.56-.23,1.65-.53,4.51-.53,3.46,0,7.95.45,9.63.97,2.23.69,3.2,2.25,3.83,3.28.23.38.45.74.65.89.24.21.41.29.44.29.26-.06.97-.82,1.39-1.25,1.03-1.09,2.31-2.43,4.17-2.75.14-.03.39-.05.72-.05,1.89,0,7.88.54,9.06.71,4.26.62,11.46,6.96,11.8,11.41.02.2-.86,21.01-3.26,22.74l-.56.39-51.03-3.4v.02ZM47.73,335.56c-.35,2.38-.62,5.16.14,6.04.44.51,1.58.63,2.48.63.81,0,1.78-.09,2.93-.26.44-1.92,1-4.94.29-5.84-.26-.32-1.01-.69-3.2-.69-.72,0-1.58.05-2.63.12ZM27.87,333.85c-.97,3.11-1.19,5.06-.66,5.8.32.44,1.33.95,4.44.95.42,0,.88,0,1.36-.03.6-1.96,1.4-4.89.81-5.71-.57-.8-3.61-.97-5.96-1.01h.02ZM663.21,316.94c-2.67,0-9.67-3.2-11.33-5.51-.88-1.22-4.03-15.36-3.91-16.47.23-2.28,4.04-8.6,5.8-9.99,1.6-1.28,4.12-1.87,6.16-2.35.36-.09.69-.17,1.01-.24,11.53-2.91,20.1-4.68,25.46-5.25.57-.06,1.15-.09,1.74-.09,5.42,0,11.77,2.6,13.79,8.39.74,2.13,2.55,10.99,2.4,13.31-.17,2.54-1.84,4.81-3.32,6.84-.8,1.09-1.55,2.11-1.98,3.03l-.39.85-35.2,7.49h-.23ZM662.59,296.64c-.33,1.1.72,4.47,1.52,6.11l25.46-5.51c.08-1.43-.59-4.57-1.19-6.14l-25.79,5.52v.02ZM19.66,300.38l-1.43-1.78v-.63c-.09-3.05.85-5.78,1.66-8.18.39-1.15.75-2.23,1.01-3.28.18-.75.35-1.95.54-3.21.54-3.7,1-6.43,1.96-8.06,1.13-1.92,8.54-6.17,10.55-6.35h.35c2.7,0,14.16,2.66,16.1,3.23.66.2,2.93.94,4.15,2.08.51.47,5.37,7.91,5.57,9.18.24,1.55-.35,3.55-1.03,5.87-.54,1.86-1.27,4.35-1.09,5.55,1.01.56,4.32,1.22,6.34,1.63,4.77.97,7.3,1.54,8.32,2.99,1.04,1.51.39,3.89-.77,7.65-.36,1.16-.77,2.48-.81,3l-.18,2.16-51.24-11.83v-.02ZM34.8,289.65c1.83.54,6.5,1.52,8.95,1.74l1.31-5.86c-2.13-.74-7.05-1.84-9.43-1.86-.44,1.31-.88,4.45-.83,5.96v.02ZM651.77,271.88c-2.64,0-9.16-2.26-10.91-4.06-.97-1-6.55-14.34-6.66-15.36-.39-4.04,3.68-11.27,7.5-13.34,3.89-2.1,25.85-10.47,30.03-11.26.42-.08.89-.12,1.39-.12,4.27,0,11,2.91,12.93,6.52.57,1.07,4.42,11.47,4.51,13.03.23,3.8-3.32,11.15-6.93,12.95-4.86,2.41-10.67,4.32-16.3,6.16-4.95,1.61-10.07,3.29-14.38,5.28l-.23.11-.26.05c-.21.03-.45.06-.71.06h0ZM649.06,251.67c0,.68.29,2.04,1.06,3.49.63,1.21,1.24,1.78,1.51,1.93l24.19-8.86c.09-.57-.72-2.29-1.18-3.24-.33-.71-.66-1.39-.92-2.07l-24.68,8.72.02.03ZM31.2,254.01v-1.36c.02-2.73.5-11.62,6.01-11.62.14,0,.27,0,.41.02.56.05,7.91,2.48,8.74,3.17,1.54,1.28,5.3,9.86,4.23,13.3-.38,1.22-1.33,2.01-2.54,2.11l-.41.03-16.45-5.66.02.02ZM81.45,244.99c-3.02,0-5.19-.75-6.47-2.23-.68-.8-1.42-2.2-1.09-4.38.09-.59,2.32-5.71,2.79-6.25,1.24-1.45,3.31-1.45,4.8-1.46.35,0,.86,0,1.13-.03.89-1.06,2.34-4.81,1.96-5.89-.86-.51-3.88-1.61-5.43-1.92-.24.54-.54,1.27-.81,1.92-1.78,4.23-3.15,7.32-4.6,8.48-2.17,1.75-7.65,3.11-10.91,3.11-.8,0-1.46-.08-2.04-.23-1.24-.33-11.35-5.4-12.32-6.29-2.14-1.96-4.51-8.89-4.32-11.62.14-1.8,4.81-12.04,5.49-13.12,2.31-3.59,8.33-5.46,13.1-5.46,2.14,0,5.03.39,6.6,2.25.85.98,1.16,2.22.95,3.58-.12.71-3.15,6.82-3.65,7.34-1.27,1.33-2.97,1.33-3.53,1.33-.45,0-.92-.05-1.36-.08-.26-.03-.5-.05-.74-.05-.65,1.12-1.84,3.98-2.19,5.46,1.4.78,4.35,2.17,5.22,2.45.81-.18,2.1-3.41,2.66-4.81.91-2.29,1.77-4.45,3.17-5.6,1.98-1.61,7.98-3.14,11.21-3.14.65,0,1.19.06,1.66.18.86.23,12,5.36,12.83,6.02,1.3,1.06,4.6,10.25,4.48,11.86l-.03.47-.26.39c-.78,1.25-1.52,3.15-2.29,5.18-1.65,4.29-3.52,9.16-7.21,10.79-1.92.85-5.51,1.75-8.83,1.75h.03ZM649.19,222.09c-1.75,0-10.53-1.36-12.12-2.96-.65-.65-.89-1.55-1.13-2.43-.12-.45-.29-1.03-.44-1.28-1.24-1.98-2.64-3.95-4.09-5.98-1.31.66-3.55,2.02-5.16,2.99-3.18,1.92-5.18,3.12-6.29,3.43-.32.09-.65.14-1,.14-1.9,0-3.64-1.39-5.15-4.12-.03-.06-3.06-5.69-1.69-7.86.44-.68.8-.97,8.63-4.75,2.1-1.01,4.09-1.98,4.74-2.35,2.4-1.37,5.42-3.24,8.6-5.24,6.99-4.36,14.9-9.3,20.19-11.26.83-.32,1.61-.6,2.55-.6.54,0,1.07.11,1.58.3l.63.26,10.64,19.27.06.3c.8,4.36-1.01,9.61-3.17,12.89l-.38.57-.65.2c-1.57.48-4.24,2.2-6.81,3.86-3.62,2.34-6.76,4.38-9.06,4.62-.14.02-.32.03-.5.03l-.02-.02ZM647.32,207.42l8.17-4.56c-.71-1.86-2.17-4.56-3.02-5.27-1.49.57-6.32,3.46-8.15,4.95l3,4.87h0ZM90.52,151.55c-1.77-1.25-2.38-3.29-1.72-5.64.98-3.47,5.18-7.89,8.48-7.89.26,0,.48.03.71.08l.24.05,44.58,21.96.27.39c.47.66.59,1.52.35,2.54-.56,2.31-3.74,6.94-5.31,7.74-.85.44-1.72.66-2.6.66-1.36,0-2.41-.51-3.18-.89-.21-.11-.47-.23-.63-.29-1.37.6-4.74,4.8-4.84,6.13.05.02.33.29.53.45.51.47,1.21,1.1,1.48,2.08.66,2.45-1.04,4.35-2.41,5.87-.78.86-1.66,1.84-1.71,2.51l-.11,1.43-4.32.85-29.81-37.99v-.03ZM117.9,164.14c.26-.18.41-.32.5-.41-.26-.3-.8-.66-1.63-1.06l1.15,1.46h-.02ZM583.46,167.08c-3.03,0-5.87-3.37-6.67-4.39-1.52-1.98-2.14-3.58-1.83-4.77.41-1.58,2.78-3.8,10.16-10.1,2.54-2.16,5.15-4.39,6.04-5.37,1.04-1.65,3.05-6.75,5-11.7,4.08-10.32,6.04-14.97,7.71-16.09.51-.35,1.15-.69,1.89-.69,1.1,0,1.71.71,2.01,1.06.06.08.14.17.23.26.06.06,5.89,6.26,6.07,8.04l.05.42-4,11.09c.6-.23,1.22-.47,1.78-.68,4.33-1.68,7.53-2.85,9.46-2.85.33,0,.62.03.91.11,1.49.36,7.7,7.8,7.73,9.8v.62l-.36.5c-.68.94-1.89,1.45-14.25,5.28-5.63,1.75-12.01,3.71-13.7,4.59-2.96,1.51-5.95,4.59-8.84,7.56-2.29,2.35-4.66,4.8-7.09,6.55-.57.48-1.4.78-2.31.78l.05-.02ZM151.22,154.67c-.3,0-.6-.03-.88-.11l-.56-.15-35.05-39.36,2.2-1.1c.54-.35,2.6-2.66,3.59-3.77,1.61-1.81,1.9-2.14,2.46-2.37.41-.17.88-.26,1.4-.26,2.6,0,6.72,2.07,13.19,5.49,1.3.68,2.66,1.4,3.95,2.05-1.22-1.28-2.55-2.6-3.7-3.76-4.56-4.56-6.31-6.41-6.66-7.83-.88-3.62,2.22-5.27,3.71-6.07.29-.15.56-.29.74-.42.06-.05.2-.3.29-.47.39-.71,1.19-2.19,3.32-2.19.5,0,1.04.09,1.66.26l.51.15,33.45,36.12.12.45c.91,3.43-1.68,5.16-3.21,6.2-.38.26-.74.48-1.04.75-.06.06-.18.33-.27.5-.24.48-.54,1.09-1.12,1.52-.81.62-1.87.95-3.06.95-.59,0-1.21-.09-1.77-.24-3.46-.98-7.38-3.2-11.17-5.36-1.18-.66-2.37-1.34-3.55-1.98,1.31,1.42,2.7,2.87,3.8,4.01,5.24,5.46,6.05,6.44,6.26,7.43.38,1.87-.92,3.94-2.08,5.36-.57.69-3.56,4.17-6.54,4.17l-.03.02ZM560.54,144.26c-2.17,0-5.92-2.81-6.64-3.38-2.19-1.71-4.33-3.67-6.4-5.55-2.7-2.48-5.49-5.03-8.42-7.03l-.42-.29-.21-.47c-1.15-2.46,1.22-5.64,4.2-9.25.32-.38.59-.71.78-.98,4.42-5.69,9.21-11.26,13.84-16.65,4.08-4.74,8.29-9.63,12.21-14.58l.11-.12.12-.11c.57-.51,1.19-.77,1.87-.77s1.19.27,1.57.45c3.02,1.54,8.62,6.46,12.3,9.7l1.63,1.43c.29.26.74.6,1.25,1.01,4.15,3.32,5.54,4.69,5.52,6.26,0,1.69-5.52,7.89-6.1,8.21-.48.26-1.03.39-1.61.39h0c-2.85,0-6.72-3.24-10.75-6.85-.51-.45-.95-.85-1.28-1.13-.41-.33-.68-.72-.88-1.07-.06.05-.12.08-.2.14-.48.45-2.78,3.43-3.67,4.77.83,1.03,3.34,2.93,4.77,4,1.78,1.34,3.32,2.51,4.09,3.44l.75.92-.5,1.07c-2.79,6.01-5.06,8.47-7.79,8.47-2.14,0-3.83-1.6-5.61-3.29-1.19-1.13-2.54-2.41-4.14-3.35-.63-.36-.92-.39-.97-.39-.27.11-.82,1.06-1.13,1.61-.59,1.06-1.3,2.32-2.46,3.28v.17c.15.12.33.26.51.39,7.82,5.75,10.43,8.23,10.7,10.23.32,2.29-5.01,8.59-6.01,9.04-.33.15-.71.23-1.1.23l.05.05ZM186.86,124.26c-.85,0-1.58-.23-2.19-.68l-.27-.2-25.69-39.24c-1.06-1.48-.94-2.91-.63-3.83,1.04-3.28,6.08-5.45,9-6.44l.88-.3,14.2,9.45c-.11-.15-.21-.3-.32-.44-5.99-8.57-8.3-12.29-7-14.53l.24-.42,9.34-5.57,28.66,41.99c.21.26.56.92.45,1.93-.17,1.54-1.37,3.35-2.16,3.98-1.1.89-6.01,3.46-8.63,3.46h0c-.42,0-.78-.06-1.13-.18l-.24-.09-12.92-9.1c.17.24.33.48.51.72,6.08,8.71,7.4,10.88,7.41,12.23,0,.94-.53,1.93-1.71,3.12-1.66,1.68-5.1,4.18-7.82,4.18l.02-.03ZM529.08,119.28c-.17,0-.38,0-.63-.02-1.66-.09-6.6-2.75-7.46-3.43-3.44-2.73-2.79-9.39-1.95-15.61-.3.53-.59,1.09-.89,1.61-3.24,5.93-3.58,6.41-4.14,6.82-.47.33-1.04.5-1.71.5-2.57,0-7.47-2.67-9.39-4.74-.83-.89-1.21-1.77-1.13-2.64l.03-.45,25.19-41.66.14-.15c.48-.5,1.36-1.09,2.82-1.09,3.11,0,9.28,3.31,9.57,6.25.23,2.29-1.66,4.94-3.67,7.73l9.58-4.62.56-.03c2.14,0,5.24,2.02,9.52,5.27l1.37,1.03-.03.98c-.05,1.66-.97,2.38-13.43,8.66-3.44,1.74-6.99,3.52-7.86,4.15-1.28.92-1.63,1.43-1.86,2.7-.63,3.58-.8,7.89-.97,12.07-.18,4.81-.38,9.78-1.27,13.99.05.41.14,1.21-.48,1.9-.65.74-1.57.74-1.92.74l-.02.02ZM231.82,97.32c-4.18,0-7.65-1.9-10.47-3.76l-.59-.39-.2-.68c-.62-2.22-3.97-9.19-7.23-15.94-7.76-16.1-10.1-21.45-9.7-23.54.45-2.41,7.24-5.31,9.7-5.31,1.33,0,2.08.53,2.49.97l.2.21,15.71,33.75h.32c2.11,0,4.74-1.36,5.28-2.11l-15.02-34.12v-.33c-.09-1.04.36-2.1,1.33-3.12,1.74-1.86,5.48-3.83,8.27-3.83,1.51,0,2.4.59,2.87,1.09l.23.23,16.62,37.02c1.6,3.92-1.84,12.16-4.62,14.23-.98.72-9.33,4.45-10.46,4.83-1.58.53-3.18.8-4.72.8h0v.03ZM484.03,94.72c-.44,0-.88-.03-1.28-.08-1.58-.18-10.66-3.86-11.73-4.5-3.71-2.19-7.46-9.83-6.78-13.84l.06-.39.21-.33c1.55-2.35,3.43-7.44,5.42-12.83,4.09-11.05,7.03-18.46,10.69-20.75,1.43-.91,7.11-3.29,9.36-3.29.12,0,.24,0,.35.02,1.46.15,13.15,5.49,14.02,6.11,1.98,1.39,5.39,9.27,5.46,11.33.05,1.13-2.01,6.7-2.88,7.47-.5.44-1.16.65-2.01.65-1.92,0-9.57-2.37-10.31-4.77-.41-1.28.03-2.51.32-3.31v-.03c-1.21-.75-3.83-1.98-5.33-2.41l-10.41,24.25c1.37.88,4.03,2.2,5.15,2.61.08-.12.17-.27.23-.38.47-.8,1.33-2.28,3.31-2.46.15,0,.33-.02.51-.02,2.23,0,6.4,1.16,8.42,3.35,1.15,1.25,1.31,2.49,1.25,3.31-.54,6.63-8.62,10.29-14.01,10.29l-.02-.02ZM265.62,84.13c-2.23-1.16-2.64-2.94-2.84-4.51-.59-4.63-.59-9.55-.57-14.34,0-3.14,0-6.11-.14-9.01-.05-.83-.21-2.49-.42-4.57-1.69-16.65-1.58-21.63.45-23.14.8-.59,6.44-1.96,6.49-1.98l.47-.08c.57-.09,1.22-.2,1.9-.2,1.4,0,2.57.47,3.44,1.39l.17.18,23.89,43.77v.5c-.08,3.76-8.59,5.64-9.66,5.64-2.23-.02-3.2-1.54-3.83-2.55-.68-1.06-1.01-1.6-2.55-1.6-.71,0-1.6.14-2.63.41-2.93.77-2.97,1.55-3.03,2.99-.05,1.04-.12,2.48-1.27,3.64-1.01,1.03-2.54,1.36-4.17,1.71-1.27.27-2.85.62-3.35,1.24l-.97,1.21-1.37-.71v.02ZM275.87,60.43h.56c-.17-.47-.41-1.01-.68-1.58l.11,1.58h.02ZM442.22,79.41c-2.08,0-13.78-2.57-15.52-3.56-2.79-1.6-6.64-7.7-6.84-10.88-.12-1.75.32-3.67.71-5.36.11-.5.23-.97.32-1.42,1.34-6.75,4.53-21.02,7-26.79,1.31-3.05,6.28-6.9,9.18-7.64.65-.17,1.42-.24,2.38-.24,4.59,0,12.38,1.87,15.14,3.62,2.93,1.87,4.97,5.86,6.57,9.51l.26.59-8.35,34.58-.08.18c-1.33,2.84-7.4,7.12-10.46,7.41h-.32ZM434.65,63.65c1.46.44,4.15,1.04,5.83,1.19l6.16-25.27c-.48-.53-2.94-1.03-3.8-1.19-.63-.12-1.24-.26-1.81-.39-1.75,4.39-5.54,20.44-6.37,25.67v-.02ZM307.48,71.8l-6.99-48.89v-.15c.06-3.28,5.93-5,9.06-5,4.15,0,5.13,2.37,5.34,3.4l5.09,36.24c1.81-.14,3.7-.5,5.54-.85,2.14-.41,4.17-.8,5.95-.8,2.32,0,3.98.68,5.06,2.08,1.57,2.04,1.65,5.25.27,10.46l-.32,1.22-25.3,3.38-3.7-1.1ZM400.81,71.24s-6.41-.12-7.74-1.99c-1.21-1.69-.77-5.13.09-11.06.41-2.79.86-5.9.85-7.85-1.27-.35-3.56-.72-5.37-.72-.44,0-.75.03-.95.05-.27,1.12-.39,4.21-.5,6.54-.29,6.76-.57,10.97-2.63,12.42-.47.32-1.33.75-3.46.75-.08,0-7.68-.03-8.8-3.28l-.14-.38,4.51-50.65,1.55-.15c2.19-.21,3.94-.32,5.33-.32,2.25,0,4.72.23,6.13,1.86,1.46,1.72,1.09,4.01.62,6.93-.26,1.55-.54,3.32-.65,5.4-.09,1.71-.15,5.22-.08,6.82.74.17,2.05.33,3.55.33,1.19,0,1.92-.11,2.26-.2.42-1.36.68-5.8.82-8.53.41-7.35.65-9.33,2.01-10.26.65-.45,1.57-.65,3.06-.65.08,0,7.21.12,8.69,2.17.98,1.36,1.37,4.84-2.49,37.54-.21,1.83-.38,3.21-.47,4-.08.71-.05,1.6-.03,2.55.06,2.25.14,4.8-1.09,6.79-.78,1.28-2.46,1.9-5.1,1.9l.02-.02Z"/>
    <path class="st1" d="M383.57,16.47c7.98,0,4.66,3.64,4.21,12.19-.08,1.39-.26,7.65.09,8.21.33.53,2.93.92,5.27.92,1.75,0,3.35-.23,3.73-.77,1.55-2.29.95-17.51,2.45-18.55.32-.21,1.06-.3,1.98-.3,2.6,0,6.67.71,7.17,1.39,1.46,2.02-2.73,34.99-3.31,40.24-.27,2.55.54,6.29-.85,8.56-.45.74-1.87,1.01-3.5,1.01-2.66,0-5.86-.71-6.2-1.19-1.54-2.16,1.9-14.87,1.18-19.17-1.07-.59-4.66-1.27-7.15-1.27-1.18,0-2.11.15-2.38.54-1.49,2.1-.29,17.07-2.78,18.81-.41.29-1.3.41-2.37.41-2.7,0-6.61-.8-7.02-1.99l4.35-48.7c2.1-.21,3.79-.32,5.15-.32M309.56,19.65c1.75,0,3.2.53,3.5,1.9l5.3,37.78h.21c4.51,0,9.46-1.71,12.9-1.71,3.71,0,5.67,1.98,3.5,10.16l-23.64,3.17-2.16-.63-6.79-47.53c.03-1.46,4.06-3.14,7.17-3.14M439.46,25.39c4.21,0,11.68,1.77,14.13,3.34,2.64,1.68,4.6,5.83,5.86,8.68l-8.15,33.76c-1.04,2.2-6.55,6.11-8.92,6.34h-.14c-1.98,0-13.28-2.57-14.58-3.31-2.22-1.27-5.74-6.78-5.9-9.36-.12-1.93.6-4.33.98-6.29,1.28-6.46,4.47-20.78,6.88-26.41,1.04-2.45,5.45-5.92,7.92-6.55.5-.14,1.16-.18,1.92-.18M441.11,66.76c.44,0,.75-.05.89-.17l6.61-27.08c-.32-2.9-6.26-2.72-8.38-3.82-1.57.29-7.38,25.51-7.62,29.08.15.53,6.13,1.98,8.5,1.98M270.97,28.23c.75,0,1.48.18,2.07.8l23.53,43.1c-.03,1.69-6.29,3.79-7.76,3.79h0c-2.7-.02-1.83-4.15-6.37-4.15-.83,0-1.86.14-3.11.47-6.52,1.71-3.29,5.24-5.18,7.12-1.39,1.4-5.99,1.03-7.64,3.09-1.36-.71-1.66-1.65-1.84-3.08-.95-7.44-.3-15.73-.69-23.2-.21-3.97-2.96-24.45-.74-26.1.24-.18,4.98-1.54,5.63-1.63.68-.09,1.42-.24,2.11-.24M274.11,62.32h4.35c1.09-1.1-3.21-9.31-5.06-10.14l.71,10.14M489.99,40.6h.15c.83.09,12.18,5.12,13.12,5.77,1.37.97,4.6,8.24,4.66,9.87.03.71-1.99,5.77-2.23,5.98-.15.14-.41.18-.77.18-2.29,0-8.23-2.52-8.51-3.44-.38-1.21.74-2.64.56-3.46-.18-.83-6.34-3.79-8.2-3.79-.15,0-.29.02-.38.06l-11.5,26.76c.18.8,6.6,4.06,7.53,4.06h0c1.86-.05,1.58-2.75,3.58-2.93h.35c2.41,0,8,1.81,7.77,4.62-.42,5.24-7.2,8.56-12.12,8.56-.38,0-.72-.02-1.07-.06-1.09-.12-9.83-3.58-10.99-4.26-3-1.77-6.43-8.63-5.87-11.89,4.21-6.41,9.93-29.51,15.53-33.02,1.36-.86,6.67-3,8.36-3M231.91,41.01c.63,0,1.16.15,1.49.5l16.48,36.72c1.15,2.84-1.78,10.28-4.01,11.95-.68.51-8.72,4.15-9.92,4.56-1.45.48-2.82.69-4.14.69-3.37,0-6.37-1.42-9.45-3.44-1.57-5.61-17.49-35.47-16.89-38.62.15-.83,5.33-3.77,7.85-3.77.48,0,.88.11,1.12.36l15.88,34.09c.36.33.98.48,1.74.48,2.85,0,7.61-2.13,7.21-4.29l-15.09-34.29c-.14-1.99,4.91-4.95,7.74-4.95M529.99,60.31c2.76,0,7.55,3.11,7.68,4.56.29,2.9-5.8,8.65-6.55,11.92l14.82-7.14h.08c2.13,0,7.12,3.95,8.98,5.33-.05,1.34-17.99,9.51-20.51,11.33-1.52,1.1-2.26,1.99-2.6,3.91-1.37,7.82-.6,18.31-2.22,26-.18.86.36,1.15-.56,1.15-.14,0-.32,0-.53-.02-1.03-.06-5.57-2.37-6.4-3.02-3.97-3.14-.47-15.97-.47-20.9-.92.2-1.54,1.19-2.04,1.93-1.12,1.63-6.16,11.35-6.72,11.74-.15.11-.36.15-.62.15-2.34,0-8.77-3.67-8.63-5.34l24.84-41.1c.35-.36.85-.51,1.46-.51M183.88,64.54l27.65,40.52c.57.72-.75,2.91-1.33,3.38-1.04.83-5.52,3.05-7.46,3.05-.2,0-.36-.02-.5-.08l-19.33-13.63c-.38,1.45.48,1.96,1.04,2.93,1.55,2.63,10.52,14.69,10.53,16.27.02,1.31-4.91,5.39-7.64,5.39-.41,0-.78-.09-1.07-.3l-25.49-38.95c-2.55-3.59,4.77-6.57,7.4-7.47l20.27,13.46c1.04-1.13-12.93-17.63-11.47-20.15l7.4-4.42M571.55,86.97c.26,0,.48.14.8.3,3.2,1.63,10.37,8.14,13.46,10.84,1.37,1.19,6.13,4.66,6.13,5.84,0,.44-4.72,6.35-5.1,6.55-.21.11-.45.17-.71.17-2.85,0-8.8-5.84-10.81-7.53-.77-.65-.75-1.84-1.61-1.84-.38,0-.91.23-1.75.81-.65.45-4.68,5.72-4.68,6.2,0,2.08,7.83,6.73,9.49,8.75-2.57,5.51-4.38,7.38-6.08,7.38-2.49,0-4.75-4.01-8.78-6.38-.77-.45-1.4-.65-1.92-.65-2.45,0-2.7,4.15-5.36,5.74l-.26,2.08c2.25,1.72,11.08,7.85,11.4,10.04.15,1.04-4.27,6.76-4.94,7.06-.09.05-.2.06-.3.06-1.33,0-4.56-2.26-5.48-2.99-4.98-3.86-9.6-9.01-14.91-12.65-.88-1.89,3.4-6.52,4.77-8.29,8.27-10.67,17.64-20.62,26.04-31.21.24-.21.42-.29.62-.29M139.25,96.28c.32,0,.69.06,1.16.18l32.75,35.38c.74,2.79-2.17,3.74-3.68,5.06-.62.54-.81,1.58-1.28,1.95-.53.39-1.22.56-1.93.56-.44,0-.86-.06-1.25-.18-6.31-1.8-14.58-8.18-21.21-10.31-1.15,1.09,13.89,15.15,14.17,16.6.44,2.22-4.26,7.26-6.76,7.26-.14,0-.27-.02-.41-.05l-33.02-37.1c1.21-.6,5.52-5.92,5.92-6.07.2-.08.42-.11.69-.11,4.38,0,18.62,9.58,23.03,10.05-1.36-3.65-13.86-14.17-14.4-16.44-.68-2.78,2.57-3.67,3.73-4.51,1.04-.75.88-2.29,2.49-2.29M605.79,115.85c.35,0,.48.38.95.8.74.69,5.42,6.25,5.48,6.85l-5.07,14.1s.12.06.23.06c1.66,0,11.02-4.48,14.02-4.48.17,0,.32,0,.45.05.5.12,6.28,6.72,6.29,7.98-.85,1.16-23.44,7.34-27.27,9.3-5.67,2.9-10.82,10.41-16.18,14.26-.36.29-.77.42-1.21.42-2.85,0-7.02-5.45-6.67-6.81.54-2.08,13.61-12.18,15.88-14.79,2.6-3.89,9.84-25.75,12.26-27.36.41-.27.65-.38.85-.38M97.29,139.9c.12,0,.24,0,.35.03l43.95,21.63c.88,1.22-3.21,6.94-4.3,7.5-.63.33-1.21.45-1.74.45-1.65,0-2.81-1.21-3.85-1.21-.09,0-.18,0-.26.03-1.99.42-6.49,5.95-6.44,8.03.03,1.43,1.78,1.96,2.07,3.02.74,2.7-3.98,4.92-4.2,7.74l-1.77.35-29.28-37.32c-4.23-2.61,2.26-10.25,5.48-10.25M117.4,166.57c7.98-3.82-2.26-6.66-6.17-7.95l6.17,7.95M656.84,181.69c.29,0,.57.05.88.17l10.17,18.41c.66,3.67-.86,8.42-2.88,11.52-3.95,1.19-12.09,8.04-15.52,8.41h-.3c-2.19,0-9.9-1.52-10.78-2.4-.57-.57-.68-2.37-1.31-3.4-1.52-2.43-3.29-4.89-4.98-7.21h-.05c-1.51,0-10.61,6.28-12.63,6.85-.17.05-.32.06-.48.06-3.11,0-5.84-8.15-5.24-9.1.38-.6,10.85-5.42,12.71-6.47,7.68-4.38,21.01-13.58,28.51-16.38.63-.24,1.25-.48,1.9-.48M646.66,209.96l11.05-6.17c-.32-1.84-3.2-8.15-5.12-8.15h-.08c-1.39.14-10.5,5.52-10.5,6.76l4.66,7.56M62.75,201.52c3.41,0,6.1,1.1,5.67,3.62-.06.35-2.9,6.08-3.14,6.34-.57.6-1.36.74-2.17.74-.77,0-1.55-.14-2.19-.14-.39,0-.72.05-.98.2-.66.41-3.4,6.66-3.05,8.09.09.38,6.17,3.34,6.99,3.38h.14c3.52,0,4.57-8.81,7.06-10.85,1.49-1.22,7.05-2.72,10.02-2.72.47,0,.88.03,1.19.12.71.18,11.59,5.24,12.1,5.66.66.54,3.88,9.1,3.8,10.26-2.61,4.14-4.14,13.24-8.68,15.24-1.75.77-5.1,1.6-8.07,1.6-3.35,0-6.22-1.06-5.69-4.44.05-.29,2.16-5.09,2.35-5.3,1.15-1.33,4.39-.45,5.46-1.06,1.16-.65,4.2-7.12,2.34-8.92-.68-.66-5.66-2.52-7.41-2.52-.21,0-.39.03-.48.09-.56.35-3.62,9.28-5.49,10.79-1.66,1.34-6.64,2.69-9.72,2.69-.6,0-1.13-.05-1.54-.17-1.07-.29-10.85-5.22-11.53-5.86-1.63-1.49-3.86-7.86-3.71-10.08.09-1.18,4.39-10.96,5.21-12.23,1.84-2.85,7.24-4.59,11.52-4.59M673.14,229.62c3.62,0,9.73,2.66,11.27,5.52.63,1.18,4.23,11.23,4.29,12.24.18,3.12-2.97,9.7-5.89,11.15-9,4.48-21.3,7.12-30.62,11.43-.12.02-.26.03-.41.03-2.31,0-8.27-2.17-9.57-3.49-.54-.56-6.05-13.45-6.13-14.22-.33-3.4,3.43-9.84,6.52-11.5,3.76-2.02,25.54-10.32,29.49-11.08.32-.06.66-.09,1.04-.09M675.14,240.45l-27.5,9.72c-1.61,1.49,1.3,8.84,4,8.84.14,0,.26-.02.38-.05l24.83-9.09c2.72-1.83-1.95-6.9-1.72-9.43M37.21,242.92h.24c.6.06,7.38,2.48,7.7,2.73,1.19,1,5.77,11.82,2.73,12.09l-14.79-5.09c0-2.79.59-9.75,4.12-9.75M34.3,270.75c2.31,0,13.3,2.48,15.56,3.15,1.04.32,2.64.94,3.41,1.66.51.48,4.91,7.56,4.98,8.07.39,2.58-2.99,9.13-1.98,12.06.72,2.08,13.52,2.91,14.82,4.78.91,1.31-1.74,7.44-1.9,9.42l-48.49-11.2-.62-.77c-.09-4.08,1.84-7.56,2.64-10.99.6-2.57,1.03-8.62,2.29-10.75.77-1.3,7.55-5.3,9.1-5.43h.18M44.53,293.31c.39,0,.65-.05.75-.12l1.95-8.63c-.65-.94-8.51-2.75-11.64-2.75-.56,0-.97.06-1.15.2-1.04.75-1.95,8-1.3,9.01.33.53,8.74,2.32,11.4,2.32M688.15,278.9c4.87,0,10.34,2.31,12,7.12.71,2.05,2.43,10.66,2.29,12.57-.21,3.18-3.77,6.29-5.13,9.19l-34.08,7.24c-2.2,0-8.6-3.05-9.81-4.72-.45-.63-3.67-14.22-3.56-15.18.18-1.77,3.71-7.59,5.1-8.71,1.52-1.22,4.51-1.75,6.44-2.23,7-1.78,18.23-4.47,25.2-5.21.5-.06,1.03-.08,1.54-.08M663.29,304.86l27.67-5.98c1.48-1.15-.68-9.63-1.71-9.89l-27.32,5.86c-3.21.83.69,9.95,1.36,10.02M26.9,321.66c3.32,0,7.61.44,9.07.89,2.38.74,2.63,2.78,3.79,3.79.62.53,1.16.75,1.66.75,2.05,0,3.41-3.59,5.9-4.03.08,0,.21-.02.39-.02,1.72,0,7.64.53,8.78.69,3.44.5,9.92,6.23,10.19,9.69.17,2.01-1.61,20.45-2.48,21.07l-49.67-3.31c-1.61-1.54.26-7.52.39-9.78.32-5.64-1.27-10.6,2.87-15.23.69-.77,4.48-3.8,5.28-4.12.69-.27,2.13-.39,3.82-.39M31.64,342.49c.83,0,1.75-.03,2.75-.09,3.11-9.51,1.81-10.35-7.89-10.46-2.84,8.27-1.78,10.55,5.15,10.55M50.34,344.12c1.21,0,2.67-.17,4.47-.5,1.95-7.86,1.21-10.08-4.45-10.08-1.19,0-2.61.11-4.27.27-1.07,6.91-1.21,10.31,4.26,10.31M699.69,328.65c1.19,0,2.31.03,3.34.08h.32c.48,0,.97-.05,1.42-.05.92,0,1.74.18,2.14,1.28.54,1.43,1.34,7.12.54,8.24-1.51,2.11-37.58,1.74-39.33,3.74-1.84,2.13,1.3,15.09-.26,16.39-.17-.03-.36-.03-.56-.03-1.71,0-4.23.83-6.23.83-1.28,0-2.37-.33-2.91-1.43l-1.71-25.24c.33-.54,9.45-1.39,11.12-1.54,8.65-.78,22.64-2.28,32.1-2.26M223.64,616.44c2.46,0,16.16,10.61,19.17,11.47,1.83,1.69-3.05,7.74-4.5,7.77h-.03c-2.54,0-9.18-6.49-11.82-6.49-.14,0-.26.02-.36.05-.77.23-4.3,5.49-4.01,6.66.51,2.05,9.22,5.66,9.39,6.75.14.92-3.03,6.05-3.68,6.46-.44.27-.88.38-1.34.38-3.02,0-6.66-4.89-9.66-4.89-1.49,0-2.84,1.21-3.88,4.83-1.36,4.78,7.21,6.04,9.81,9.07,1.92,2.23-2.07,8.07-4.12,8.07-.09,0-.17,0-.26-.03-2.49-.68-9.1-5.89-11.36-7.67l-7.38-3.7.29-2.13c7.55-12.33,14.99-24.87,23.54-36.57.06-.03.12-.03.21-.03M496.2,619.71c2.01,0,7.32,1.27,8.63,2.45.35.32,1.98,2.94,2.07,3.34.41,1.75-4.66,5.64-5.95,5.75h-.11c-1.27,0-1.6-1.99-3.62-1.99-.42,0-.92.09-1.51.29-.66.23-4.54,2.72-4.8,3.24-.72,1.39,3.37,7.23,3.77,7.29.11.02.23.03.33.03,2.73,0,6.96-4.78,9.77-5.15.09,0,.21-.02.35-.02,1.84,0,6.97,1.06,8.12,1.61,1.34.68,7.7,10.96,7.82,12.51.18,2.17-.88,6.97-2.22,8.71-.78,1.01-11,7.5-12,7.58h-.23c-2.14,0-4.8-1.9-7.17-1.9h-.18c-7.03-8.48-12.35-18.56-17.99-28.09.72-2.88.68-7,2.76-9.3,1.1-1.21,10.34-6.28,11.98-6.37h.2M504.44,655.3c1.83,0,6.54-2.31,7-3.08.86-1.45-2.6-7.43-4-7.77-.05,0-.11-.02-.18-.02-1.45,0-6.2,2.99-6.47,4.08-.3,1.18,2.63,6.6,3.31,6.76.09.03.21.03.33.03M260.79,637.87c.86,0,11.59,4.08,12.57,4.72,4.01,2.63,6.34,14.73,1.13,14.81h0c-.47,0-6.38-2.57-6.61-2.85-.65-.86,1.1-2.45-.21-4.06-.2-.26-5.31-3.08-5.63-3.11h-.09c-1.93,0-5.4,6.87-4.18,8.63.57.83,7.21,2.52,8.77,3.55,2.69,1.8,4.45,7.94,3.79,11.09-.15.71-4.06,9.99-4.41,10.44-.91,1.19-7.46,3.71-9.69,3.71-.15,0-.27,0-.38-.03-.98-.21-11.5-4.65-11.97-5.12-2.54-2.52-4.75-14.16.24-14.14.17,0,.35,0,.53.05.45.06,5.36,2.72,5.64,3.05.94,1.09-.11,2.11.08,2.85.33,1.4,5.12,3.47,7.44,3.47.42,0,.77-.08.98-.23.33-.24,2.69-6.97,2.17-7.79l-9.86-3.89c-.44-.35-3.49-8.03-3.49-8.86,0-1.13,4.57-11.38,5.46-12.33.92-.98,6.44-3.88,7.67-3.95h0M457.65,640c2.4,0,7.67,2.78,9.04,4.72,4.69,6.66,7.29,20.27,11.26,27.85.38,3-2.52,6.44-3.49,9.25-3.15.21-10.28,5.09-12.47,5.19h-.05c-1.4,0-8.18-2.88-9.06-3.88l-11.53-29.07c-.26-2.52,2.54-8.32,4.68-9.72.97-.63,10.67-4.35,11.59-4.35h.03M461.11,677.05c1.93,0,5.48-1.95,6.94-2.37,1.15-1.83-7.83-21.13-8.95-24.54-.24-.26-.71-.38-1.31-.38-2.64,0-7.76,2.25-6.54,4.57,1.45,2.7,7.98,21.88,9.01,22.52.21.14.5.2.83.2M293.05,649.81c1.15,0,2.55.51,3.52.71,2.61.54,20.3,4.62,20.93,5.49.44.6-.92,7.3-1.9,7.97-.38.26-.78.35-1.25.35-1.68,0-3.83-1.31-5.78-1.31-.69,0-1.36.17-1.96.6l-8.21,32.9c-.3.51-1.09.69-2.08.69-2.38,0-5.9-1.12-6.17-1.54-1.33-2.04,6.9-29.31,7.73-33.7.09-3.4-6.97-1.89-8.2-4.53-.27-.6,1.21-6.2,1.8-6.99.36-.48.94-.65,1.58-.65M415.98,653.23c2.61,0,8.21,3.88,9.25,6.16l6.02,29.49c-.03,2.04-3.64,7.89-5.12,8.68-.65.35-12.03,2.54-13.25,2.54h-.06c-1.89-.18-7.43-3.86-8.21-5.6l-6.02-30.23c2.96-8.81,6.69-8.78,14.73-9.95.85-.12,1.66-1.01,2.45-1.09h.23M413.52,690.74l8.29-1.48-5.24-25.91c-.26-.29-.86-.41-1.61-.41-2.43,0-6.57,1.22-6.84,2.16l5.42,25.66M367.92,659.39c3.7,0,7.74.38,8.98,1.28.38.27,4.68,5.01,4.77,5.34.89,3.18.15,7.77.17,11.14l-16.54,15.32-.69,3.29c.36-.06.75-.08,1.18-.08,1.39,0,3.06.23,4.47.23.71,0,1.36-.06,1.86-.24,1.3-.47,1-2.34,1.92-3.15.85-.74,2.9-1.01,4.8-1.01,2.02,0,3.88.3,3.88.63v11.21c-.18.56-1.16,1.06-1.81,1.09l-24.92.66c-1-4.53-1.3-9.66-.23-14.23l16.13-14.99c2.04-5.93.65-7.52-2.75-7.52-1.33,0-2.97.24-4.83.56-.94.17.03,2.54-1.1,3.35-.42.3-3.21.45-5.31.45-1.04,0-1.9-.03-2.22-.11-.92-.21-1.31-3.09-1.25-4,.17-2.96,4.44-7.89,7.26-8.74,1.12-.33,3.59-.53,6.25-.53M383.57,12.7c-1.45,0-3.26.11-5.51.33l-3.11.3-.27,3.11-4.35,48.7-.08.8.26.75c1.49,4.32,9.07,4.54,10.58,4.54,2.04,0,3.47-.35,4.54-1.09,2.79-1.96,3.11-6.32,3.44-13.89.06-1.45.15-3.38.27-4.75.91.05,1.87.18,2.72.33-.14,1.8-.48,4.17-.77,6.07-.97,6.6-1.39,10.14.23,12.42.33.47,2.32,2.79,9.28,2.79,1.24,0,5,0,6.72-2.81,1.52-2.48,1.43-5.45,1.37-7.83-.03-.88-.05-1.71,0-2.29.09-.78.24-2.17.47-3.98,4.26-35.95,3.41-37.11,2.14-38.86-2.07-2.87-9.39-2.96-10.22-2.96-1.92,0-3.15.29-4.14.98-2.16,1.49-2.38,4-2.81,11.71-.11,2.04-.29,5.12-.53,6.93h-.68c-.62,0-1.19-.03-1.71-.08,0-1.69.05-3.94.11-5.09.11-1.98.38-3.68.63-5.19.51-3.12.98-6.07-1.04-8.45-1.9-2.23-4.89-2.52-7.56-2.52h0v.02ZM309.56,15.88c-3.77,0-10.87,2.01-10.94,6.85v.3l.03.3,6.79,47.53.35,2.4,2.32.68,2.16.63.77.23.8-.11,23.64-3.17,2.51-.33.65-2.43c1.54-5.81,1.36-9.54-.6-12.09-1.43-1.87-3.64-2.81-6.55-2.81-1.96,0-4.08.41-6.31.83-1.18.23-2.38.45-3.56.62l-4.81-34.29v-.15l-.05-.15c-.26-1.15-1.51-4.87-7.18-4.87h0v.03ZM439.46,21.61c-1.13,0-2.05.11-2.85.3-3.4.88-8.87,5.07-10.44,8.72-2.54,5.92-5.77,20.36-7.12,27.17-.09.44-.2.91-.3,1.37-.41,1.81-.88,3.88-.75,5.9.24,3.77,4.47,10.49,7.79,12.39,2.17,1.25,14.2,3.8,16.45,3.8.18,0,.35,0,.48-.02,3.67-.35,10.4-5.1,11.98-8.48l.17-.35.09-.38,8.15-33.76.3-1.24-.51-1.16c-1.72-3.92-3.92-8.21-7.27-10.34-3.32-2.11-11.65-3.92-16.15-3.92h0v-.02ZM436.81,62.27c1.06-5.57,3.8-17.07,5.43-22.1.08,0,.15.03.23.05.53.11,1.33.27,1.98.44l-5.39,22.07c-.74-.14-1.52-.3-2.25-.47h0v.02ZM270.97,24.45c-.82,0-1.58.12-2.19.21l-.44.06s-5.93,1.28-7.35,2.32c-2.84,2.1-3.05,6.5-1.21,24.83.2,1.99.38,3.7.42,4.48.15,2.84.14,5.78.14,8.9,0,4.83-.03,9.83.59,14.56.18,1.37.54,4.23,3.83,5.95l2.75,1.43,1.87-2.32c.41-.24,1.61-.51,2.35-.66,1.74-.38,3.7-.8,5.1-2.22,1.66-1.69,1.77-3.68,1.81-4.87,0-.21.02-.48.05-.65.18-.12.62-.36,1.58-.6,1.09-.29,1.77-.35,2.16-.35s.51.06.51.06c.06.06.29.42.44.66.69,1.1,2.16,3.41,5.39,3.43,1.01,0,11.47-1.8,11.58-7.49v-1l-.47-.88-23.53-43.1-.24-.44-.35-.36c-.86-.91-2.38-1.98-4.8-1.98h0v.02ZM489.99,36.83c-2.82,0-8.9,2.66-10.37,3.58-4.15,2.61-7.23,10.28-11.46,21.7-1.87,5.04-3.79,10.26-5.22,12.45l-.44.66-.14.78c-.82,4.78,3.28,13.19,7.68,15.79,1.1.65,10.49,4.53,12.48,4.75.48.06.98.08,1.49.08,6.25,0,15.24-4.18,15.88-12.03.09-1.19-.12-2.99-1.74-4.74-2.52-2.73-7.24-3.95-9.8-3.95-.24,0-.47,0-.68.03-2.1.18-3.35,1.36-4.09,2.34-.63-.3-1.36-.68-2.02-1.04l9.06-21.07c.69.29,1.43.62,2.07.95-.18.86-.24,1.89.11,2.99,1.21,3.88,9.93,6.08,12.12,6.08,1.3,0,2.4-.38,3.24-1.12,1.45-1.25,3.59-7.35,3.53-8.95-.09-2.43-3.55-10.91-6.26-12.81-.26-.18-1.03-.72-7.24-3.47-6.46-2.85-7.08-2.91-7.67-2.97-.17-.02-.35-.03-.53-.03h-.02ZM231.91,37.24c-3.44,0-7.61,2.25-9.66,4.44-1.66,1.78-1.92,3.44-1.86,4.53l.05.66.27.6,14.28,32.45c-.59.3-1.39.59-2.1.74l-15.03-32.3-.26-.54-.41-.44c-.66-.72-1.87-1.57-3.88-1.57-2.9,0-10.84,3.03-11.56,6.85-.48,2.57,1.09,6.49,9.86,24.72,3.06,6.35,6.54,13.57,7.11,15.62l.38,1.36,1.18.77c2.88,1.89,6.81,4.06,11.52,4.06,1.75,0,3.55-.3,5.33-.89.92-.3,9.69-4.14,10.99-5.1,3.28-2.45,7.18-11.65,5.25-16.41l-.03-.06-.03-.06-16.48-36.72-.26-.59-.44-.47c-.72-.77-2.05-1.68-4.23-1.68h0l.02.02ZM529.99,56.54c-2.14,0-3.46.91-4.18,1.68l-.29.3-.21.36-24.84,41.1-.47.77-.08.89c-.11,1.42.44,2.78,1.63,4.06,1.99,2.16,7.4,5.34,10.76,5.34,1.07,0,2.02-.29,2.81-.85.47-.33.77-.62,1.37-1.57.09,3.61.91,6.78,3.32,8.68.95.75,6.25,3.7,8.53,3.83.3.02.54.03.74.03,1.4,0,2.52-.45,3.34-1.36.74-.83,1.07-1.86.98-3.06.88-4.3,1.07-9.24,1.25-14.02.17-4.3.33-8.38.94-11.82.12-.71.15-.81,1.1-1.51.75-.54,4.71-2.54,7.59-3.98,12.75-6.41,14.38-7.35,14.47-10.29l.06-1.96-1.57-1.18-.57-.42c-4.84-3.67-7.98-5.66-10.67-5.66h-.26l-.77.03-.69.33-3.46,1.66c.47-1.15.69-2.28.59-3.43-.42-4.35-7.85-7.95-11.44-7.95h.02ZM185,59.48l-3.05,1.83-7.4,4.42-.85.5-.48.85c-1.31,2.26-.53,4.87,2.05,9.09l-5.49-3.65-1.55-1.03-1.77.6c-5.77,1.99-9.18,4.57-10.17,7.65-.6,1.87-.29,3.82.89,5.49l25.46,38.91.38.57.54.41c.92.68,2.07,1.04,3.31,1.04,3.55,0,7.43-2.97,9.16-4.74,1.55-1.57,2.26-2.99,2.25-4.47-.02-1.19-.45-2.35-2.38-5.39l4.2,2.96.42.3.5.17c.54.2,1.13.29,1.75.29,3.28,0,8.57-2.88,9.81-3.88,1.21-.97,2.64-3.24,2.85-5.25.14-1.21-.15-2.35-.82-3.26l-27.6-40.46-2.01-2.93h0v-.02ZM571.55,83.19c-.78,0-1.98.21-3.12,1.24l-.24.21-.2.26c-3.89,4.91-8.1,9.8-12.16,14.52-4.65,5.4-9.46,10.99-13.9,16.72-.2.26-.45.57-.75.94-2.75,3.35-6.19,7.52-4.45,11.24l.44.94.86.59c2.82,1.93,5.55,4.44,8.21,6.87,2.1,1.92,4.27,3.91,6.52,5.66,1.46,1.13,5.15,3.77,7.8,3.77.68,0,1.31-.14,1.89-.41,1.66-.77,7.58-7.53,7.08-11.02-.36-2.57-2.64-4.94-10.38-10.69.57-.77,1.01-1.54,1.39-2.2.03-.05.06-.11.09-.17,1.16.78,2.19,1.75,3.18,2.72,1.98,1.87,4.01,3.82,6.91,3.82,4.44,0,7.18-4.59,9.49-9.55l1-2.14-1.51-1.83c-.88-1.06-2.25-2.11-4.42-3.76-.94-.71-2.41-1.81-3.44-2.7.45-.6.97-1.27,1.42-1.86.26.23.54.48.86.77,4.48,4.01,8.48,7.34,12,7.34.91,0,1.75-.21,2.51-.62.62-.33,1-.54,3.86-4.18,2.76-3.5,3.21-4.3,3.21-5.67.02-2.63-2.23-4.56-6.23-7.76-.5-.39-.92-.72-1.19-.97-.47-.41-1.01-.89-1.63-1.43-4.98-4.39-9.7-8.44-12.6-9.92l-.08-.05c-.45-.23-1.3-.66-2.43-.66h0l.03-.02ZM139.25,92.51c-3.21,0-4.53,2.35-4.97,3.15l-.27.14c-1.46.77-5.89,3.14-4.66,8.18.29,1.16,1.01,2.29,2.69,4.12-3.23-1.54-5.67-2.41-7.64-2.41-.75,0-1.46.14-2.11.39-.97.39-1.39.86-3.17,2.87-.85.95-2.55,2.87-3.21,3.44l-4.21,2.1,3.28,3.68,33.02,37.1.75.85,1.1.29c.44.12.89.17,1.36.17,3.73,0,7.06-3.71,8-4.86,1.42-1.72,2.99-4.33,2.48-6.93-.2-1.01-.65-1.8-2.4-3.76,1.6.75,3.18,1.4,4.69,1.83.74.21,1.51.32,2.29.32,1.6,0,3.06-.45,4.21-1.33.94-.71,1.39-1.6,1.68-2.19.02-.03.03-.06.05-.09.18-.14.41-.29.62-.42,1.57-1.06,5.24-3.53,3.98-8.26l-.24-.91-.63-.69-32.75-35.38-.72-.78-1.03-.29c-.78-.23-1.49-.33-2.17-.33h0v.02ZM605.79,112.08c-1.27,0-2.23.54-2.94,1.01-2.05,1.37-3.64,4.84-8.42,16.96-1.69,4.3-3.79,9.6-4.75,11.24-.89.94-3.46,3.12-5.74,5.07-8.1,6.91-10.2,8.93-10.76,11.05-.18.66-.71,2.7,2.16,6.4,1.19,1.54,4.38,5.13,8.17,5.13,1.28,0,2.49-.41,3.49-1.19,2.54-1.84,4.94-4.32,7.26-6.7,2.79-2.87,5.66-5.83,8.35-7.2,1.55-.8,8.12-2.82,13.4-4.47,13.25-4.11,14.17-4.53,15.21-5.98l.72-1.01v-1.25c-.03-1.19-.33-2.54-3.85-6.78-3.65-4.41-4.39-4.59-5.34-4.83-.42-.11-.86-.15-1.34-.15-1.9,0-4.5.85-8.07,2.19l2.46-6.82.29-.81-.09-.86c-.12-1.19-.57-2.04-3.32-5.39-.86-1.04-2.66-3.18-3.34-3.83-.03-.03-.06-.06-.09-.09-.36-.42-1.46-1.72-3.44-1.72h0v.03ZM97.29,136.12h0c-4.26,0-9.12,5.07-10.29,9.27-.86,3.03-.05,5.8,2.2,7.53l28.95,36.89,1.42,1.81,2.26-.44,1.77-.35,2.84-.56.2-2.73c.18-.35.81-1.06,1.24-1.52,1.51-1.66,3.77-4.18,2.84-7.64-.32-1.16-1-1.98-1.55-2.54.65-1.09,1.89-2.61,2.81-3.44.88.41,2.07.89,3.59.89,1.18,0,2.34-.29,3.46-.86,2.22-1.13,5.64-6.32,6.29-8.98.48-1.95-.09-3.29-.63-4.08l-.56-.77-.86-.42-43.95-21.63-.44-.21-.48-.09c-.35-.08-.71-.11-1.09-.11h0v-.03ZM656.84,177.92c-1.28,0-2.32.39-3.08.68l-.14.05c-5.48,2.04-13.48,7.03-20.53,11.43-3.17,1.98-6.16,3.85-8.54,5.21-.59.35-2.73,1.37-4.62,2.29-8.32,4.03-8.66,4.29-9.4,5.45-1.9,3.02,1.03,8.68,1.65,9.78,2.32,4.21,4.98,5.1,6.79,5.1.5,0,1.01-.08,1.49-.21,1.3-.36,2.97-1.33,6.78-3.64,1.03-.62,2.45-1.48,3.62-2.14,1.07,1.51,2.1,3,3.02,4.47.08.17.18.56.26.83.27,1.01.62,2.26,1.61,3.26,2.51,2.54,12.77,3.52,13.46,3.52.27,0,.51,0,.71-.03,2.55-.27,5.43-2.04,9.87-4.91,2.23-1.45,5.01-3.23,6.32-3.64l1.31-.39.75-1.15c2.35-3.58,4.33-9.37,3.44-14.26l-.11-.6-.3-.54-10.17-18.41-.65-1.18-1.25-.5c-.72-.29-1.49-.44-2.28-.44h0l-.03-.02ZM646.82,203.03c1.51-1.03,3.62-2.31,5.1-3.08.38.59.78,1.36,1.13,2.1l-5.1,2.85-1.15-1.86h0l.02-.02ZM62.75,197.75c-5.12,0-11.89,1.98-14.69,6.32-.63.98-5.61,11.52-5.8,13.99-.24,3.26,2.31,10.75,4.92,13.15,1.37,1.27,11.61,6.31,13.1,6.72.74.2,1.55.29,2.52.29,2.82,0,7.03-.91,9.95-2.26-.39.97-.68,1.78-.74,2.11-.44,2.88.59,4.8,1.52,5.89,1.65,1.92,4.3,2.9,7.89,2.9s7.5-1,9.58-1.92c4.42-1.95,6.44-7.2,8.21-11.83.74-1.93,1.43-3.74,2.13-4.84l.5-.8.06-.94c.15-2.11-3.14-11.8-5.18-13.46-1.34-1.09-12.71-6.17-13.55-6.38-.62-.17-1.31-.24-2.13-.24-2.51,0-7.02.89-10.11,2.23.62-1.31,1.1-2.48,1.16-2.93.3-1.89-.18-3.7-1.37-5.1-1.61-1.9-4.39-2.91-8.03-2.91h0l.05.03ZM63.11,215.99c.75,0,1.45-.09,2.1-.26-.09.21-.17.42-.26.63-.38.95-.95,2.38-1.43,3.26-.72-.32-1.61-.74-2.41-1.15.3-.83.68-1.78,1.03-2.54.3.02.63.05.98.05h0ZM78.5,229.02c.47-1.03.98-2.2,1.54-3.55.06-.14.12-.27.17-.41.8.26,1.71.57,2.4.86-.2.86-.65,2.05-1.09,2.85h-.08c-.85,0-1.9,0-2.96.24h.02ZM673.14,225.85c-.62,0-1.21.05-1.75.15-4.38.83-26.44,9.24-30.58,11.46-4.14,2.23-9,9.99-8.48,15.18.14,1.4,5.64,14.94,7.18,16.5,2.14,2.19,9.15,4.62,12.27,4.62.36,0,.69-.03,1.03-.08l.5-.09.45-.21c4.23-1.95,9.28-3.61,14.19-5.21,5.69-1.86,11.56-3.79,16.56-6.26,4.35-2.16,8.24-10.28,7.97-14.75-.12-2.17-4.18-12.78-4.72-13.81-2.48-4.59-10.29-7.52-14.61-7.52h0v.02ZM651.2,252.91l21.51-7.61c.08.17.17.33.24.5.17.35.39.82.59,1.27l-21.4,7.83c-.35-.54-.71-1.3-.94-1.99h0ZM37.21,239.15c-4.89,0-7.85,5.04-7.89,13.49v2.7l2.55.88,14.79,5.09.75.26.8-.08c1.96-.18,3.56-1.49,4.17-3.43,1.37-4.41-2.85-13.67-4.81-15.3-1.34-1.12-8.81-3.52-9.78-3.59-.2-.02-.39-.03-.59-.03h0l.02.02ZM34.3,266.98c-.2,0-.36,0-.51.02-2.66.23-10.52,4.75-12.01,7.26-1.15,1.93-1.65,4.84-2.22,8.75-.18,1.22-.35,2.37-.51,3.06-.23.95-.57,1.99-.95,3.09-.88,2.55-1.86,5.45-1.78,8.83l.03,1.28.8,1,.62.77.81,1.03,1.28.3,48.49,11.2,4.23.98.38-4.33c.05-.39.47-1.72.74-2.61,1.19-3.88,2.14-6.94.51-9.28-1.42-2.04-4.08-2.66-9.49-3.76-1.39-.29-3.44-.69-4.77-1.07.2-1.13.66-2.75.95-3.73.74-2.54,1.39-4.72,1.09-6.69-.11-.71-.18-1.15-2.85-5.46-2.54-4.09-2.97-4.5-3.29-4.8-1.49-1.39-3.92-2.22-4.91-2.51-2.1-.63-13.64-3.32-16.63-3.32h0v-.02ZM36.76,288.21c.08-.82.2-1.74.35-2.54,1.74.21,4.03.69,5.75,1.16l-.56,2.46c-1.74-.27-3.95-.71-5.54-1.09h0ZM688.15,275.13c-.65,0-1.3.03-1.93.11-5.46.57-14.13,2.35-25.73,5.3-.3.08-.63.15-.98.24-2.22.53-4.97,1.18-6.9,2.72-1.98,1.58-6.2,8.24-6.5,11.29-.18,1.83,3.02,16.04,4.26,17.76,2.05,2.84,9.64,6.28,12.86,6.29h.41l.39-.08,34.08-7.24,1.84-.39.8-1.71c.35-.75,1.06-1.71,1.8-2.72,1.63-2.22,3.49-4.74,3.68-7.82.18-2.76-1.78-11.97-2.51-14.05-2.31-6.67-9.49-9.66-15.58-9.66h0l.02-.05ZM664.54,298.14l22.55-4.83c.2.78.39,1.68.5,2.43l-22.34,4.83c-.29-.8-.56-1.71-.71-2.43h0ZM26.9,317.89c-3.15,0-4.45.35-5.21.66-1.68.66-5.96,4.29-6.7,5.12-4.11,4.59-3.95,9.43-3.83,13.72.05,1.31.08,2.55,0,3.82-.02.41-.2,1.33-.35,2.16-.71,3.77-1.51,8.06,1.13,10.56l1,.95,1.36.09,49.67,3.31,1.36.09,1.1-.8c1.37-1,1.95-1.4,3.17-12.66,0-.09,1.04-9.64.88-11.76-.42-5.34-8.36-12.39-13.42-13.12-1.22-.18-7.32-.74-9.33-.74-.42,0-.74.02-1.04.08-2.37.41-3.91,1.95-5.06,3.14-.75-1.15-2.05-2.78-4.54-3.55-2.11-.65-6.93-1.06-10.19-1.06h0v-.02ZM28.8,338.46c0-.38.06-1.16.45-2.67,1.09.05,2.2.14,2.87.3-.03.47-.17,1.25-.54,2.63-1.61,0-2.41-.15-2.78-.26h0ZM49.41,337.34c.35,0,.66-.02.95-.02.85,0,1.36.06,1.65.12.03.42,0,1.25-.32,2.82-.5.05-.95.08-1.36.08-.5,0-.83-.05-1.01-.08-.12-.6-.05-1.77.09-2.91h0v-.02ZM699.69,324.87c-8.07,0-18.99,1.03-27.74,1.86-1.68.15-3.26.3-4.69.44-12.63,1.13-12.95,1.65-13.99,3.29l-.65,1.04.08,1.22,1.71,25.24.05.74.33.66c.65,1.33,2.34,3.55,6.29,3.55,1.4,0,2.82-.27,4.08-.5.8-.15,1.71-.32,2.16-.32l1.66.24,1.31-1.09c2.26-1.9,1.96-5,1.4-10.6-.17-1.65-.41-4.12-.41-5.69,3.29-.47,10.73-.8,16.41-1.04,18.64-.83,21.21-1.22,22.82-3.5,2.38-3.35-.06-11.67-.08-11.74-.51-1.39-1.95-3.73-5.67-3.73-.29,0-.57,0-.88.03-.18,0-.36.02-.54.02h-.12c-1.06-.06-2.25-.08-3.53-.08h0l.02-.05ZM223.64,612.66c-.6,0-1.19.12-1.74.36l-.92.41-.6.81c-7.56,10.32-14.31,21.4-20.83,32.1-.97,1.57-1.92,3.15-2.88,4.72l-.42.68-.11.8-.29,2.13-.35,2.67,2.4,1.21,7.03,3.52c6.55,5.13,10.14,7.49,12.39,8.1.41.11.83.17,1.25.17,3.59,0,6.35-3.92,7.41-6.25,1.43-3.12,1.27-6.05-.44-8.06-1.42-1.66-3.52-2.72-5.54-3.74-1.09-.56-2.85-1.45-3.44-2.04.24-.8.45-1.31.63-1.65.65.36,1.54,1.03,2.14,1.46,2.02,1.49,4.33,3.18,7.08,3.18,1.19,0,2.32-.32,3.34-.95,1.6-1,5.89-7.21,5.42-10.23-.35-2.28-2.16-3.31-5.46-5.18-.89-.5-2.28-1.3-3.29-1.95.27-.45.57-.95.88-1.39.95.59,2.14,1.42,2.99,2.01,3.43,2.41,5.64,3.88,7.97,3.88h.11c3.86-.08,7.3-5.81,8.06-7.79,1.4-3.7-.27-5.8-1.06-6.54l-.66-.62-.88-.24c-1-.36-5-3.05-7.64-4.83-7.92-5.33-10.38-6.78-12.56-6.78h0ZM496.2,615.94h-.38c-3.15.15-13.06,5.92-14.59,7.59-2.26,2.48-2.79,5.86-3.21,8.57-.14.88-.26,1.69-.42,2.34l-.38,1.51.78,1.33c1.09,1.84,2.17,3.71,3.24,5.58,4.53,7.83,9.21,15.92,15.08,23l1.19,1.43,1.87-.08h0c.53,0,1.57.41,2.41.74,1.42.54,3.02,1.18,4.77,1.18.17,0,.32,0,.47-.02,2.69-.18,13.54-7.47,14.73-9.03,2.13-2.75,3.21-8.63,3-11.32-.23-2.84-7.15-14.22-9.9-15.58-1.34-.66-4.78-1.43-7.41-1.81.78-.74,1.43-1.46,1.84-2.02,1.16-1.61,1.58-3.2,1.24-4.72-.3-1.36-2.38-4.54-3.21-5.3-2.35-2.13-8.9-3.43-11.15-3.43h0l.03.02ZM495.16,634.25c.63-.42,1.3-.85,1.72-1.09.3.3.72.71,1.28,1.07-.09.06-.18.14-.29.2-.51.36-1.22.88-1.86,1.27-.3-.48-.62-1-.88-1.46h.02ZM505,649.64c.44-.3.95-.62,1.42-.88.32.51.65,1.1.91,1.65-.51.24-1.07.5-1.58.69-.26-.47-.51-1-.74-1.46h0ZM260.79,634.09h-.26c-2.46.17-8.78,3.65-10.19,5.16s-6.47,12.36-6.47,14.91c0,.91,1.27,4.94,2.66,8.09-.56-.23-1.01-.39-1.3-.44-.36-.06-.72-.08-1.07-.08-2.67,0-4.91,1.55-5.98,4.15-1.98,4.78.08,13.46,3.06,16.45,1.49,1.49,13.28,6.01,13.86,6.13.36.08.74.11,1.15.11,2.75,0,10.7-2.61,12.68-5.19.92-1.21,4.87-10.91,5.1-11.97.63-3-.14-7.41-1.92-10.84,1.07.36,1.96.59,2.38.59,3.08-.05,5.43-1.95,6.35-5.1,1.4-4.84-.86-13.66-5.4-16.63-1.03-.68-12.56-5.34-14.64-5.34h-.02ZM261.64,653.64c.23-.59.56-1.25.88-1.81.54.29,1.1.6,1.6.89-.11.47-.2,1.07-.15,1.72-.21-.08-.44-.15-.68-.23-.5-.17-1.1-.38-1.66-.57h.02ZM254.47,670.05c.05-.51.03-1.1-.12-1.72l2.46.97c-.15.5-.32,1.01-.47,1.51-.63-.21-1.31-.48-1.87-.75h0ZM457.65,636.22h-.06c-.63,0-1.34,0-7.08,2.19-5.45,2.07-6.28,2.61-6.55,2.79-3.31,2.19-6.75,9.37-6.35,13.27l.06.51.2.48,11.53,29.07.24.6.44.5c1.74,1.98,9.49,5.16,11.89,5.16h.23c1.74-.09,3.64-1.03,6.84-2.67,1.65-.85,4.71-2.43,5.71-2.52l2.51-.17.82-2.38c.23-.68.71-1.57,1.22-2.52,1.25-2.34,2.82-5.25,2.43-8.42l-.09-.68-.32-.6c-1.58-3.02-2.97-7.21-4.44-11.65-2.02-6.1-4.11-12.39-7.08-16.62-2.08-2.96-8.54-6.32-12.12-6.32h0l-.02-.02ZM455.36,654.24c.33-.17.72-.32,1.12-.44.44,1.06,1,2.38,1.71,4.04,1.58,3.74,4.56,10.78,5.72,14.44-.44.18-.95.39-1.43.57-1.03-2.48-2.64-6.82-3.82-9.98-1.46-3.94-2.54-6.82-3.31-8.65h.02ZM293.05,646.03c-2.61,0-4.01,1.36-4.62,2.17-.71.95-3.47,8.03-2.19,10.82,1.37,2.97,4.51,3.56,6.81,4.01.2.05.42.08.65.14-.44,1.72-1.12,4.23-1.83,6.82-6.13,22.61-6.4,25.45-4.91,27.74,1.93,2.96,9.27,3.26,9.33,3.26,3.17,0,4.65-1.4,5.34-2.57l.27-.47.14-.53,7.59-30.41c.29.09.57.18.85.27,1.15.38,2.45.81,3.86.81,1.25,0,2.4-.33,3.38-1.01.71-.48,2.2-1.49,3.31-7.65.47-2.58.53-4.24-.45-5.61-.86-1.21-1.21-1.71-11.89-4.35-4.78-1.19-9.93-2.35-11.35-2.66-.23-.05-.5-.12-.77-.2-.98-.27-2.22-.6-3.52-.6h0ZM415.98,649.46c-.21,0-.41,0-.6.03-1.24.12-2.16.68-2.78,1.06-.06.03-.11.06-.17.11l-1.1.15c-7.17,1-12.83,1.8-16.35,12.27l-.32.95.2.98,6.02,30.23.09.44.18.41c1.42,3.09,8.21,7.47,11.27,7.77h.18l.24.02c1.28,0,13.34-2.08,15.02-2.97,2.81-1.48,7.08-8.63,7.12-11.94v-.41l-.08-.41-6.02-29.49-.09-.42-.18-.39c-1.57-3.46-8.39-8.38-12.68-8.38h.03ZM412.39,667.12c.33-.09.69-.17,1.04-.24l3.91,19.35-.89.17-4.08-19.27h.02ZM367.92,655.62c-1.51,0-5.25.06-7.32.68-4.11,1.21-9.67,7.32-9.96,12.13,0,.08-.27,6.87,4.17,7.89.29.06.91.21,3.06.21,5.9,0,6.87-.69,7.52-1.15,1.22-.88,1.75-2.04,1.99-3.08.59-.08,1.13-.12,1.6-.14-.06.39-.18.92-.39,1.65l-15.42,14.32-.85.78-.26,1.12c-1.39,5.98-.65,11.94.21,15.91l.66,3.05,3.12-.09,24.92-.66c2.08-.09,4.6-1.43,5.31-3.74l.17-.54v-11.79c0-4.41-5.55-4.41-7.65-4.41-1.22,0-2.25.09-3.11.23l8.68-8.04,1.22-1.13v-1.66c0-.91.05-1.99.12-3.12.17-2.9.36-6.2-.42-9.01-.6-2.16-6.1-7.32-6.16-7.37-.68-.5-2.75-2.04-11.23-2.04h.02Z"/>
  </g>
</svg>